<?xml version="1.0" encoding="UTF-8" standalone="no"?>
<!-- Created with Inkscape (http://www.inkscape.org/) -->

<svg
   xmlns:dc="http://purl.org/dc/elements/1.1/"
   xmlns:cc="http://creativecommons.org/ns#"
   xmlns:rdf="http://www.w3.org/1999/02/22-rdf-syntax-ns#"
   xmlns:svg="http://www.w3.org/2000/svg"
   xmlns="http://www.w3.org/2000/svg"
   xmlns:sodipodi="http://sodipodi.sourceforge.net/DTD/sodipodi-0.dtd"
   xmlns:inkscape="http://www.inkscape.org/namespaces/inkscape"
   id="svg2"
   version="1.1"
   inkscape:version="0.48.4 r9939"
   width="402"
   height="402"
   sodipodi:docname="Stalin.svg">
  <metadata
     id="metadata8">
    <rdf:RDF>
      <cc:Work
         rdf:about="">
        <dc:format>image/svg+xml</dc:format>
        <dc:type
           rdf:resource="http://purl.org/dc/dcmitype/StillImage" />
        <dc:title></dc:title>
      </cc:Work>
    </rdf:RDF>
  </metadata>
  <defs
     id="defs6" />
  <sodipodi:namedview
     pagecolor="#ffffff"
     bordercolor="#666666"
     borderopacity="1"
     objecttolerance="10"
     gridtolerance="10"
     guidetolerance="10"
     inkscape:pageopacity="0"
     inkscape:pageshadow="2"
     inkscape:window-width="1550"
     inkscape:window-height="881"
     id="namedview4"
     showgrid="false"
     inkscape:zoom="1.6604697"
     inkscape:cx="149.76518"
     inkscape:cy="193.13645"
     inkscape:window-x="0"
     inkscape:window-y="0"
     inkscape:window-maximized="1"
     inkscape:current-layer="svg2" />
  <path
     style="fill:#000000"
     d="m 191.50708,392.01145 c -0.35034,-0.56686 0.0511,-0.7345 0.94098,-0.39301 1.73242,0.66479 2.04939,1.38156 0.61096,1.38156 -0.51754,0 -1.21592,-0.44485 -1.55194,-0.98855 z"
     id="path9278" />
  <path
     style="fill:#000000"
     d="m 186.87244,390.25 c -1.24387,-1.58606 -1.2085,-1.62143 0.37756,-0.37756 0.9625,0.75485 1.75,1.54235 1.75,1.75 0,0.82304 -0.82119,0.29331 -2.12756,-1.37244 z"
     id="path9276" />
  <path
     style="fill:#000000"
     d="M 199.47301,390.95633 C 199.14793,390.43035 199.80852,390 200.94098,390 c 2.41457,0 2.65816,0.55611 0.59105,1.34934 -0.80739,0.30982 -1.73395,0.13297 -2.05902,-0.39301 z"
     id="path9274" />
  <path
     style="fill:#000000"
     d="m 182.5,388.02309 c -2.34928,-0.99861 -8.48574,-6.54883 -8.5318,-7.71672 -0.0175,-0.4435 -0.74873,-1.70637 -1.62498,-2.80637 -1.57175,-1.97311 -1.58602,-1.96975 -1.06181,0.25 0.73169,3.09835 -0.48635,2.81666 -3.0986,-0.7166 -1.36236,-1.8427 -2.75959,-2.7493 -3.68806,-2.39301 C 163.55056,375.00271 163,374.62207 163,373.60699 163,372.72314 162.55,372 162,372 c -0.55,0 -0.94671,-0.3375 -0.88158,-0.75 0.30974,-1.96169 -0.24254,-2.60213 -1.08919,-1.26306 -0.76326,1.20719 -1.86336,0.52912 -5.84723,-3.60408 -2.73752,-2.84012 -8.39438,-6.99078 -12.79455,-9.38785 -4.3381,-2.36326 -8.66945,-4.9687 -9.62524,-5.78986 -1.61458,-1.38717 -1.72093,-1.1996 -1.5,2.64573 0.13079,2.27632 0.54399,4.14109 0.91824,4.14394 0.37425,0.003 0.85757,1.01768 1.07406,2.25518 0.36045,2.06044 0.46283,2.09406 1.21527,0.39908 0.5449,-1.22748 0.36129,-2.13545 -0.5451,-2.69563 -0.75172,-0.46459 -1.04229,-1.16917 -0.64572,-1.56574 1.28573,-1.28573 2.1305,0.59491 2.32203,5.16932 0.13078,3.12337 1.00577,5.54969 2.89422,8.02557 3.61974,4.74572 2.54103,5.38857 -2.11346,1.2595 -8.57221,-7.60453 -15.87594,-15.8182 -20.97849,-23.5921 -2.97828,-4.5375 -5.66395,-8.25 -5.96817,-8.25 -0.30422,0 -0.23204,0.51953 0.1604,1.15451 0.44208,0.7153 0.27432,0.88306 -0.44098,0.44098 C 107.51953,340.20305 107,339.07766 107,338.09462 c 0,-2.60957 -2.57517,-7.34689 -5.47418,-10.07037 C 99.048145,325.6966 99,325.37274 99,311.03389 L 99,296.41642 94.5,292 90,287.58358 90,279.79179 C 90,273.70851 89.68701,272 88.57258,272 c -2.310896,0 -5.580128,-4.99616 -5.486627,-8.38486 l 0.08595,-3.11514 0.808913,2.68026 c 0.444902,1.47414 1.981224,3.94455 3.414048,5.48978 3.210473,3.46235 3.280777,2.77371 1.038269,-10.17004 -0.857589,-4.95 -1.74372,-10.35 -1.969179,-12 -1.109776,-8.12179 -1.545332,-9.406 -3.000734,-8.84751 C 82.65845,237.96131 82,238.9967 82,239.95335 c 0,0.95666 -0.714051,3.17072 -1.58678,4.92015 -0.872729,1.74943 -1.927457,5.30606 -2.343841,7.90364 -0.416383,2.59757 -0.990921,4.04786 -1.276751,3.22286 -0.285829,-0.825 -0.928207,-2.85 -1.427505,-4.5 -3.330593,-5.76675 -3.273773,-6.33528 -4.427379,-10.16375 -0.515759,-1.35655 -0.913544,-3.67465 -0.883967,-5.15135 0.0374,-1.86696 0.626244,-0.8927 1.932906,3.19801 2.230872,6.98409 3.241992,8.25141 4.945595,6.19869 2.149545,-2.59004 2.450467,-8.97277 0.606262,-12.85914 -0.928095,-1.95581 -1.508781,-4.83097 -1.290415,-6.38924 0.354703,-2.53117 0.482875,-2.38013 1.202261,1.41678 1.00479,5.30327 3.063014,5.77287 2.191462,0.5 -0.34091,-2.0625 -0.624789,-5.2125 -0.630842,-7 -0.01108,-3.27059 -2.287443,-4.63013 -3.348725,-2 -0.277413,0.6875 -0.539913,-0.64476 -0.583334,-2.96057 -0.04387,-2.33979 0.520302,-4.77036 1.269779,-5.47048 0.741799,-0.69294 1.169797,-1.94818 0.951108,-2.78942 -0.21869,-0.84124 0.02555,-4.90453 0.542755,-9.02953 0.731606,-5.83496 0.643305,-7.97362 -0.397744,-9.63337 C 76.132063,187.27365 75.848006,183 77.021675,183 c 0.327836,0 1.469574,0.66069 2.537195,1.4682 3.002468,2.27095 3.226569,1.90208 2.150576,-3.5398 -0.91882,-4.64696 -1.199819,-5.02214 -3.356113,-4.48094 C 76.145701,177.00154 76,176.76197 76,172.57807 c 0,-2.45302 0.389362,-4.70068 0.865249,-4.99479 0.475887,-0.29411 1.194966,-8.06313 1.597953,-17.26449 l 0.732704,-16.72973 3.402047,-3.97453 L 86,125.64 86.192071,114.07 C 86.29771,107.7065 86.277171,101.375 86.146429,100 86.015687,98.625 85.658914,93.281679 85.353601,88.125952 84.775078,78.35663 85.264063,76.514172 91.491184,65 c 0.743631,-1.375 2.556584,-4.928186 4.028786,-7.895969 2.762454,-5.568779 11.39071,-15.098269 13.68241,-15.111553 0.71369,-0.0041 3.32262,-2.075979 5.79762,-4.604092 4.59542,-4.694042 14.90514,-10.576517 20.76029,-11.845317 1.79315,-0.388574 3.81815,-1.249642 4.5,-1.913484 4.1667,-4.05671 18.61448,-7.259257 20.31754,-4.503659 0.9975,1.613993 18.44379,-0.07014 20.77871,-2.005819 0.68511,-0.567969 14.17078,-0.830208 33.64346,-0.654223 26.61488,0.240533 33.42898,0.587678 37.63017,1.917074 2.8216,0.892845 5.6892,2.296934 6.37245,3.120198 C 259.68587,22.32642 260.72271,23 261.30672,23 c 2.35911,0 9.63848,4.251975 10.17537,5.943567 0.37997,1.197169 1.9868,2.035702 4.74655,2.477004 2.29467,0.366932 4.64446,1.018625 5.22175,1.448207 0.57728,0.429581 3.06427,1.358517 5.52664,2.064301 5.84676,1.675848 11.00696,5.305561 19.21434,13.515481 4.22726,4.22857 6.48417,7.233387 6.12872,8.159685 C 311.68442,58.264774 314.64081,62 316.5876,62 c 1.25006,0 3.03098,3.680371 2.58195,5.335729 -0.12469,0.45965 0.75844,2.429729 1.96251,4.377953 1.83366,2.966914 1.98858,3.863495 0.95388,5.52031 -1.03688,1.660318 -0.9165,2.322499 0.74935,4.122047 1.58907,1.716588 2.10482,4.105321 2.58735,11.983337 0.33146,5.411656 1.00184,10.586654 1.48973,11.500004 1.22022,2.28428 1.53577,7.28345 0.59826,9.47808 -0.45458,1.06415 -0.22274,2.92934 0.55934,4.5 0.73464,1.4754 1.53897,3.08957 1.78738,3.58705 0.24842,0.49748 -0.0679,0.58342 -0.70284,0.19098 -1.53691,-0.94986 -1.58877,10.57025 -0.0545,12.10453 0.80003,0.80003 0.68762,2.55904 -0.41221,6.45 -0.83174,2.94249 -1.82929,7.78749 -2.21679,10.76667 -0.3875,2.97917 -1.777,7.4337 -3.08778,9.89894 -1.31078,2.46523 -2.38324,5.26013 -2.38324,6.21086 0,0.95074 -0.71901,2.32535 -1.5978,3.05468 -1.13689,0.94353 -1.43739,2.31455 -1.04172,4.75278 0.33776,2.08139 -0.0164,4.53386 -0.9022,6.24673 -0.80205,1.551 -1.45828,3.68986 -1.45828,4.75303 0,1.06316 -0.7926,2.1403 -1.76134,2.39363 -0.96873,0.25333 -3.04528,3.08276 -4.61455,6.28763 -3.17429,6.48275 -4.1092,6.16253 -4.92416,-1.6866 -0.26678,-2.5694 -0.77983,-5.1486 -1.14011,-5.73155 -0.36028,-0.58295 -0.66173,-4.33071 -0.66988,-8.32836 -0.0157,-7.70593 -1.6212,-11.68518 -7.33255,-18.174 -2.42092,-2.75047 -3.06368,-4.83463 -2.72764,-8.84446 0.0807,-0.9625 -0.29804,-1.75 -0.84156,-1.75 -1.49308,0 -1.18682,-1.65853 0.64442,-3.48977 1.32211,-1.32211 1.41857,-2.10245 0.50715,-4.10279 -1.07096,-2.35049 -1.01683,-2.41362 1.11737,-1.30308 2.18996,1.13955 2.18568,1.10492 -0.18146,-1.46864 -2.5201,-2.73985 -2.22457,-3.32095 0.85165,-1.67461 1.49578,0.80052 1.75676,0.59165 1.56188,-1.25 -0.12868,-1.21611 -0.34943,-2.21111 -0.49055,-2.21111 -0.14111,0 -0.33195,-1.2375 -0.42408,-2.75 -0.0921,-1.5125 0.0546,-2.75 0.32606,-2.75 0.27147,0 3.5271,3.15 7.23473,7 11.31499,11.74947 9.77334,7.4279 -2.13538,-5.98592 -0.825,-0.92927 -1.95,-2.37027 -2.5,-3.20224 -0.55,-0.83196 -2.2375,-3.37103 -3.75,-5.64238 C 291.7328,117.63848 291.51602,117 292.99488,117 c 0.54718,0 1.90233,1.9125 3.01145,4.25 2.04285,4.30539 12.99367,16.11313 12.99367,14.01046 0,-0.62833 -0.45,-1.42054 -1,-1.76046 -0.55,-0.33992 -1,-1.27486 -1,-2.07765 0,-0.80279 -2.00063,-4.00862 -4.44585,-7.12409 -2.44522,-3.11546 -4.20202,-6.059 -3.904,-6.54121 0.29802,-0.4822 1.06115,-0.28273 1.69585,0.44327 0.6347,0.726 2.4622,2.44043 4.06111,3.80984 l 2.90712,2.48984 -2.61907,-4.47357 c -1.44049,-2.46046 -3.42369,-4.79133 -4.40711,-5.17971 -0.98343,-0.38838 -1.47592,-0.73778 -1.09442,-0.77643 0.3815,-0.0387 -0.61893,-1.50736 -2.22318,-3.26378 -1.60424,-1.75642 -3.22602,-2.88428 -3.60395,-2.50634 -0.37793,0.37793 0.285,1.53028 1.47318,2.56078 1.94881,1.6902 2.93048,4.13905 1.65921,4.13905 -0.27561,0 -2.2639,-1.81643 -4.41842,-4.03651 -2.25326,-2.32184 -4.18942,-3.59622 -4.5579,-3 C 286.3998,109.78016 285,109.07904 285,106.7 c 0,-1.265 -0.5625,-2.87502 -1.25,-3.57782 -1.01213,-1.03465 -0.4936,-1.13865 2.72491,-0.54651 3.69725,0.68021 3.85941,0.61579 2.32143,-0.92219 C 287.88693,100.74407 286.46227,100 285.63045,100 c -0.83183,0 -1.82033,-0.49821 -2.19666,-1.107134 -0.85025,-1.375727 3.07574,-0.308728 6.27004,1.704064 1.59844,1.0072 2.90327,1.12275 4.75,0.42062 C 296.93573,100.07394 297.9984,98 296,98 c -0.55,0 -1,0.465833 -1,1.035184 0,0.650003 -0.8372,0.570166 -2.25,-0.214565 -1.2375,-0.687361 -2.55,-1.265694 -2.91667,-1.285184 C 288.28633,97.453208 287.81311,96 289.33333,96 290.25,96 291,95.598784 291,95.108408 c 0,-1.394856 -5.16598,-2.342424 -6.34464,-1.163763 -0.58045,0.580445 -1.97786,1.003154 -3.10536,0.939354 -1.68684,-0.09545 -1.73998,-0.197018 -0.3,-0.573325 2.01681,-0.527046 2.34823,-2.920551 0.5,-3.610916 -0.84954,-0.317326 -0.69108,-0.698006 0.49464,-1.188263 C 284.52434,88.568904 293,80.202225 293,78.894424 c 0,-0.556852 0.45,-0.734343 1,-0.394424 0.55,0.339919 1,-0.304119 1,-1.431196 0,-1.95338 -0.0935,-1.969132 -2,-0.336776 -1.1,0.94185 -2,2.228863 -2,2.86003 0,1.769164 -7.90867,7.832036 -11.12904,8.531643 -3.06504,0.665863 -3.42012,0.259497 -1.85565,-2.123701 0.80591,-1.227667 1.14098,-1.257833 1.84553,-0.166154 0.69412,1.075534 0.97854,1.027119 1.46861,-0.25 C 281.66373,84.712731 281.54348,84 281.06223,84 c -0.48124,0 -0.63789,-0.906688 -0.34809,-2.014862 0.42558,-1.62743 0.16722,-1.88756 -1.34362,-1.352822 -1.53196,0.542214 -1.64427,0.418206 -0.62052,-0.685137 C 280.71463,77.829814 280.28562,75 278,75 c -1.1,0 -2,0.45 -2,1 0,0.55 -0.9551,1 -2.12244,1 -1.71538,0 -1.89749,-0.271062 -0.9495,-1.413314 0.64512,-0.777322 1.40258,-2.679685 1.68325,-4.227472 0.62142,-3.42692 1.38311,-4.390367 1.404,-1.775881 0.008,1.054167 0.38565,2.500467 0.83827,3.214001 0.65603,1.03418 1.0873,0.978826 2.12613,-0.272892 1.10519,-1.331662 1.05379,-1.474528 -0.33827,-0.940345 C 277.72872,71.934343 277,71.722532 277,71.106989 277,70.498145 277.3745,70 277.83222,70 c 1.408,0 2.79362,-6.329187 2.07979,-9.5 -0.64645,-2.871478 -0.68472,-2.828638 -0.89338,1 -0.18601,3.413281 -0.32141,3.633301 -0.92306,1.5 -0.69528,-2.465274 -0.72438,-2.451384 -2.09466,1 l -1.38959,3.5 -0.37249,-4 c -0.57033,-6.124638 -2.43949,-7.033608 -2.05634,-1 0.17463,2.75 0.73857,5.303203 1.25321,5.673785 0.55531,0.399874 0.41868,1.296748 -0.33609,2.206195 -0.69949,0.842826 -0.9746,2.013272 -0.61137,2.600992 0.36323,0.58772 0.0808,0.944932 -0.62767,0.793805 -0.79924,-0.170496 -1.3148,0.794443 -1.35848,2.542582 -0.0428,1.714513 -1.26846,4.063193 -3.13103,6 -1.68335,1.750453 -3.5668,4.082641 -4.18544,5.182641 -1.11787,1.987673 -1.12499,1.987365 -1.15521,-0.05 -0.0167,-1.1275 0.50209,-2.5825 1.15292,-3.233333 0.65084,-0.650834 0.81423,-1.528334 0.3631,-1.95 -0.45113,-0.421667 -1.05507,-0.102369 -1.34207,0.709551 -0.77358,2.188362 -9.15417,10.718683 -9.18118,9.345211 -0.0127,-0.648215 0.65007,-1.851825 1.47294,-2.67469 0.82286,-0.822864 1.9622,-2.722004 2.53185,-4.220309 0.90983,-2.393031 0.84952,-2.569646 -0.49612,-1.452866 -1.80096,1.49467 -2.08454,-0.02087 -0.33185,-1.773564 0.80651,-0.806513 0.84069,-1.2 0.10423,-1.2 -0.99702,0 -2.29738,1.416402 -8.26265,9 l -1.9665,2.5 0.43892,-5 c 0.35558,-4.050552 0.22787,-4.620221 -0.67251,-3 -1.05765,1.903203 -5.6968,6.5 -6.55989,6.5 -0.22402,0 -0.32721,-0.7875 -0.2293,-1.75 0.31261,-3.073203 -0.0263,-4.384123 -0.98081,-3.794186 -0.51067,0.315616 -1.11785,-0.220326 -1.34929,-1.190983 -0.34807,-1.45986 -0.42944,-1.419221 -0.47088,0.235169 -0.0581,2.318518 -1.2869,6.5 -1.91016,6.5 -1.84622,0 -2.79801,-2.927546 -2.49563,-7.676231 0.19003,-2.984533 -0.001,-6.640827 -0.42502,-8.125097 -0.66071,-2.313983 -0.86858,-1.886024 -1.45828,3.00222 C 229.1572,84.874075 226.5204,91 224.45308,91 223.65389,91 223,90.3625 223,89.583333 c 0,-0.779166 -0.37988,-1.566666 -0.84418,-1.75 -0.4643,-0.183333 -0.64049,-2.017224 -0.39153,-4.075312 0.24896,-2.058089 0.85384,-3.494031 1.34418,-3.190983 C 223.59881,80.870086 224,80.641476 224,80.059017 224,79.476558 223.325,79 222.5,79 c -0.93333,0 -1.5,0.944444 -1.5,2.5 0,1.471657 -0.57369,2.5 -1.39469,2.5 -1.07762,0 -1.21523,-0.795688 -0.60531,-3.5 0.44661,-1.980213 0.40088,-3.5 -0.10531,-3.5 -0.49208,0 -0.9584,1.2375 -1.03626,2.75 -0.15239,2.960152 -0.41335,5.997352 -0.68739,8 -0.0941,0.6875 -0.66918,1.25 -1.27803,1.25 -0.60884,0 -0.89612,-0.5625 -0.63838,-1.25 0.25773,-0.6875 0.13572,-2.15 -0.27114,-3.25 -0.68907,-1.862987 -0.8276,-1.811608 -2.02213,0.75 -2.16491,4.64251 -3.01599,3.043254 -0.94795,-1.781285 1.55807,-3.634835 1.75192,-5.26698 0.97984,-8.25 L 212.03076,71.5 l 0.42539,3.772408 c 0.23396,2.074825 0.0386,3.533398 -0.43401,3.241274 -0.47267,-0.292124 -1.16769,0.872539 -1.5445,2.588141 -0.61284,2.790241 -0.84537,2.959021 -2.20434,1.600044 -1.35898,-1.358977 -1.81916,-1.212412 -4.36257,1.38945 -2.73301,2.795837 -4.63789,3.894262 -3.4665,1.998925 C 201.16106,84.930377 200.06337,82 198.91206,82 c -0.71075,0 -2.21256,3.811361 -2.37384,6.024447 -0.021,0.288446 -1.10652,1.863446 -2.41222,3.5 -2.26912,2.844097 -2.34103,2.865107 -1.62761,0.475553 0.41051,-1.375 1.18284,-3.046148 1.71629,-3.713661 2.13152,-2.667241 6.58515,-12.801208 6.02449,-13.708377 -0.32886,-0.532108 -1.07971,0.437873 -1.66855,2.155515 -1.36035,3.968112 -3.03745,5.61629 -2.3063,2.266523 0.30011,-1.375 0.2082,-3.392501 -0.20426,-4.483335 -0.61794,-1.634252 -0.8732,-1.326238 -1.45031,1.75 C 194.22454,78.319999 193.51009,80 193.02207,80 c -1.28336,0 -2.28413,-3.760827 -1.39466,-5.241051 0.49965,-0.83149 0.16693,-0.780426 -0.97991,0.150393 -1.24712,1.012207 -1.56061,2.209802 -1.1125,4.25 C 189.91976,80.911168 189.74515,82 189.07946,82 188.48575,82 188,82.815809 188,83.812909 c 0,0.9971 -1.38436,3.1346 -3.07636,4.75 L 181.84729,91.5 l 0.68476,-2.75 c 0.4158,-1.669844 0.2782,-2.75 -0.35032,-2.75 -0.56929,0 -1.24088,0.7875 -1.4924,1.75 -0.25153,0.9625 -0.50953,0.324304 -0.57333,-1.418213 -0.16769,-4.579998 -1.16016,-6.868878 -2.23985,-5.165633 -0.6415,1.011993 -0.84922,0.897336 -0.86084,-0.475171 -0.008,-0.994959 -0.45411,-1.537824 -0.99042,-1.206366 -1.08777,0.672278 -6.64833,-5.010288 -7.56855,-7.734617 -0.86795,-2.569569 -2.36268,-2.135963 -1.7236,0.5 0.30002,1.2375 1.85989,3.48679 3.46637,4.998423 1.60648,1.511633 2.64512,3.194595 2.3081,3.739916 -0.33703,0.545322 -3.03537,-1.591469 -5.99631,-4.748423 -4.96908,-5.298038 -5.36276,-5.5292 -5.11382,-3.002754 0.14834,1.505439 1.01968,3.565872 1.93631,4.57874 0.91664,1.012869 1.66661,3.070204 1.66661,4.571856 0,1.501652 0.38986,2.48933 0.86635,2.19484 0.4765,-0.294489 1.6961,0.381425 2.71024,1.502033 1.57824,1.743935 1.63351,2.168124 0.38365,2.944373 -0.90768,0.56373 -1.59164,0.524835 -1.80749,-0.102788 -0.21757,-0.632643 -0.89214,-0.557464 -1.80642,0.201319 -0.81558,0.676872 -1.32402,0.753604 -1.15275,0.173967 0.16853,-0.570374 -0.81858,-2.030831 -2.19358,-3.24546 -1.375,-1.21463 -1.9375,-1.922575 -1.25,-1.573213 0.6875,0.349363 1.25,0.384938 1.25,0.07906 0,-1.123901 -6.5375,-3.181792 -8.75889,-2.757146 -2.14537,0.410113 -2.17826,0.523841 -0.51624,1.784839 0.97632,0.740748 2.56263,1.361127 3.52513,1.378619 0.9625,0.01749 1.75,0.399458 1.75,0.848813 0,0.449356 -2.5875,0.629984 -5.75,0.401396 -6.29036,-0.454672 -6.41728,0.872021 -0.25,2.613123 3.33911,0.942674 3.37057,0.99224 0.68426,1.078283 -1.54866,0.0496 -3.69546,-0.380622 -4.77067,-0.956056 -1.07521,-0.575435 -2.49168,-0.71451 -3.14772,-0.309057 -0.77806,0.48087 -0.16241,1.176658 1.77067,2.00114 l 2.96346,1.263953 -3.5,0.121182 -3.5,0.121182 3.17823,1.173922 c 1.74803,0.645657 3.51521,1.51611 3.92708,1.934339 0.95611,0.970872 -5.82484,-0.272262 -6.93382,-1.271159 -0.8187,-0.73744 -9.46941,1.426599 -10.59149,2.649541 -0.319,0.347675 1.72128,0.338799 4.53395,-0.01973 3.94132,-0.502391 5.40252,-0.304154 6.37244,0.864532 1.08597,1.308512 0.72762,1.532629 -2.61395,1.634816 -2.12984,0.06513 -4.25731,0.04934 -4.7277,-0.03509 C 134.47315,98.873049 132,101.01833 132,102.24489 c 0,0.55243 0.78324,0.41822 1.75,-0.29987 0.9625,-0.71492 0.5369,-0.0994 -0.94578,1.36775 -2.52954,2.50311 -2.607,2.83782 -1.25616,5.42743 1.83382,3.51549 1.82288,4.33937 -0.0481,3.62143 -0.825,-0.31659 -1.5,-0.0633 -1.5,0.56277 0,0.6261 0.675,1.39739 1.5,1.71397 0.825,0.31659 1.5,0.96334 1.5,1.43723 0,0.4739 -0.675,0.60261 -1.5,0.28603 -1.68901,-0.64814 -1.91961,0.42673 -0.55446,2.58449 0.55908,0.88369 0.53944,2.14768 -0.0505,3.25 -0.6357,1.18788 -0.59985,2.48685 0.105,3.80388 0.65811,1.2297 0.6956,2 0.0973,2 -1.17854,0 -1.08703,4.04242 0.12815,5.66097 0.51056,0.68005 0.45537,1.41824 -0.13325,1.78203 -0.55268,0.34158 -0.74698,1.29312 -0.43177,2.11455 0.42804,1.11545 0.90797,1.21558 1.89602,0.39558 1.06931,-0.88745 1.25013,-0.30283 0.94327,3.04966 -0.20881,2.28116 -0.85765,4.72353 -1.44188,5.42748 -0.58422,0.70395 -1.66594,3.0237 -2.40382,5.15502 l -1.3416,3.87511 4.09377,1.86851 c 4.09569,1.86938 11.79248,3.02244 18.84378,2.823 2.0625,-0.0583 3.75,0.33361 3.75,0.87101 0,0.53739 0.3375,0.92379 0.75,0.85866 2.11874,-0.33454 3.25,0.28681 3.25,1.78509 0,0.91666 0.2867,1.37996 0.63712,1.02954 0.35042,-0.35042 1.88239,0.24958 3.40437,1.33334 1.65781,1.18046 4.3904,1.97045 6.81583,1.97045 2.22671,0 5.08225,0.41886 6.34563,0.93079 1.26338,0.51194 3.55134,1.19973 5.08436,1.52842 1.53302,0.32869 2.7217,1.14734 2.64151,1.81921 -0.30521,2.55727 1.35707,5.82585 2.70061,5.31029 1.38067,-0.52982 4.35143,3.07515 4.74523,5.75824 0.11715,0.79821 0.77157,2.12432 1.45426,2.94691 0.68269,0.82259 1.14359,1.88049 1.02422,2.35088 -0.11937,0.47039 0.30138,2.62537 0.93499,4.78884 0.63362,2.16348 0.79711,4.41348 0.36332,5 -0.43379,0.58653 -0.86567,2.41642 -0.95972,4.06642 -0.0941,1.65 -0.58694,6.15 -1.09532,10 -0.97427,7.3782 -0.90197,10.97616 0.2728,13.57755 0.39183,0.86765 0.24083,2.81792 -0.33555,4.33392 -0.57638,1.516 -0.72113,3.2811 -0.32167,3.92245 0.89934,1.44389 0.42761,5.50201 -0.94925,8.16608 -0.56851,1.1 -0.69765,1.68745 -0.28698,1.30545 1.23375,-1.14762 5.52424,4.78351 5.52424,7.63665 0,1.57683 1.06089,3.63659 2.61473,5.07665 2.29048,2.12274 3.31356,2.36531 8.25,1.95603 l 5.63527,-0.46721 -4,1.946 c -2.2526,1.09588 -4.98291,1.70215 -6.25,1.3878 -4.91101,-1.21834 -10.59829,2.66803 -8.61067,5.88407 1.10318,1.78499 1.48583,6.96995 0.46795,6.34087 -0.48868,-0.30203 -1.61273,0.55617 -2.4979,1.90709 -1.83724,2.804 -2.06294,3.92495 -0.60938,3.0266 1.60737,-0.99341 1.14906,3.1314 -0.5,4.5 -0.825,0.68469 -1.5,1.70953 -1.5,2.27743 0,0.5679 0.9,0.21806 2,-0.77743 2.41072,-2.18168 2.67469,-0.90301 0.34501,1.67126 -0.91024,1.00581 -1.24774,1.81234 -0.75,1.7923 1.45377,-0.0585 6.40499,-7.11208 6.40499,-9.12459 0,-2.88027 0.10442,-3.17687 2.10992,-5.99334 1.03954,-1.4599 1.89008,-3.1474 1.89008,-3.75 0,-1.49946 1.71611,-1.38614 2.33772,0.15437 0.27741,0.6875 0.53991,0.19537 0.58333,-1.09362 0.0705,-2.09368 2.5797,-3.79558 4.6886,-3.18014 0.36671,0.10702 1.03009,-0.39332 1.47417,-1.11187 0.44409,-0.71855 1.15637,-0.95751 1.58285,-0.53104 0.42647,0.42648 0.16612,1.15198 -0.57856,1.61222 -1.1286,0.69751 -1.10885,1.18676 0.11865,2.93926 0.80995,1.15636 1.73331,1.84179 2.05191,1.52318 1.12384,-1.12384 2.90312,3.81127 2.27556,6.31163 -0.50711,2.02051 -0.32189,2.41288 0.91497,1.93825 1.13528,-0.43565 1.5508,0.0472 1.5508,1.80209 0,1.31845 0.59464,2.99183 1.32143,3.71861 0.72678,0.72679 1.36428,1.69643 1.41667,2.15476 0.16842,1.47371 1.2619,2.04742 1.2619,0.66208 0,-0.73586 -0.61583,-2.04836 -1.36851,-2.91667 -0.75268,-0.86831 -1.6062,-3.46398 -1.89672,-5.76816 -0.51781,-4.10693 -0.47316,-4.18245 2.26746,-3.83561 2.78984,0.35307 3.28959,-0.61746 1.66063,-3.22497 -0.42949,-0.6875 -0.45981,-1.76953 -0.0674,-2.40451 0.42402,-0.68607 0.27612,-0.88417 -0.36451,-0.48824 C 221.97047,268.13628 218,262.95629 218,260.53277 c 0,-2.36987 4.04822,-1.5905 6.32258,1.21723 1.00242,1.2375 2.46492,2.25 3.25,2.25 0.78508,0 1.3349,0.3375 1.22182,0.75 -0.25347,0.92461 3.05344,7.25 3.7903,7.25 0.29333,0 0.25522,-0.45 -0.0847,-1 -0.33992,-0.55 -0.0555,-1 0.63211,-1 0.83953,0 0.74059,-0.41057 -0.30124,-1.25 -2.90628,-2.34167 -2.8104,-4.31925 0.26571,-5.48035 1.76402,-0.66585 3.1208,-0.72693 3.47343,-0.15638 0.31826,0.51496 0.2077,0.87184 -0.24568,0.79309 -2.07325,-0.36016 -2.17441,0.24356 -0.34701,2.07096 1.20772,1.20772 2.63253,1.72589 3.66074,1.33133 1.32577,-0.50875 1.56846,-0.2064 1.14234,1.42309 -0.39659,1.51656 0.29485,2.6808 2.58926,4.35982 1.72169,1.2599 2.6174,1.64222 1.99048,0.84959 C 244.11683,272.36921 243.81078,267 244.96448,267 c 0.39297,0 1.22707,1.125 1.85357,2.5 0.62649,1.375 1.76862,2.5 2.53807,2.5 0.76944,0 1.95919,0.675 2.64388,1.5 1.98155,2.38762 2.74245,1.76488 2.44373,-2 -0.1971,-2.48397 0.13363,-3.5 1.13928,-3.5 0.77934,0 1.41699,0.6199 1.41699,1.37756 0,0.75765 0.64607,1.91374 1.43572,2.56909 0.78965,0.65535 1.74634,2.60576 2.12598,4.33425 0.81934,3.73044 5.11437,10.61193 7.93397,12.7118 1.10238,0.82098 3.24183,1.60044 4.75433,1.73214 5.37332,0.46786 6.75,0.70969 6.75,1.1857 0,1.38722 -5.37801,7.95381 -7.40072,9.03633 -2.04776,1.09592 -2.85456,0.91257 -6.44775,-1.46529 -4.05388,-2.68273 -5.85205,-2.93631 -14.90781,-2.10227 -1.79095,0.16495 -3.53202,0.57565 -3.86904,0.91268 -0.33703,0.33702 -1.28531,-0.0598 -2.1073,-0.88175 -0.95205,-0.95205 -2.6193,-1.31726 -4.59328,-1.00616 -1.70432,0.26861 -3.67821,0.007 -4.38643,-0.5803 -0.92015,-0.76366 -1.28767,-0.74831 -1.28767,0.0538 0,1.92982 -1.88381,1.2294 -3.55555,-1.32199 -2.28954,-3.49428 -2.60876,-9.71494 -0.57486,-11.20216 0.895,-0.65444 1.40297,-1.33918 1.12884,-1.52165 -0.27414,-0.18247 -1.797,-1.45676 -3.38415,-2.83176 l -2.88571,-2.5 1.33762,2.5 c 1.7256,3.22512 2.00472,5 0.78631,5 -0.53769,0 -0.61269,0.55748 -0.16817,1.25 0.4413,0.6875 0.85201,2.15 0.91269,3.25 0.0607,1.1 0.40566,3.125 0.76661,4.5 0.36095,1.375 0.2402,3.13942 -0.26834,3.92093 -0.78135,1.20077 -1.3639,1.12733 -3.75995,-0.47401 -1.55944,-1.04222 -3.13534,-1.90663 -3.50201,-1.92093 -0.36666,-0.0143 -1.00416,-0.36349 -1.41666,-0.77599 -0.4125,-0.4125 -2.475,-0.75 -4.58334,-0.75 C 213.09259,293 212,292.57246 212,291.5 c 0,-1.35287 -1.1873,-1.94411 -3.25,-1.61842 -0.4125,0.0651 -0.75,-0.38036 -0.75,-0.98999 0,-0.69736 1.01982,-0.87152 2.75,-0.46962 1.5125,0.35133 2.21984,0.28105 1.57188,-0.15619 -0.64797,-0.43723 -1.09797,-1.4634 -1,-2.28037 0.098,-0.81698 -0.27188,-1.62516 -0.82188,-1.79596 -0.55,-0.1708 -2.0125,-1.26174 -3.25,-2.42431 -1.2375,-1.16257 -2.28655,-1.69783 -2.33122,-1.18945 -0.0447,0.50837 -0.69937,-0.42569 -1.45489,-2.07569 -0.91948,-2.00805 -1.3886,-2.40185 -1.41879,-1.19098 -0.0248,0.99496 -0.4951,1.5309 -1.0451,1.19098 -1.23406,-0.76269 -1.27468,0.51772 -0.0765,2.41052 0.55087,0.8702 0.44923,2.16522 -0.26531,3.38066 -0.89427,1.52113 -0.87335,2.07329 0.0918,2.42281 0.6875,0.24897 1.25,1.26029 1.25,2.24737 0,0.98708 1.0125,2.50075 2.25,3.3637 2.11569,1.47534 1.80237,1.54733 -5.24879,1.206 -4.12433,-0.19965 -7.94933,1.6e-4 -8.5,0.44401 -0.9699,0.78178 -13.20671,2.24404 -16.75121,2.00171 -6.20159,-0.42398 -12.66087,-0.30805 -15.15667,0.27203 -3.17326,0.73753 -5.53777,-0.0471 -3.65276,-1.21208 0.8122,-0.50197 0.63884,-1.13149 -0.58519,-2.125 -0.95662,-0.77645 -1.46091,-0.94559 -1.12067,-0.37587 0.37663,0.63065 -1.94852,1.52284 -5.94394,2.28076 -6.55219,1.24294 -9.04218,0.90268 -6.26181,-0.85568 1.24458,-0.78709 1.21036,-0.93267 -0.22226,-0.94563 -0.93131,-0.008 -2.35023,0.9226 -3.15316,2.06894 -1.34282,1.91714 -1.53671,1.94693 -2.41832,0.37158 -1.08561,-1.93987 -1.66652,-1.26681 -2.62734,3.04417 -0.3727,1.67222 -0.30292,2.45614 0.15766,1.7712 0.61564,-0.91554 1.2684,-0.71245 2.56055,0.79667 0.95384,1.11401 1.4857,2.42764 1.18191,2.91919 -0.30379,0.49154 0.38113,1.76338 1.52204,2.8263 1.87179,1.74383 1.90998,1.99568 0.39101,2.57856 -1.54471,0.59276 -1.52842,0.78857 0.19779,2.37703 1.03464,0.95208 1.93007,2.18105 1.98986,2.73105 0.28851,2.65435 1.74822,5.5 2.82129,5.5 0.65819,0 1.80182,1.54216 2.54138,3.42703 0.73956,1.88487 3.06292,4.69737 5.16301,6.25 2.10009,1.55263 3.82898,3.56062 3.84198,4.46219 0.013,0.90156 0.90867,2.70156 1.99037,4 l 1.96673,2.36078 0.0333,-3.44113 c 0.0313,-3.24249 0.11802,-3.32908 1.50147,-1.5 1.36978,1.81102 1.47032,1.81987 1.5,0.13211 0.0175,-0.99496 0.48302,-1.53015 1.0345,-1.18931 0.60772,0.37559 0.65864,1.28517 0.12928,2.30902 -0.6299,1.2183 -0.21242,2.3805 1.49729,4.16828 1.51104,1.58002 2.37073,1.97287 2.37073,1.08333 0,-0.7676 0.3375,-1.05497 0.75,-0.63861 0.4125,0.41636 0.75,1.68912 0.75,2.82835 0,1.13923 0.60972,2.27681 1.35494,2.52796 0.98043,0.33041 1.1691,-0.12888 0.68261,-1.66169 -1.27512,-4.01754 1.05674,-2.1078 2.90813,2.38169 1.02064,2.475 2.28544,4.5 2.81066,4.5 0.52522,0 2.29193,1.125 3.92603,2.5 3.76318,3.16651 7.07821,3.5504 4.31763,0.5 -2.257,-2.49396 -0.58158,-2.616 2.61514,-0.19049 3.47861,2.63938 21.32512,5.35357 27.38486,4.16483 0.55,-0.1079 3.925,-0.11243 7.5,-0.0101 4.65147,0.13319 7.85085,-0.39394 11.25,-1.85354 4.72895,-2.03062 6.47042,-1.66624 2.84812,0.59592 -5.0346,3.14416 -14.17941,4.35215 -33.35556,4.40612 -10.58341,0.0298 -19.91756,-0.0959 -20.74256,-0.27931 -3.02079,-0.67155 0.3009,7.52698 3.67189,9.0629 1.36115,0.62019 2.06941,1.61424 1.74761,2.45282 -0.3065,0.79873 0.6183,2.32199 2.13316,3.51358 1.58072,1.2434 2.44426,2.70288 2.11182,3.56921 -0.34378,0.89588 0.19524,1.70612 1.38655,2.08423 1.07193,0.34021 1.94897,1.02413 1.94897,1.5198 0,0.49568 -0.75312,0.61223 -1.67361,0.25901 -1.27447,-0.48906 -1.51833,-0.23757 -1.0225,1.05452 0.53729,1.40016 0.32636,1.52295 -1.20669,0.70249 -1.40882,-0.75398 -2.40702,-0.5179 -4.1305,0.97686 -1.25,1.08412 -2.31637,1.9426 -2.36971,1.90773 -0.0533,-0.0349 -0.99699,-0.44595 -2.09699,-0.91352 z"
     id="path9272"
     inkscape:connector-curvature="0"
     sodipodi:nodetypes="ccsssssssssssscsssssssssssssscccssscsssssssssccssssssssssssssssssssscccssssscsssssssssssssssscsssssssccssssssscssssssscsssssssscsssssssssssssscsscssssssssssssssssssssssssssssssssssssssssssscssssssssscsssssscsscssccsssssscsssssscsscssssssssssssscscsssscscssssscssssssssssssssscssssscsssscssssssssssssssssssssssscccsssssssssssscssssscssssssssscscssssssssssssssscssscssssscssscsssssscsssscsscsscsssscsssssccsssssssssccssssssssssssssssssssccscssscscssscssssssscssccsscssscssssscssssssscssssssssscsssssccsssssssssssssssccssssssssssssssccc" />
  <path
     style="fill:#000000"
     d="m 178.60417,362.27083 c -1.01652,-1.01651 -1.85525,0.51389 -1.02122,1.86338 0.63003,1.01942 0.86558,1.02021 1.2043,0.004 0.2316,-0.69479 0.14921,-1.53513 -0.18308,-1.86742 z"
     id="path9270" />
  <path
     style="fill:#000000"
     d="m 156.4322,347.5 c -1.46827,-1.925 -2.99979,-3.5 -3.40337,-3.5 -0.40359,0 -2.93085,-2.8125 -5.61614,-6.25 -6.40441,-8.19844 -10.63495,-12.86107 -11.17721,-12.31881 -0.2406,0.2406 0.73299,1.97198 2.16353,3.84752 1.43055,1.87554 2.60099,3.91597 2.60099,4.5343 0,0.61832 0.57272,0.90445 1.27271,0.63583 0.7,-0.26861 2.02945,0.79266 2.95434,2.35838 1.42759,2.41672 12.67563,14.17367 13.57384,14.18798 0.16549,0.003 -0.90042,-1.5702 -2.36869,-3.4952 z"
     id="path9268" />
  <path
     style="fill:#000000"
     d="m 135.83236,315.94895 c -0.58498,-1.67807 -1.24916,-2.86548 -1.47596,-2.63868 -0.49521,0.49521 1.39173,5.68973 2.06683,5.68973 0.26,0 -0.006,-1.37297 -0.59087,-3.05105 z"
     id="path9266" />
  <path
     style="fill:#000000"
     d="m 131.34508,306.45687 c -0.32569,-0.84872 -0.80663,-1.32866 -1.06875,-1.06653 -0.26213,0.26213 -0.17998,0.95654 0.18255,1.54313 0.98605,1.59546 1.56238,1.28551 0.8862,-0.4766 z"
     id="path9264" />
  <path
     style="fill:#000000"
     d="m 274.5,292 c -0.33992,-0.55 -1.06803,-1 -1.61803,-1 -0.55,0 -0.72189,0.45 -0.38197,1 0.33992,0.55 1.06803,1 1.61803,1 0.55,0 0.72189,-0.45 0.38197,-1 z"
     id="path9262" />
  <path
     style="fill:#000000"
     d="M 233.96013,285.45196 C 233.29737,284.65338 232.36021,284 231.87756,284 c -1.44585,0 -0.99506,2.21232 0.87244,4.28168 1.55606,1.72427 1.78686,1.75538 2.08258,0.28071 0.18291,-0.91216 -0.20969,-2.31185 -0.87245,-3.11043 z"
     id="path9260" />
  <path
     style="fill:#000000"
     d="m 262.5,287 c -2.37606,-2.62552 -3.1821,-1.81949 -0.875,0.875 0.97252,1.13582 1.97698,1.85635 2.23214,1.60119 C 264.1123,289.22103 263.50159,288.10674 262.5,287 z"
     id="path9258" />
  <path
     style="fill:#000000"
     d="m 222,288.65499 c 0,-0.18976 -0.9,-1.1595 -2,-2.15499 -2.35657,-2.13267 -2.71443,-1.35729 -0.42857,0.92857 1.50129,1.50129 2.42857,1.96956 2.42857,1.22642 z"
     id="path9256" />
  <path
     style="fill:#f2f2f2"
     d="m 135.44971,286.91862 c -0.39895,-0.64551 0.0811,-1.00216 1.19098,-0.88484 3.44194,0.36381 5.35931,-0.0272 5.35931,-1.0928 0,-0.58246 -0.51953,-0.73793 -1.15451,-0.34549 -0.72455,0.4478 -0.88267,0.27369 -0.42459,-0.4675 0.40145,-0.64957 1.25848,-1.11578 1.90451,-1.03603 2.48905,0.30727 3.76757,-0.1325 3.17459,-1.09196 -0.33992,-0.55 -0.0927,-1 0.54939,-1 0.75496,0 0.9391,-0.90973 0.52117,-2.57488 -0.50073,-1.99506 0.0378,-3.35399 2.39159,-6.0348 1.67082,-1.90295 3.03785,-3.92081 3.03785,-4.48413 0,-0.56332 0.41891,-0.76533 0.9309,-0.4489 0.512,0.31644 1.2302,0.0911 1.596,-0.50082 0.43149,-0.69815 1.10464,-0.47505 1.91646,0.63518 0.98687,1.34963 1.42195,1.4353 2.05851,0.40533 0.5335,-0.86322 0.41573,-1.06409 -0.34736,-0.59247 -2.54214,1.57112 -0.96041,-2.20659 2.07986,-4.96742 1.7789,-1.6154 2.4539,-2.00166 1.5,-0.85835 -2.03116,2.43446 -2.49571,5.5826 -0.53437,3.62126 2.02254,-2.02254 2.80075,-1.34084 1.76942,1.55 -0.91812,2.57352 -0.88444,2.62543 0.52475,0.80887 0.82821,-1.06762 1.50583,-2.53012 1.50583,-3.25 0,-0.71988 0.5625,-1.31164 1.25,-1.31503 0.6875,-0.003 2.4875,-0.6517 4,-1.4407 2.72904,-1.4236 3.99179,-0.38593 1.39598,1.14717 -0.7447,0.43983 -1.93518,1.92469 -2.6455,3.29969 -1.27474,2.46757 -1.26495,2.47645 0.75473,0.68486 2.0017,-1.77564 4.08065,-0.84633 2.7875,1.24604 -0.31644,0.512 -0.0485,1.25653 0.59549,1.65451 0.7049,0.43565 0.9037,0.29141 0.49958,-0.36248 -0.36918,-0.59735 0.28564,-1.75631 1.45517,-2.57548 1.16952,-0.81916 1.91286,-2.08745 1.65185,-2.81842 -0.7667,-2.14725 1.15315,-4.82903 3.45705,-4.82903 1.17232,0 1.79398,0.3375 1.38148,0.75 -0.4125,0.4125 -1.2321,0.75 -1.82133,0.75 -0.58924,0 -1.18235,0.75634 -1.31802,1.68076 -0.16704,1.13812 0.24331,1.49273 1.271,1.09837 1.28289,-0.49229 1.33245,-0.23627 0.32033,1.65489 -0.65854,1.2305 -0.93589,2.49873 -0.61633,2.81829 0.93154,0.93155 1.67112,-0.31766 1.99685,-3.37285 0.18877,-1.7705 1.01526,-3.03658 2.19353,-3.36019 4.05311,-1.1132 1.23477,-8.85691 -3.27047,-8.986 -0.6386,-0.0183 -2.32603,-1.41771 -3.74984,-3.10981 -2.67832,-3.183 -2.71251,-4.13692 -0.41867,-11.6826 0.54492,-1.79253 1.57562,-3.84401 2.29046,-4.55885 1.52511,-1.5251 6.47266,-11.72586 6.39351,-13.18201 -0.0299,-0.55 -0.46924,-0.8842 -0.97632,-0.74268 -1.1453,0.31966 -3.10009,-4.58901 -2.32617,-5.84124 0.98857,-1.59954 2.44814,-0.9885 2.44814,1.0249 0,1.06754 0.45,2.2191 1,2.55902 0.55,0.33992 1,0.17447 1,-0.36766 0,-0.54213 0.71793,-1.13119 1.5954,-1.30902 1.36153,-0.27592 1.27325,-0.73197 -0.60218,-3.11096 -1.85718,-2.35582 -2.43931,-2.58818 -3.75803,-1.5 -1.24382,1.02638 -1.64622,1.03275 -1.98322,0.0314 -0.23254,-0.69093 -0.83436,-1.00187 -1.33738,-0.69098 -0.50302,0.31089 -0.91459,-0.1914 -0.91459,-1.11621 0,-1.40178 0.25654,-1.46855 1.54238,-0.4014 2.56329,2.12734 3.88068,-0.34233 1.38661,-2.59943 -2.09908,-1.89964 -2.13928,-1.89258 -4.43776,0.77956 -1.87945,2.18499 -2.53033,2.44251 -3.43088,1.35742 -0.83854,-1.01038 -0.73687,-1.48287 0.41413,-1.92455 0.83903,-0.32197 1.52552,-1.0354 1.52552,-1.5854 0,-0.55 -0.62948,-0.75845 -1.39885,-0.46321 -0.76937,0.29523 -1.70281,0.045 -2.07433,-0.55616 -0.37151,-0.60113 -0.30453,-0.98674 0.14885,-0.85692 0.45338,0.12982 2.33555,-0.0825 4.1826,-0.47187 2.37088,-0.49978 3.19441,-1.13496 2.80093,-2.16034 -0.37294,-0.97187 -0.0779,-1.26844 0.89173,-0.89635 0.79699,0.30583 1.44907,0.0314 1.44907,-0.60995 0,-0.6413 -0.3375,-0.96728 -0.75,-0.7244 -1.2816,0.75461 -5.41332,-1.25029 -4.75886,-2.30923 C 177.17908,193.90122 172.30362,187 170.82929,187 c -0.51333,0 -1.39753,1.33161 -1.96489,2.95914 -1.14878,3.29539 -2.20543,3.74227 -9.21798,3.89848 -3.87981,0.0864 -5.22737,-0.33985 -6.71673,-2.12475 -1.02473,-1.22808 -1.87812,-2.79537 -1.89642,-3.48287 -0.0398,-1.49505 -2.93581,-1.61915 -5.03327,-0.21568 -1.31008,0.87661 -1.27623,1.17511 0.26737,2.35763 3.02706,2.31896 1.20555,4.12093 -4.02753,3.98433 -3.26372,-0.0852 -5.48255,0.4598 -7.1247,1.75 -1.31167,1.03054 -2.7956,1.87372 -3.29762,1.87372 -0.50202,0 -3.16276,2.25 -5.91276,5 -2.75,2.75 -4.73774,5 -4.4172,5 0.32055,0 0.1107,0.88215 -0.46633,1.96033 -0.68706,1.28379 -0.73404,3.36271 -0.13611,6.02388 0.87888,3.91164 -0.39501,11.43292 -1.79138,10.57654 -0.32655,-0.20028 -0.63781,1.05412 -0.69167,2.78755 l -0.0979,3.1517 1.31957,-3.17345 c 0.72576,-1.7454 1.82723,-3.4872 2.4477,-3.87068 0.79905,-0.49384 0.78369,-0.0536 -0.0526,1.5091 -2.26247,4.22746 -0.24194,3.08802 2.96384,-1.6714 2.06623,-3.0676 2.96923,-3.89342 2.50791,-2.29357 -0.98449,3.41425 -0.98064,3.22393 -0.11663,5.76452 0.42357,1.24549 1.20306,1.99695 1.7322,1.66992 0.56118,-0.34682 0.76713,0.48054 0.49423,1.98548 -0.25732,1.41904 -0.0477,2.58008 0.46592,2.58008 0.51358,0 0.93378,0.9 0.93378,2 0,1.1 -0.47656,2 -1.05902,2 -0.58246,0 -0.76872,0.46971 -0.41391,1.0438 0.35481,0.5741 0.15194,1.63804 -0.45081,2.36432 -0.60276,0.72627 -1.14212,4.39945 -1.19857,8.16261 -0.0914,6.09326 -0.25451,6.63443 -1.49017,4.94456 C 125.25331,253.96416 125,253.90694 125,255.20188 c 0,0.87128 0.675,1.84316 1.5,2.15975 1.65832,0.63635 2.08972,4.63837 0.5,4.63837 -0.55,0 -0.98569,0.7875 -0.9682,1.75 0.0303,1.66667 0.0951,1.66667 1.36025,0 1.62823,-2.14494 3.60795,-2.28211 3.60795,-0.25 0,0.825 -0.39752,1.5 -0.88337,1.5 -0.85797,0 -2.44261,3.7394 -2.22478,5.25 0.0595,0.4125 -0.34185,0.75 -0.89185,0.75 -0.55,0 -1,0.88588 -1,1.96862 0,1.45132 0.45985,1.80092 1.75,1.33043 1.66667,-0.60779 1.66667,-0.54302 0,1.36013 -1.90921,2.1801 -2.34368,3.82577 -0.75,2.84082 0.90315,-0.55818 1.18161,0.13796 0.9,2.25 -0.055,0.4125 -0.505,0.6375 -1,0.5 -1.18633,-0.32954 -1.13864,0.0663 0.35,2.90504 0.71649,1.36629 1.95712,2.24507 2.90676,2.05894 0.91122,-0.17859 1.95028,0.1502 2.30902,0.73065 0.35874,0.58045 1.32725,1.05537 2.15225,1.05537 0.825,0 1.19926,-0.48662 0.83168,-1.08138 z"
     id="path9254" />
  <path
     style="fill:#000000"
     d="m 173.5,265 c 0.33992,-0.55 0.81648,-1 1.05902,-1 0.24254,0 0.44098,0.45 0.44098,1 0,0.55 -0.47656,1 -1.05902,1 -0.58246,0 -0.7809,-0.45 -0.44098,-1 z"
     id="path9252" />
  <path
     style="fill:#000000"
     d="m 157.5,261 c 0.33992,-0.55 1.06803,-1 1.61803,-1 0.55,0 0.72189,0.45 0.38197,1 -0.33992,0.55 -1.06803,1 -1.61803,1 -0.55,0 -0.72189,-0.45 -0.38197,-1 z"
     id="path9250" />
  <path
     style="fill:#000000"
     d="m 157,258.05902 c 0,-0.51754 0.44485,-1.21592 0.98855,-1.55194 0.56686,-0.35034 0.7345,0.0511 0.39301,0.94098 C 157.71677,259.18048 157,259.49745 157,258.05902 z"
     id="path9248" />
  <path
     style="fill:#000000"
     d="m 179,212 c 0,-0.55 0.45,-1 1,-1 0.55,0 1,0.45 1,1 0,0.55 -0.45,1 -1,1 -0.55,0 -1,-0.45 -1,-1 z"
     id="path9246" />
  <path
     style="fill:#000000"
     d="m 200,282.6422 c 0,-1.27054 -0.4619,-0.70323 -1.91971,2.3578 -1.12265,2.35727 -1.10183,2.38918 0.36454,0.55887 C 199.30018,284.49125 200,283.17875 200,282.6422 z"
     id="path9244" />
  <path
     style="fill:#000000"
     d="m 250.16065,281.32863 c -1.69966,-1.33019 -3.26196,-2.2858 -3.47178,-2.12358 -0.20981,0.16222 -1.12898,-0.32542 -2.04259,-1.08365 -1.53704,-1.27563 -1.54898,-1.1636 -0.15986,1.5 0.82569,1.58323 1.51092,3.5536 1.52273,4.3786 0.0187,1.30942 0.13931,1.31368 0.94896,0.0335 0.5902,-0.93318 0.53281,-1.94202 -0.15781,-2.77417 -0.59692,-0.71923 -0.84162,-1.55138 -0.54379,-1.84922 0.29783,-0.29783 1.80649,1.11696 3.35257,3.14397 1.63894,2.14877 2.98426,3.16585 3.22646,2.43926 0.22848,-0.68543 -0.97522,-2.33457 -2.67489,-3.66475 z"
     id="path9242" />
  <path
     style="fill:#000000"
     d="m 239.36163,283.5 c -0.31659,-0.825 -0.75246,-1.5 -0.96862,-1.5 -0.21615,0 -0.39301,0.675 -0.39301,1.5 0,0.825 0.43588,1.5 0.96862,1.5 0.53273,0 0.70959,-0.675 0.39301,-1.5 z"
     id="path9240" />
  <path
     style="fill:#000000"
     d="m 227.33541,281.66566 c 0.64052,0.37297 0.26939,-0.41172 -0.82475,-1.74377 -1.09414,-1.33204 -2.04252,-2.54526 -2.1075,-2.69606 -0.065,-0.15079 -0.69593,0.42201 -1.4021,1.2729 -1.0815,1.30312 -1.02513,1.44774 0.3575,0.91717 1.22585,-0.4704 1.66143,-0.0331 1.72039,1.72711 0.0434,1.29635 0.30685,1.79169 0.58541,1.10076 0.27855,-0.69093 1.03053,-0.95107 1.67105,-0.57811 z"
     id="path9238" />
  <path
     style="fill:#000000"
     d="m 257.81805,280.5 c -0.6265,-1.375 -1.54341,-2.5 -2.03758,-2.5 -0.89336,0 -0.34963,1.36144 1.49767,3.75 1.54113,1.99267 1.77289,1.4561 0.53991,-1.25 z"
     id="path9236" />
  <path
     style="fill:#000000"
     d="m 191.5,281 c 0.33992,-0.55 0.16803,-1 -0.38197,-1 -0.55,0 -1.27811,0.45 -1.61803,1 -0.33992,0.55 -0.16803,1 0.38197,1 0.55,0 1.27811,-0.45 1.61803,-1 z"
     id="path9234" />
  <path
     style="fill:#000000"
     d="m 153.12756,279.25 c 1.24387,-1.58606 1.2085,-1.62143 -0.37756,-0.37756 -0.9625,0.75485 -1.75,1.54235 -1.75,1.75 0,0.82304 0.82119,0.29331 2.12756,-1.37244 z"
     id="path9232" />
  <path
     style="fill:#000000"
     d="m 169,274.38519 c 0,-1.14833 -2.87739,-0.1471 -3.38595,1.17819 -0.32996,0.85986 -1.00211,1.31482 -1.49368,1.01101 -0.49157,-0.3038 -1.50724,0.20406 -2.25706,1.12858 -1.17377,1.44725 -1.15477,1.5539 0.13669,0.76711 2.66938,-1.62626 3.99914,-1.34036 4.03914,0.8684 0.0307,1.69776 0.35257,1.4396 1.5,-1.20329 0.80347,-1.85065 1.46086,-3.53815 1.46086,-3.75 z"
     id="path9230" />
  <path
     style="fill:#000000"
     d="m 237.28654,276.4747 c -1.95737,-4.10465 -2.85562,-3.99822 -1.15304,0.13661 0.65421,1.58878 1.10565,3.25964 1.0032,3.71302 -0.10244,0.45338 0.25949,0.54884 0.80429,0.21214 0.61675,-0.38117 0.36978,-1.91395 -0.65445,-4.06177 z"
     id="path9228" />
  <path
     style="fill:#000000"
     d="m 179.85676,277.89031 c -2.11014,-1.33705 -3.07508,-1.0412 -1.64619,0.50473 0.70919,0.76727 1.67497,1.16102 2.14619,0.875 0.47122,-0.28602 0.24622,-0.9069 -0.5,-1.37973 z"
     id="path9226" />
  <path
     style="fill:#000000"
     d="m 210.18333,277.78333 c -0.71756,-0.71756 -1.18333,-0.7766 -1.18333,-0.15 0,1.33478 1.18261,2.51739 1.85,1.85 0.28417,-0.28416 -0.0158,-1.04916 -0.66667,-1.7 z"
     id="path9224" />
  <path
     style="fill:#000000"
     d="m 188,278 c 0,-0.55 -0.19844,-1 -0.44098,-1 -0.24254,0 -0.7191,0.45 -1.05902,1 -0.33992,0.55 -0.14148,1 0.44098,1 0.58246,0 1.05902,-0.45 1.05902,-1 z"
     id="path9222" />
  <path
     style="fill:#000000"
     d="m 208.92971,272.75 c 0.0877,-3.43254 1.80706,-3.57253 3.07029,-0.25 1.12773,2.96614 3.04409,3.38461 2.28975,0.5 -0.28766,-1.1 -0.92053,-2 -1.40638,-2 C 212.39752,271 212,270.325 212,269.5 c 0,-0.825 -0.45,-1.5 -1,-1.5 -0.55,0 -1,-0.75 -1,-1.66667 0,-2.30427 -1.19255,-0.90598 -1.60672,1.88392 -1.21909,8.21184 -1.37187,11.17101 -0.47927,9.28275 0.51998,-1.1 0.97705,-3.2375 1.0157,-4.75 z"
     id="path9220" />
  <path
     style="fill:#000000"
     d="m 157.38156,275.44806 c 0.34149,-0.88992 0.17385,-1.29132 -0.39301,-0.94098 -0.5437,0.33602 -0.98855,1.0344 -0.98855,1.55194 0,1.43843 0.71677,1.12146 1.38156,-0.61096 z"
     id="path9218" />
  <path
     style="fill:#000000"
     d="m 239.6,274.4 c -0.35589,-0.92744 -0.87208,-1.46126 -1.14708,-1.18626 -0.275,0.275 -0.20881,1.25882 0.14708,2.18626 0.35589,0.92744 0.87208,1.46126 1.14708,1.18626 0.275,-0.275 0.20881,-1.25882 -0.14708,-2.18626 z"
     id="path9216" />
  <path
     style="fill:#000000"
     d="m 171.96752,274.06069 c 0.58773,-1.09818 0.65259,-2.17744 0.14953,-2.48835 -0.48859,-0.30197 -1.10241,0.57072 -1.36403,1.93931 -0.57142,2.9892 -0.18494,3.16391 1.2145,0.54904 z"
     id="path9214" />
  <path
     style="fill:#000000"
     d="m 181.53895,273.95697 c 1.51896,-1.67844 1.56042,-1.93233 0.2323,-1.42269 -0.88914,0.3412 -1.86228,1.26056 -2.16255,2.04304 -0.74711,1.94695 -0.24796,1.78653 1.93025,-0.62035 z"
     id="path9212" />
  <path
     style="fill:#000000"
     d="m 227.18333,272.78333 c -0.71756,-0.71756 -1.18333,-0.7766 -1.18333,-0.15 0,1.33478 1.18261,2.51739 1.85,1.85 0.28417,-0.28416 -0.0158,-1.04916 -0.66667,-1.7 z"
     id="path9210" />
  <path
     style="fill:#000000"
     d="m 257.97994,273.47583 c -0.69572,-0.83829 -1.52528,-1.26382 -1.84348,-0.94562 -0.3182,0.31819 0.0834,0.99718 0.8925,1.50885 2.11697,1.33881 2.39358,1.17499 0.95098,-0.56323 z"
     id="path9208" />
  <path
     style="fill:#000000"
     d="m 177,269.31854 c 0,-2.01158 -1.64646,-0.77848 -2.30062,1.72303 -0.44504,1.70185 -0.28771,1.86166 0.87929,0.89314 C 176.3604,271.28593 177,270.10865 177,269.31854 z"
     id="path9206" />
  <path
     style="fill:#000000"
     d="m 195,271.55902 c 0,-0.24254 -0.45,-0.7191 -1,-1.05902 -0.55,-0.33992 -1,-0.14148 -1,0.44098 0,0.58246 0.45,1.05902 1,1.05902 0.55,0 1,-0.19844 1,-0.44098 z"
     id="path9204" />
  <path
     style="fill:#000000"
     d="m 238.5,270 c -0.33992,-0.55 -1.06803,-1 -1.61803,-1 -0.55,0 -0.72189,0.45 -0.38197,1 0.33992,0.55 1.06803,1 1.61803,1 0.55,0 0.72189,-0.45 0.38197,-1 z"
     id="path9202" />
  <path
     style="fill:#000000"
     d="m 189,269 c 0,-0.55 -0.19844,-1 -0.44098,-1 -0.24254,0 -0.7191,0.45 -1.05902,1 -0.33992,0.55 -0.14148,1 0.44098,1 0.58246,0 1.05902,-0.45 1.05902,-1 z"
     id="path9200" />
  <path
     style="fill:#000000"
     d="m 227.72757,268.03571 c -0.6389,-0.84464 -1.23182,-1.66606 -1.3176,-1.82537 -0.0858,-0.15932 -0.37077,0.53175 -0.63331,1.53571 -0.3312,1.26649 0.0722,1.82538 1.3176,1.82538 1.45167,0 1.57279,-0.2937 0.63331,-1.53572 z"
     id="path9198" />
  <path
     style="fill:#000000"
     d="m 166.38156,267.44806 c 0.34149,-0.88992 0.17385,-1.29132 -0.39301,-0.94098 -0.5437,0.33602 -0.98855,1.0344 -0.98855,1.55194 0,1.43843 0.71677,1.12146 1.38156,-0.61096 z"
     id="path9196" />
  <path
     style="fill:#000000"
     d="m 235.5,267 c -0.33992,-0.55 -1.37898,-0.99311 -2.30902,-0.98469 -1.45727,0.0132 -1.48367,0.14929 -0.19098,0.98469 1.95837,1.2656 3.28218,1.2656 2.5,0 z"
     id="path9194" />
  <path
     style="fill:#000000"
     d="m 190.5,266 c 0.33992,-0.55 0.14148,-1 -0.44098,-1 -0.58246,0 -1.05902,0.45 -1.05902,1 0,0.55 0.19844,1 0.44098,1 0.24254,0 0.7191,-0.45 1.05902,-1 z"
     id="path9192" />
  <path
     style="fill:#000000"
     d="m 224.5,264 c -0.33992,-0.55 -1.06803,-1 -1.61803,-1 -0.55,0 -0.72189,0.45 -0.38197,1 0.33992,0.55 1.06803,1 1.61803,1 0.55,0 0.72189,-0.45 0.38197,-1 z"
     id="path9190" />
  <path
     style="fill:#000000"
     d="m 194.36163,262.5 c 0.31658,-0.825 0.13972,-1.5 -0.39301,-1.5 -0.53274,0 -0.96862,0.675 -0.96862,1.5 0,0.825 0.17686,1.5 0.39301,1.5 0.21616,0 0.65203,-0.675 0.96862,-1.5 z"
     id="path9188" />
  <path
     style="fill:#000000"
     d="m 192,262 c 0,-0.55 -0.45,-1 -1,-1 -0.55,0 -1,0.45 -1,1 0,0.55 0.45,1 1,1 0.55,0 1,-0.45 1,-1 z"
     id="path9186" />
  <path
     style="fill:#000000"
     d="M 190.92971,239.69098 C 190.86195,237.57862 190.82859,237.57176 190,239.5 c -1.18278,2.75248 -1.18278,3.731 0,3 0.55,-0.33992 0.96837,-1.60398 0.92971,-2.80902 z"
     id="path9184" />
  <path
     style="fill:#000000"
     d="m 120.51008,202.98369 c 0.34546,-0.55897 1.00127,-0.78569 1.45735,-0.50382 C 122.77924,202.9816 129,197.77941 129,196.59879 129,196.26946 128.0044,196 126.78756,196 c -1.21683,0 -3.24289,-1.2375 -4.50233,-2.75 l -2.28991,-2.75 1.01028,2.83598 c 0.77755,2.18269 0.7205,2.72979 -0.24766,2.375 -0.69187,-0.25354 -1.14544,-0.96723 -1.00794,-1.58598 0.1375,-0.61875 -0.14752,-1.125 -0.63337,-1.125 -1.22203,0 -2.1286,3.87457 -1.06096,4.53441 0.48792,0.30155 0.47477,1.57042 -0.03,2.89817 -1.17141,3.08104 0.86475,5.17183 2.48445,2.55111 z"
     id="path9182" />
  <path
     style="fill:#ffffff"
     d="m 134.35145,191.23532 c 1.30709,-2.07057 3.00024,-4.22672 3.76254,-4.79143 3.55629,-2.63448 12.30981,-4.28831 26.02891,-4.91773 7.78914,-0.35736 8.71002,-0.18161 13.55009,2.58599 5.11962,2.92744 5.20843,2.94056 6.28519,0.92863 0.6007,-1.12243 0.73885,-2.04767 0.307,-2.05609 -0.43185,-0.008 -0.24643,-0.3578 0.41203,-0.7764 0.65847,-0.41859 0.86919,-1.29184 0.46827,-1.94054 -0.90189,-1.45929 -11.73526,-4.37007 -13.60056,-3.65429 -0.74944,0.28759 -1.65969,0.0422 -2.02279,-0.54529 C 169.17904,175.48068 167.81008,175 166.5,175 c -1.31008,0 -2.67904,-0.48068 -3.04213,-1.06817 -0.3631,-0.5875 -1.2645,-0.83627 -2.00312,-0.55284 -0.73863,0.28344 -4.11873,-0.1891 -7.51134,-1.05007 -5.96454,-1.51369 -6.32165,-1.49282 -10.8059,0.6316 -4.87241,2.30831 -9.76578,7.71022 -10.83177,11.95744 -0.34718,1.38327 -1.44087,3.38409 -2.43043,4.44626 -1.77246,1.9025 -1.85179,1.89109 -5.33726,-0.7674 -3.40238,-2.59513 -4.41286,-2.52387 -2.6911,0.18978 1.12243,1.76905 7.37492,6.1043 8.89051,6.16436 0.6806,0.027 2.30689,-1.64507 3.61399,-3.71564 z"
     id="path9180" />
  <path
     style="fill:#000000"
     d="m 182,191.90728 c 0,-1.33276 -6.06846,-7.17215 -6.74766,-6.49295 -0.88467,0.88466 4.7328,8.71289 5.78545,8.06232 C 181.567,193.14957 182,192.44336 182,191.90728 z"
     id="path9178" />
  <path
     style="fill:#000000"
     d="m 162,186 c 0,-0.55 -0.47656,-1 -1.05902,-1 -0.58246,0 -0.7809,0.45 -0.44098,1 0.33992,0.55 0.81648,1 1.05902,1 0.24254,0 0.44098,-0.45 0.44098,-1 z"
     id="path9176" />
  <path
     style="fill:#000000"
     d="m 171,183 c -1.97012,-1.27319 -4.28687,-1.27319 -3.5,0 0.33992,0.55 1.60398,0.99311 2.80902,0.98469 1.78123,-0.0125 1.91046,-0.1966 0.69098,-0.98469 z"
     id="path9174" />
  <path
     style="fill:#000000"
     d="m 303.38302,113.07126 c -0.95153,-1.61081 -2.61747,-3.16081 -3.70209,-3.44445 -1.48853,-0.38926 -1.13951,0.32103 1.42352,2.897 4.17392,4.19499 4.47611,4.26759 2.27857,0.54745 z"
     id="path9172" />
  <path
     style="fill:#000000"
     d="m 111.54112,109.93347 c 1.07627,-1.74144 -0.14952,-2.11024 -1.52106,-0.45764 -0.78875,0.95039 -0.86462,1.52417 -0.20152,1.52417 0.58488,0 1.36004,-0.47994 1.72258,-1.06653 z"
     id="path9170" />
  <path
     style="fill:#000000"
     d="m 119,109.5 c 1.59557,-1.92255 -0.0323,-1.94278 -2.55887,-0.0318 -1.63076,1.23344 -1.68089,1.47328 -0.31357,1.5 0.89515,0.0175 2.18775,-0.6432 2.87244,-1.4682 z"
     id="path9168" />
  <path
     style="fill:#000000"
     d="m 116.03297,100.58934 c 1.38686,-1.806241 1.34761,-1.836288 -0.71829,-0.54984 -1.20192,0.74844 -1.94436,1.75067 -1.64986,2.22718 0.2945,0.47651 0.61773,0.72394 0.71828,0.54985 0.10056,-0.17409 0.843,-1.17632 1.64987,-2.22719 z"
     id="path9166" />
  <path
     style="fill:#000000"
     d="m 123.5,97 c 1.92824,-0.828591 1.92138,-0.861951 -0.19098,-0.929715 C 122.10398,96.031628 120.83992,96.45 120.5,97 c -0.731,1.182783 0.24752,1.182783 3,0 z"
     id="path9164" />
  <path
     style="fill:#000000"
     d="m 288,91.606989 c 0,-0.216156 -0.69837,-0.661002 -1.55194,-0.988546 -0.88992,-0.341496 -1.29132,-0.173849 -0.94098,0.393011 C 286.09434,91.961658 288,92.416902 288,91.606989 z"
     id="path9162" />
  <path
     style="fill:#000000"
     d="M 162.10055,80.877554 C 160.94525,79.637482 160,79.009796 160,79.482698 c 0,1.157697 3.20646,4.644178 3.76109,4.089548 0.24201,-0.242008 -0.50524,-1.45462 -1.66054,-2.694692 z"
     id="path9160" />
  <path
     style="fill:#000000"
     d="m 203.64797,79.897895 c 0.14368,-3.515749 -1.0788,-2.718026 -2.03123,1.325465 -0.46671,1.981417 -0.2945,2.590215 0.63212,2.234639 0.70047,-0.268798 1.33007,-1.870844 1.39911,-3.560104 z"
     id="path9158" />
  <path
     style="fill:#000000"
     d="m 284,82 c 0,-0.55 -0.47656,-1 -1.05902,-1 -0.58246,0 -0.7809,0.45 -0.44098,1 0.33992,0.55 0.81648,1 1.05902,1 C 283.80156,83 284,82.55 284,82 z"
     id="path9156" />
  <path
     style="fill:#000000"
     d="m 209.96937,75.5 c 0,-2.30174 -0.22562,-2.65087 -0.96937,-1.5 -0.53316,0.825 -0.96937,2.85 -0.96937,4.5 0,2.30174 0.22562,2.65087 0.96937,1.5 0.53316,-0.825 0.96937,-2.85 0.96937,-4.5 z"
     id="path9154" />
  <path
     style="fill:#000000"
     d="m 242.38156,79.448062 c 0.34149,-0.889925 0.17385,-1.291322 -0.39301,-0.940983 C 241.44485,78.843104 241,79.541476 241,80.059017 c 0,1.438432 0.71677,1.121462 1.38156,-0.610955 z"
     id="path9152" />
  <path
     style="fill:#000000"
     d="m 265.23897,78.530262 c 0.25966,-1.358355 0.0871,-2.231798 -0.38343,-1.940983 C 264.02698,77.101359 263.60967,81 264.38342,81 c 0.21089,0 0.59588,-1.111382 0.85555,-2.469738 z"
     id="path9150" />
  <path
     style="fill:#000000"
     d="m 247.36446,72.25 c 0.36255,-2.3375 0.31636,-4.250113 -0.10264,-4.25025 -0.419,-1.38e-4 -0.80455,-2.007464 -0.85678,-4.460726 C 246.31456,59.289079 244.77476,56 242.87561,56 c -0.48372,0 0.0214,1.680836 1.12245,3.735191 2.31937,4.32745 2.49286,5.869044 0.75194,6.681476 -0.98021,0.457433 -0.98523,0.707562 -0.0232,1.158922 0.85831,0.402715 1.07592,2.430031 0.72451,6.75 -0.54861,6.744384 0.7665,5.317634 1.91318,-2.075589 z"
     id="path9148" />
  <path
     style="fill:#000000"
     d="M 180.68933,73.25 C 180.4378,72.2875 180.232,73.075 180.232,75 c 0,1.925 0.2058,2.7125 0.45733,1.75 0.25152,-0.9625 0.25152,-2.5375 0,-3.5 z"
     id="path9146" />
  <path
     style="fill:#000000"
     d="m 224.07029,75.75 c 0.0667,-2.134942 0.11139,-2.147726 0.87414,-0.25 0.46854,1.165748 0.62706,-0.919882 0.38001,-5 -0.23311,-3.85 -0.44908,-8.0125 -0.47993,-9.25 -0.0695,-2.787939 -2.42178,-2.97451 -3.13462,-0.24862 -0.33295,1.273188 -0.13163,1.759269 0.55331,1.335955 0.69113,-0.427145 0.83678,-0.04027 0.40674,1.080408 -0.36847,0.960207 -0.68589,2.271528 -0.70538,2.914044 -0.0195,0.642517 -0.72557,0.04321 -1.56907,-1.331787 -0.84349,-1.375 -1.27755,-1.675696 -0.96456,-0.668213 0.31299,1.007484 0.58338,3.257484 0.60087,5 0.0301,3.002212 0.10873,3.066506 1.5,1.227083 1.39238,-1.84089 1.4682,-1.780644 1.4682,1.166667 0,1.709288 -0.52967,3.284354 -1.17705,3.500147 -0.64738,0.215792 -0.84582,0.928292 -0.44098,1.583333 1.19127,1.927515 2.61251,1.36764 2.68832,-1.059017 z"
     id="path9144" />
  <path
     style="fill:#000000"
     d="m 253.13124,70.653321 c -0.76943,-2.770172 -0.97398,-2.917595 -1.68345,-1.213291 -0.47675,1.145247 -0.39665,2.077017 0.19552,2.274408 0.55173,0.183908 0.85094,1.785895 0.66491,3.55997 -0.30986,2.955135 -0.25282,3.028829 0.68032,0.878913 0.63061,-1.452897 0.68496,-3.547689 0.1427,-5.5 z"
     id="path9142" />
  <path
     style="fill:#000000"
     d="m 285,70.642204 c 0,-2.534925 -0.4307,-1.982356 -1.8378,2.357796 -1.03112,3.180433 -0.99902,3.322765 0.35154,1.55887 C 284.33118,73.491249 285,71.728749 285,70.642204 z"
     id="path9140" />
  <path
     style="fill:#000000"
     d="m 265.45729,74.069098 c 0.31644,-0.511996 0.19299,-1.167201 -0.27431,-1.456011 -0.46731,-0.28881 -0.84965,0.130095 -0.84965,0.930902 0,1.686167 0.31534,1.833491 1.12396,0.525109 z"
     id="path9138" />
  <path
     style="fill:#000000"
     d="m 198.68311,70.8125 c -0.31922,-0.797733 -0.55618,-0.560776 -0.60416,0.604167 -0.0434,1.054166 0.19292,1.644791 0.52522,1.3125 0.33229,-0.332292 0.36781,-1.194792 0.0789,-1.916667 z"
     id="path9136" />
  <path
     style="fill:#000000"
     d="m 234.4772,67.789619 c -0.23093,-4.663018 -0.11197,-5.010622 1.13238,-3.30887 2.10946,2.884854 1.69625,0.58353 -0.84244,-4.691898 -1.24693,-2.591132 -2.71714,-4.728577 -3.26714,-4.749879 -0.57511,-0.02227 -1,2.935368 -1,6.961024 0,3.849865 -0.3375,6.99981 -0.75,6.999879 -0.4125,6.9e-5 -0.75,-1.588998 -0.75,-3.53126 0,-2.260383 -0.5554,-3.74451 -1.54313,-4.123538 -1.90159,-0.729711 -3.33734,0.492731 -1.73894,1.480595 0.63801,0.39431 1.38133,1.937419 1.65183,3.429131 0.72542,4.000472 1.49667,4.808533 4.13313,4.33045 1.74589,-0.316589 2.2304,-0.0538 1.82908,0.992037 C 233.0317,72.359781 233.2246,73 233.76063,73 c 0.54112,0 0.85984,-2.317455 0.71657,-5.210381 z"
     id="path9134" />
  <path
     style="fill:#000000"
     d="m 270.23897,70.530262 c 0.25966,-1.358355 0.0871,-2.231798 -0.38343,-1.940983 C 269.38499,68.880094 269,68.191476 269,67.059017 269,65.926558 268.58982,65 268.08848,65 c -0.95144,0 -0.90335,0.694551 0.36355,5.25 0.94036,3.381318 1.18674,3.419961 1.78694,0.280262 z"
     id="path9132" />
  <path
     style="fill:#000000"
     d="m 193,71 c 0,-0.55 -0.42344,-1 -0.94098,-1 -0.51754,0 -1.2191,0.45 -1.55902,1 -0.33992,0.55 0.0835,1 0.94098,1 C 192.29844,72 193,71.55 193,71 z"
     id="path9130" />
  <path
     style="fill:#000000"
     d="m 282.9144,67.5 c 0.0302,-0.55 -0.38124,-0.325 -0.9144,0.5 -0.53316,0.825 -0.94464,2.175 -0.9144,3 0.058,1.583849 1.72467,-1.605777 1.8288,-3.5 z"
     id="path9128" />
  <path
     style="fill:#000000"
     d="m 165,70.559017 c 0,-0.242541 -0.45,-0.719098 -1,-1.059017 -0.55,-0.339919 -1,-0.141476 -1,0.440983 C 163,70.523442 163.45,71 164,71 c 0.55,0 1,-0.198442 1,-0.440983 z"
     id="path9126" />
  <path
     style="fill:#000000"
     d="m 216.66228,65.75 c -0.27741,-0.6875 -0.50439,-0.125 -0.50439,1.25 0,1.375 0.22698,1.9375 0.50439,1.25 0.27741,-0.6875 0.27741,-1.8125 0,-2.5 z"
     id="path9124" />
  <path
     style="fill:#000000"
     d="m 187.82517,62.905565 c -0.0981,-2.502423 -0.46139,-3.506933 -0.9754,-2.696722 -1.17847,1.857538 -1.05908,8.03855 0.14094,7.296896 0.5449,-0.336763 0.9204,-2.406841 0.83446,-4.600174 z"
     id="path9122" />
  <path
     style="fill:#000000"
     d="M 210.99698,61.278756 C 210.01629,59.741264 209.93769,59.839091 210.41754,62 c 0.30533,1.375 0.62258,3.175 0.70499,4 0.0824,0.825 0.34315,0.50044 0.57943,-0.721244 0.23629,-1.221684 -0.081,-3.021684 -0.70498,-4 z"
     id="path9120" />
  <path
     style="fill:#000000"
     d="m 253.14841,64.216136 c -0.63338,-0.211126 -1.41912,-2.056874 -1.7461,-4.101664 -0.32697,-2.044789 -1.49314,-4.81955 -2.59149,-6.166135 -1.2421,-1.522825 -1.79205,-1.806059 -1.45483,-0.749265 0.39648,1.242527 0.11644,1.535709 -1.04219,1.091102 -1.14868,-0.440791 -0.80967,0.741883 1.23286,4.300927 3.34997,5.837213 5.78995,8.550121 6.35334,7.06401 0.22,-0.580311 -0.11822,-1.22785 -0.75159,-1.438975 z"
     id="path9118" />
  <path
     style="fill:#000000"
     d="m 263.83636,62.808836 c 0.0903,-2.30514 0.71356,-4.530672 1.38497,-4.945627 0.67141,-0.414955 0.92622,-1.048992 0.56624,-1.408972 -1.22176,-1.221761 -2.7875,0.652282 -2.80288,3.35478 -0.0106,1.857186 -0.2776,2.277208 -0.86181,1.355573 -0.46557,-0.734476 -1.24618,-1.409476 -1.73468,-1.5 -0.48851,-0.09052 -0.79179,-0.453814 -0.67396,-0.80731 0.11783,-0.353496 -0.67029,-0.87403 -1.75138,-1.156741 -1.08109,-0.282712 -1.70885,-0.09857 -1.39503,0.409216 0.31383,0.50778 0.78793,2.121781 1.05357,3.586668 0.70352,3.879709 1.6284,4.942227 2.39635,2.752973 0.6411,-1.827628 0.73839,-1.812744 2.06805,0.316376 C 262.85321,65.994598 263.52408,67 263.57661,67 c 0.0525,0 0.16942,-1.886024 0.25975,-4.191164 z"
     id="path9116" />
  <path
     style="fill:#000000"
     d="m 271.52191,65.25 c -0.38063,-0.9625 -0.94569,-3.261997 -1.25568,-5.109994 -0.44827,-2.672387 -0.74987,-3.027176 -1.47375,-1.733677 C 267.7849,60.206771 269.7733,67 271.30788,67 c 0.49835,0 0.59467,-0.7875 0.21403,-1.75 z"
     id="path9114" />
  <path
     style="fill:#000000"
     d="m 241,64.625 c 0,-4.155587 -1.41638,-7.493686 -3.60221,-8.489617 -2.98558,-1.360322 -3.0188,-0.467117 -0.19852,5.337866 C 239.37227,65.94594 241,67.295734 241,64.625 z"
     id="path9112" />
  <path
     style="fill:#000000"
     d="m 165,64.067388 c 0,-0.512937 -0.87108,-1.209081 -1.93572,-1.546988 -1.06465,-0.337906 -2.13745,-1.380731 -2.384,-2.317388 -0.34593,-1.314192 -0.47476,-1.224197 -0.56428,0.394174 -0.0698,1.261971 0.78007,2.529345 2.134,3.182319 2.8832,1.390514 2.75,1.37657 2.75,0.287883 z"
     id="path9110" />
  <path
     style="fill:#000000"
     d="M 197.69815,59.981481 C 197.30533,56.053307 196,53.152968 196,56.208333 196,58.490584 197.18438,64 197.675,64 c 0.23375,0 0.24417,-1.808333 0.0231,-4.018519 z"
     id="path9108" />
  <path
     style="fill:#000000"
     d="m 208.12409,61.733333 c -0.98762,-0.980267 -1.10248,-0.865403 -0.5598,0.559795 0.37553,0.986221 0.93469,1.541221 1.24258,1.233333 0.30789,-0.307887 6.4e-4,-1.114794 -0.68278,-1.793128 z"
     id="path9106" />
  <path
     style="fill:#000000"
     d="m 216.68311,60.8125 c -0.31922,-0.797733 -0.55618,-0.560776 -0.60416,0.604167 -0.0434,1.054166 0.19292,1.644791 0.52522,1.3125 0.33229,-0.332292 0.36781,-1.194792 0.0789,-1.916667 z"
     id="path9104" />
  <path
     style="fill:#000000"
     d="m 253.96752,55.939312 c -1.35548,-2.532744 -1.74789,-2.449159 -1.45861,0.310688 0.30892,2.947142 0.32469,2.970877 1.49379,2.248329 0.66681,-0.412106 0.65502,-1.26937 -0.0352,-2.559017 z"
     id="path9102" />
  <path
     style="fill:#000000"
     d="m 259.42997,56.113307 c 0.30141,-0.487681 -0.0866,-1.413399 -0.86231,-2.057151 -1.15234,-0.956361 -1.31191,-0.79417 -0.87235,0.886693 0.59399,2.27144 0.91878,2.490588 1.73466,1.170458 z"
     id="path9100" />
  <path
     style="fill:#000000"
     d="m 240.5,55 c -0.33992,-0.55 -1.15398,-0.993109 -1.80902,-0.984687 C 237.97537,54.024514 238.09871,54.41754 239,55 c 1.92112,1.241525 2.2673,1.241525 1.5,0 z"
     id="path9098" />
  <path
     style="fill:#000000"
     d="m 278,52.5 c -0.70675,-0.851583 -1.51,-1.323332 -1.785,-1.048332 -0.275,0.275 0.0783,1.196749 0.785,2.048332 0.70675,0.851583 1.51,1.323332 1.785,1.048332 C 279.06,54.273332 278.7067,53.351583 278,52.5 z"
     id="path9096" />
  <path
     style="fill:#000000"
     d="M 282.34217,53.200445 C 281.93861,51.657231 278,48.215962 278,49.406575 c 0,0.388272 4.29747,5.533883 4.65638,5.575355 0.086,0.0099 -0.0554,-0.79173 -0.31421,-1.781485 z"
     id="path9094" />
  <path
     style="fill:#000000"
     d="m 234,52.622445 c 0,-0.207656 -0.7875,-0.995156 -1.75,-1.75 C 230.66394,49.628574 230.62857,49.663944 231.87244,51.25 233.17881,52.915748 234,53.445479 234,52.622445 z"
     id="path9092" />
  <path
     style="fill:#000000"
     d="m 249.34508,50.456872 c -0.32569,-0.848721 -0.80663,-1.32866 -1.06875,-1.066531 -0.26213,0.262128 -0.17998,0.956536 0.18255,1.543128 0.98605,1.595461 1.56238,1.28551 0.8862,-0.476597 z"
     id="path9090" />
  <path
     style="fill:#000000"
     d="m 117.30011,356.75 c -7.11586,-8.63308 -9.76947,-12.61397 -8.95273,-13.43071 0.26727,-0.26728 1.38595,0.41404 2.48595,1.51404 1.1,1.1 1.71304,2.28697 1.3623,2.63771 -0.35074,0.35074 -0.18589,0.95074 0.36633,1.33333 0.55222,0.3826 2.77389,3.17063 4.93704,6.19563 2.16315,3.025 5.07331,6.51195 6.467,7.74878 1.3937,1.23683 1.99405,2.24933 1.33411,2.25 -0.65994,6.7e-4 -4.25994,-3.71128 -8,-8.24878 z"
     id="path9088" />
  <path
     style="fill:#000000"
     d="m 234,361.60699 c 0,-0.21616 0.69837,-0.661 1.55194,-0.98855 0.88992,-0.34149 1.29132,-0.17385 0.94098,0.39301 C 235.90566,361.96166 234,362.4169 234,361.60699 z"
     id="path9086" />
  <path
     style="fill:#000000"
     d="m 285.5,354 c -0.33992,-0.55 -0.14148,-1 0.44098,-1 0.58246,0 1.05902,0.45 1.05902,1 0,0.55 -0.19844,1 -0.44098,1 -0.24254,0 -0.7191,-0.45 -1.05902,-1 z"
     id="path9084" />
  <path
     style="fill:#000000"
     d="m 262.5,349 c 0.33992,-0.55 0.81648,-1 1.05902,-1 0.24254,0 0.44098,0.45 0.44098,1 0,0.55 -0.47656,1 -1.05902,1 -0.58246,0 -0.7809,-0.45 -0.44098,-1 z"
     id="path9082" />
  <path
     style="fill:#000000"
     d="m 289.14589,337.75 c -1.33587,-2.79331 -2.10649,-6.64925 -2.24835,-11.25 -0.20732,-6.72378 1.4068,-15.41929 2.891,-15.57431 0.3913,-0.0409 1.61146,-0.24653 2.71146,-0.45703 1.93695,-0.37065 1.99097,0.0809 1.71355,14.32431 -0.15755,8.08887 -0.48093,15.26953 -0.71862,15.95703 -0.79994,2.31376 -2.30395,1.27628 -4.34904,-3 z"
     id="path9080" />
  <path
     style="fill:#000000"
     d="M 156.04584,329.08565 C 155.27186,327.63946 155.25664,327 155.9962,327 c 1.21231,0 2.53262,2.80451 1.70836,3.62877 -0.29839,0.29839 -1.04481,-0.39602 -1.65872,-1.54312 z"
     id="path9078" />
  <path
     style="fill:#000000"
     d="m 282.63837,310.5 c 0.31659,-0.825 0.97746,-1.5 1.46862,-1.5 0.49115,0 0.89301,-0.55777 0.89301,-1.23949 0,-2.49135 3.53533,-9.75312 4.75,-9.75676 0.6875,-0.002 1.25,-0.52875 1.25,-1.17042 0,-0.64166 0.29724,-0.86942 0.66054,-0.50613 0.36329,0.3633 -0.0351,1.4508 -0.88525,2.41667 -0.85019,0.96587 -2.71633,4.34363 -4.14698,7.50613 -1.43066,3.1625 -3.04318,5.75 -3.58337,5.75 -0.54019,0 -0.72315,-0.675 -0.40657,-1.5 z"
     id="path9076" />
  <path
     style="fill:#000000"
     d="m 290.87812,308.18793 c 0.75796,-0.53038 1.06231,-1.4753 0.67634,-2.09982 -0.38598,-0.62452 0.0824,-3.1888 1.0408,-5.69838 1.48755,-3.89508 1.53492,-4.69434 0.32366,-5.461 -0.94802,-0.60005 -1.01449,-0.90319 -0.2003,-0.91342 0.67023,-0.008 0.95959,-0.69031 0.64301,-1.51531 -0.31659,-0.825 -0.0775,-1.5 0.53138,-1.5 1.67522,0 1.43411,10.70973 -0.2634,11.70031 -0.75372,0.43983 -1.31622,1.87915 -1.25,3.19848 0.068,1.35552 -0.53198,2.58465 -1.37961,2.82613 -1.2317,0.3509 -1.2535,0.25485 -0.12188,-0.53699 z"
     id="path9074" />
  <path
     style="fill:#000000"
     d="m 290.45315,291.5 c 0.40398,-1.65 0.88962,-3.77803 1.07921,-4.72895 0.42075,-2.11041 2.41222,-5.66467 2.3931,-4.27105 -0.008,0.55 -0.57206,3.1157 -1.25447,5.70155 -1.35197,5.12297 -3.41618,8.19296 -2.21784,3.29845 z"
     id="path9072" />
  <path
     style="fill:#000000"
     d="m 195,280 c 0,-0.55 0.47656,-1 1.05902,-1 0.58246,0 0.7809,0.45 0.44098,1 -0.33992,0.55 -0.81648,1 -1.05902,1 C 195.19844,281 195,280.55 195,280 z"
     id="path9070" />
  <path
     style="fill:#000000"
     d="M 301.08029,272 C 302.5381,268.93897 303,268.37166 303,269.6422 c 0,0.53655 -0.69982,1.84905 -1.55517,2.91667 -1.46637,1.83031 -1.48719,1.7984 -0.36454,-0.55887 z"
     id="path9068" />
  <path
     style="fill:#000000"
     d="m 199.71433,268.98442 c 0.28989,-1.10857 0.99924,-2.3074 1.57632,-2.66405 0.65978,-0.40777 0.80057,-4.6e-4 0.37929,1.09737 C 201.30147,268.37795 201,269.57677 201,270.08179 201,270.5868 200.59213,271 200.09362,271 c -0.49851,0 -0.66919,-0.90701 -0.37929,-2.01558 z"
     id="path9066" />
  <path
     style="fill:#000000"
     d="m 217.35,267.95 c 0.27946,-1.53703 2.02669,-1.37664 2.45113,0.225 0.27715,1.04582 0.14989,1.03778 -0.60395,-0.0382 -0.67331,-0.961 -1.11617,-1.02738 -1.50113,-0.225 -0.35312,0.73603 -0.47539,0.74951 -0.34605,0.0381 z"
     id="path9064" />
  <path
     style="fill:#000000"
     d="M 214.66667,267.33333 C 214.3,266.96667 214,266.20167 214,265.63333 c 0,-0.6266 0.46577,-0.56756 1.18333,0.15 0.65084,0.65084 0.95084,1.41584 0.66667,1.7 -0.28417,0.28417 -0.81667,0.21667 -1.18333,-0.15 z"
     id="path9062" />
  <path
     style="fill:#000000"
     d="m 303.07895,263.41667 c 0.048,-1.16495 0.28494,-1.4019 0.60416,-0.60417 0.28887,0.72187 0.25335,1.58438 -0.0789,1.91667 -0.33229,0.33229 -0.56864,-0.25834 -0.52522,-1.3125 z"
     id="path9060" />
  <path
     style="fill:#000000"
     d="m 304.07895,259.41667 c 0.048,-1.16495 0.28494,-1.4019 0.60416,-0.60417 0.28887,0.72187 0.25335,1.58438 -0.0789,1.91667 -0.33229,0.33229 -0.56864,-0.25834 -0.52522,-1.3125 z"
     id="path9058" />
  <path
     style="fill:#000000"
     d="m 305.15789,252 c 0,-1.375 0.22698,-1.9375 0.50439,-1.25 0.27741,0.6875 0.27741,1.8125 0,2.5 -0.27741,0.6875 -0.50439,0.125 -0.50439,-1.25 z"
     id="path9056" />
  <path
     style="fill:#000000"
     d="M 297,247.54705 C 297,245.47988 299.16261,241 300.16052,241 c 1.11901,0 1.06155,0.74388 -0.36141,4.679 C 298.5663,249.08828 297,250.13359 297,247.54705 z"
     id="path9054" />
  <path
     style="fill:#000000"
     d="M 304.88278,247.81722 C 304.67225,247.09275 304.5,243.575 304.5,240 c 0,-4.66667 0.35256,-6.42949 1.25,-6.25 0.6875,0.1375 1.25,-0.2 1.25,-0.75 0,-0.55 -0.42622,-1 -0.94715,-1 -0.52435,0 -0.86113,-3.12475 -0.75445,-7 0.10599,-3.85 0.53221,-7 0.94715,-7 0.41495,0 0.81458,-1.4625 0.88806,-3.25 0.10436,-2.53843 0.3057,-2.15528 0.91961,1.75 0.84104,5.35014 -0.75797,30.45519 -2.02653,31.81722 -0.41862,0.44947 -0.93338,0.22447 -1.14391,-0.5 z"
     id="path9052" />
  <path
     style="fill:#000000"
     d="m 300.15789,238 c 0,-1.375 0.22698,-1.9375 0.50439,-1.25 0.27741,0.6875 0.27741,1.8125 0,2.5 -0.27741,0.6875 -0.50439,0.125 -0.50439,-1.25 z"
     id="path9050" />
  <path
     style="fill:#000000"
     d="m 67.157895,221 c 0,-1.375 0.226973,-1.9375 0.504386,-1.25 0.277412,0.6875 0.277412,1.8125 0,2.5 -0.277413,0.6875 -0.504386,0.125 -0.504386,-1.25 z"
     id="path9048" />
  <path
     style="fill:#000000"
     d="M 65.75,217.4236 C 65.3375,217.00729 65,213.07878 65,208.69358 c 0.229947,-4.18513 2.850983,-8.06633 3,-15.83456 0,-1.50754 0.375723,-2.9732 0.834939,-3.25701 0.459217,-0.28381 0.440281,1.60213 -0.04208,4.19099 -0.482361,2.58885 -1.195584,9.13512 -1.58494,14.54727 -0.389356,5.41215 -1.04542,9.49965 -1.457919,9.08333 z"
     id="path9046"
     inkscape:connector-curvature="0"
     sodipodi:nodetypes="sccssss" />
  <path
     style="fill:#000000"
     d="m 306.07895,206.41667 c 0.048,-1.16495 0.28494,-1.4019 0.60416,-0.60417 0.28887,0.72187 0.25335,1.58437 -0.0789,1.91667 -0.33229,0.33229 -0.56864,-0.25834 -0.52522,-1.3125 z"
     id="path9044" />
  <path
     style="fill:#000000"
     d="m 221.45888,199.93347 c -0.36253,-0.58659 -0.44468,-1.281 -0.18255,-1.54313 0.26212,-0.26213 0.74306,0.21781 1.06875,1.06653 0.67618,1.76211 0.0999,2.07206 -0.8862,0.4766 z"
     id="path9042" />
  <path
     style="fill:#000000"
     d="m 232,197.875 c 0,-0.73346 -1.11929,-0.90114 -3.21603,-0.48179 -2.94728,0.58945 -3.05523,0.52563 -1.29189,-0.76376 1.05828,-0.77383 2.44747,-1.20614 3.08709,-0.9607 0.63962,0.24545 1.9174,-0.30818 2.83951,-1.23029 0.92211,-0.9221 1.92519,-1.42792 2.22907,-1.12404 0.86395,0.86395 -0.61162,2.68558 -2.17538,2.68558 -0.84214,0 -1.17788,0.60386 -0.834,1.5 0.31659,0.825 0.30246,1.5 -0.0314,1.5 C 232.27314,199 232,198.49375 232,197.875 z"
     id="path9040" />
  <path
     style="fill:#000000"
     d="M 272.41655,196.64313 C 272.03273,195.6429 270.65409,195 268.89301,195 267.30186,195 266,194.51968 266,193.93261 c 0,-0.65074 -0.87521,-0.7896 -2.24216,-0.35575 -1.94491,0.61729 -2.07105,0.50546 -0.95144,-0.84359 0.70989,-0.85537 0.89043,-1.80261 0.40119,-2.10498 -0.48925,-0.30236 -1.87457,0.78257 -3.0785,2.41098 -1.91099,2.58476 -2.81515,2.96073 -7.12007,2.96073 -3.78497,0 -5.40503,-0.50869 -6.97006,-2.18856 C 244.91753,192.60773 244,191.27356 244,190.84662 c 0,-0.42694 -0.92895,-1.27341 -2.06434,-1.88105 -1.70559,-0.91281 -2.66989,-0.64292 -5.54893,1.55303 -3.87312,2.95417 -6.90976,2.70468 -5.89754,-0.48453 0.59056,-1.86071 0.46619,-1.89232 -2.13539,-0.5426 -1.51936,0.78825 -2.94744,1.24822 -3.17352,1.02214 -0.70304,-0.70304 5.17609,-5.38113 8.06972,-6.42116 3.23251,-1.16183 3.50575,-0.28077 0.81022,2.61254 -2.21366,2.37608 -1.53348,3.96369 0.85863,2.00414 0.86963,-0.71239 3.15615,-1.81561 5.08115,-2.45162 3.98022,-1.31504 18.12074,-1.91896 19.85372,-0.84792 0.63045,0.38965 1.59628,0.43033 2.14628,0.0904 0.55,-0.33992 1,0.0354 1,0.83399 0,0.79862 0.73865,1.73548 1.64144,2.08191 1.37248,0.52667 1.43434,0.38034 0.37756,-0.89301 C 264.04637,186.35094 264.03581,186 264.97318,186 c 2.5086,0 6.9235,4.15692 8.05449,7.58383 1.15685,3.5053 0.61018,6.24196 -0.61112,3.0593 z"
     id="path9038" />
  <path
     style="fill:#000000"
     d="m 324,195.94098 c 0,-0.58246 0.45,-0.7809 1,-0.44098 0.55,0.33992 1,0.81648 1,1.05902 0,0.24254 -0.45,0.44098 -1,0.44098 -0.55,0 -1,-0.47656 -1,-1.05902 z"
     id="path9036" />
  <path
     style="fill:#000000"
     d="m 221.15789,192 c 0,-1.375 0.22698,-1.9375 0.50439,-1.25 0.27741,0.6875 0.27741,1.8125 0,2.5 -0.27741,0.6875 -0.50439,0.125 -0.50439,-1.25 z"
     id="path9034" />
  <path
     style="fill:#000000"
     d="m 284.5149,186.71879 c 0.96581,-1.52966 2.00756,-2.52966 2.315,-2.22222 0.30745,0.30744 -0.48276,1.55899 -1.75601,2.78121 l -2.315,2.22222 1.75601,-2.78121 z"
     id="path9032" />
  <path
     style="fill:#000000"
     d="m 279,186.64102 c 0,-0.74743 -1.79774,-2.88493 -3.99498,-4.75 -2.19724,-1.86506 -3.99724,-3.95352 -4,-4.64102 C 271.00226,176.5625 270.55,176 270,176 c -0.55,0 -0.8875,-0.55427 -0.75,-1.2317 0.38601,-1.90179 -14.69993,-3.87452 -19.7461,-2.58213 -6.46667,1.6562 -7.6559,1.87113 -15.0039,2.71165 -3.85,0.44039 -7.7926,1.14364 -8.76134,1.56279 -1.41621,0.61274 -1.62471,0.40602 -1.06407,-1.05499 1.28724,-3.3545 3.74931,-5.40562 6.48863,-5.40562 1.49531,0 2.94933,-0.3731 3.23116,-0.82911 0.28183,-0.456 3.00839,-1.42788 6.05902,-2.15971 3.05063,-0.73184 5.5466,-1.68045 5.5466,-2.10802 0,-0.42758 1.46773,-0.53924 3.26161,-0.24813 2.48229,0.40282 3.71401,0.0294 5.15499,-1.56287 2.08191,-2.30049 4.20647,-2.72295 4.79621,-0.95372 0.27797,0.83389 1.33774,0.79193 3.96153,-0.15684 3.26852,-1.18191 3.92092,-1.08762 7.45385,1.07735 2.1295,1.30496 4.99681,3.71081 6.37181,5.34635 1.375,1.63554 4.1875,4.70582 6.25,6.82285 2.0625,2.11702 3.75,4.34111 3.75,4.94242 C 287,181.17841 280.4034,188 279.4288,188 279.19296,188 279,187.38846 279,186.64102 z"
     id="path9030" />
  <path
     style="fill:#000000"
     d="m 149.2177,151.8455 c 0.24642,-0.74002 1.25007,-1.50098 2.23033,-1.691 1.14002,-0.221 1.62085,0.13937 1.33427,1 -0.24642,0.74002 -1.25007,1.50098 -2.23033,1.691 -1.14002,0.221 -1.62085,-0.13937 -1.33427,-1 z"
     id="path9028" />
  <path
     style="fill:#000000"
     d="m 292.54271,133.0691 c -0.31644,-0.512 -0.11799,-1.21356 0.44098,-1.55902 0.55897,-0.34546 1.01631,0.0734 1.01631,0.9309 0,1.75653 -0.60006,2.01516 -1.45729,0.62812 z"
     id="path9026" />
  <path
     style="fill:#000000"
     d="m 275,94.940983 c 0,-0.582459 0.45,-0.780902 1,-0.440983 0.55,0.339919 1,0.816476 1,1.059017 C 277,95.801558 276.55,96 276,96 c -0.55,0 -1,-0.476558 -1,-1.059017 z"
     id="path9024" />
  <path
     style="fill:#000000"
     d="m 270.48304,93.027448 c 0.26718,-0.432319 1.39343,-1.023386 2.50276,-1.313483 1.10933,-0.290096 1.79835,-0.173732 1.53116,0.258587 -0.26718,0.432319 -1.39343,1.023386 -2.50276,1.313483 -1.10933,0.290096 -1.79835,0.173732 -1.53116,-0.258587 z"
     id="path9022" />
  <path
     style="fill:#000000"
     d="m 186,92.118034 c 0,-0.55 0.45,-1.278115 1,-1.618034 0.55,-0.339919 1,-0.168034 1,0.381966 0,0.55 -0.45,1.278115 -1,1.618034 -0.55,0.339919 -1,0.168034 -1,-0.381966 z"
     id="path9020" />
  <path
     style="fill:#000000"
     d="m 267.56429,91.293128 c -0.54268,-1.425198 -0.42782,-1.540062 0.5598,-0.559795 0.68342,0.678334 0.99067,1.485241 0.68278,1.793128 -0.30789,0.307888 -0.86705,-0.247112 -1.24258,-1.233333 z"
     id="path9018" />
  <path
     style="fill:#000000"
     d="m 258,91.181462 c 0,-1.208555 1.8972,-2.617596 2.5907,-1.924098 0.2517,0.251699 -0.22824,1.02686 -1.06653,1.72258 C 258.57378,91.768693 258,91.844555 258,91.181462 z"
     id="path9016" />
  <path
     style="fill:#000000"
     d="m 169.15479,85.21909 c -1.80574,-2.021965 -2.80147,-3.836862 -2.21275,-4.033105 0.58873,-0.196243 0.81606,-0.768371 0.50517,-1.271395 C 167.13633,79.411565 167.28778,79 167.78377,79 c 1.0322,0 5.76633,8.783235 5.09563,9.453934 -0.2428,0.2428 -1.91888,-1.21288 -3.72461,-3.234844 z"
     id="path9014" />
  <path
     style="fill:#000000"
     d="m 264,88.118034 c 0,-0.55 0.45,-1.278115 1,-1.618034 0.55,-0.339919 1,-0.168034 1,0.381966 0,0.55 -0.45,1.278115 -1,1.618034 -0.55,0.339919 -1,0.168034 -1,-0.381966 z"
     id="path9012" />
  <path
     style="fill:#000000"
     d="m 274.02006,87.475834 c 0.69572,-0.838291 1.47088,-1.31823 1.72258,-1.066531 C 276.43613,87.1028 275.02709,89 273.81854,89 c -0.6631,0 -0.58723,-0.573782 0.20152,-1.524166 z"
     id="path9010" />
  <path
     style="fill:#000000"
     d="M 191,85.059017 C 191,83.926558 191.45,83 192,83 c 0.55,0 1,0.648442 1,1.440983 0,0.792541 -0.45,1.719098 -1,2.059017 -0.55,0.339919 -1,-0.308524 -1,-1.440983 z"
     id="path9008" />
  <path
     style="fill:#000000"
     d="m 271.50555,79.993869 c 0.99854,-1.103372 2.03241,-1.789246 2.29749,-1.524166 C 274.47497,79.141636 271.98082,82 270.72257,82 c -0.5679,0 -0.21556,-0.902759 0.78298,-2.006131 z"
     id="path2987" />
  <path
     style="fill:none;stroke:#000000;stroke-width:1px;stroke-linecap:butt;stroke-linejoin:miter;stroke-opacity:1"
     d="m 306.18432,198.87076 1.27754,20.01483"
     id="path9280"
     inkscape:connector-curvature="0" />
  <path
     style="fill:none;stroke:#000000;stroke-width:1px;stroke-linecap:butt;stroke-linejoin:miter;stroke-opacity:1"
     d="m 305.75847,247.41737 -2.55508,18.73729 -2.98093,7.66526 -6.38771,9.79449"
     id="path9282"
     inkscape:connector-curvature="0" />
  <path
     style="fill:none;stroke:#000000;stroke-width:1px;stroke-linecap:butt;stroke-linejoin:miter;stroke-opacity:1"
     d="m 290.00212,292.98305 -1.70339,7.66525"
     id="path9284"
     inkscape:connector-curvature="0" />
  <path
     style="fill:none;stroke:#000000;stroke-width:1px;stroke-linecap:butt;stroke-linejoin:miter;stroke-opacity:1"
     d="m 283.18856,310.86864 -19.58898,25.55085 -25.55085,19.58898"
     id="path9286"
     inkscape:connector-curvature="0" />
  <path
     style="fill:none;stroke:#000000;stroke-width:1px;stroke-linecap:butt;stroke-linejoin:miter;stroke-opacity:1"
     d="m 239.08898,355.47702 -3.76399,2.10784"
     id="path9288"
     inkscape:connector-curvature="0" />
  <path
     style="fill:none;stroke:#000000;stroke-width:1px;stroke-linecap:butt;stroke-linejoin:miter;stroke-opacity:1"
     d="M 82.807897,263.48497 76.183265,252.34355"
     id="path9290"
     inkscape:connector-curvature="0" />
  <path
     style="fill:none;stroke:#000000;stroke-width:1px;stroke-linecap:butt;stroke-linejoin:miter;stroke-opacity:1"
     d="M 70.160873,237.8898 65.041839,214.40247"
     id="path9292"
     inkscape:connector-curvature="0" />
  <path
     style="fill:none;stroke:#000000;stroke-width:1px;stroke-linecap:butt;stroke-linejoin:miter;stroke-opacity:1"
     d="m 68.354155,191.51738 4.817914,-19.27165 4.215675,1.50559"
     id="path9294"
     inkscape:connector-curvature="0" />
</svg>
