<?xml version="1.0" encoding="UTF-8" standalone="no"?>
<!-- Created with Inkscape (http://www.inkscape.org/) -->

<svg
   xmlns:dc="http://purl.org/dc/elements/1.1/"
   xmlns:cc="http://creativecommons.org/ns#"
   xmlns:rdf="http://www.w3.org/1999/02/22-rdf-syntax-ns#"
   xmlns:svg="http://www.w3.org/2000/svg"
   xmlns="http://www.w3.org/2000/svg"
   xmlns:sodipodi="http://sodipodi.sourceforge.net/DTD/sodipodi-0.dtd"
   xmlns:inkscape="http://www.inkscape.org/namespaces/inkscape"
   id="svg2"
   version="1.1"
   inkscape:version="0.48.4 r9939"
   width="402"
   height="402"
   sodipodi:docname="Stalin3.svg">
  <sodipodi:namedview
     pagecolor="#ffffff"
     bordercolor="#666666"
     borderopacity="1"
     objecttolerance="10"
     gridtolerance="10"
     guidetolerance="10"
     inkscape:pageopacity="0"
     inkscape:pageshadow="2"
     inkscape:window-width="1550"
     inkscape:window-height="881"
     id="namedview4"
     showgrid="false"
     inkscape:zoom="1.1741294"
     inkscape:cx="161.24954"
     inkscape:cy="114.35165"
     inkscape:window-x="0"
     inkscape:window-y="0"
     inkscape:window-maximized="1"
     inkscape:current-layer="svg2" />
  <metadata
     id="metadata8">
    <rdf:RDF>
      <cc:Work
         rdf:about="">
        <dc:format>image/svg+xml</dc:format>
        <dc:type
           rdf:resource="http://purl.org/dc/dcmitype/StillImage" />
        <dc:title></dc:title>
      </cc:Work>
    </rdf:RDF>
  </metadata>
  <defs
     id="defs6" />
  <g
     id="g10528">
    <path
       style="fill:#000000"
       d="m 182.5,388.02309 c -8.70439,-9.31873 -18.38631,-13.49518 -28.318,-21.64023 -5.91246,-5.50417 -30.53292,-23.26263 -20.71222,-5.73378 -3.7636,-12.89829 10.48785,21.22775 -1.72828,6.24238 -9.57532,-11.031 -21.18248,-22.89253 -26.37802,-32.03676 C 97.923864,323.58179 99.130895,309.40062 99,296.41642 c -3.68847,-4.48454 -10.838874,-7.51605 -9,-14.3205 2.713845,-5.45016 -9.921727,-23.80296 -6.019184,-18.91566 7.724519,12.90432 3.664272,-15.78922 0.998972,-21.5109 -4.534014,-12.68939 -6.554668,26.6743 -10.461801,8.00575 -3.619682,-6.30297 -6.736207,-19.06223 -0.03379,-6.76925 8.155157,7.25139 -2.595073,-21.80324 5.157652,-14.65586 -7.265969,-13.29617 0.736264,-29.16658 -2.620173,-45.25 11.256155,1.86546 -6.19591,-11.51682 0.111268,-17.96808 1.870501,-10.5098 0.773261,-21.90135 2.65771,-32.13769 4.114677,-4.09703 7.702179,-8.39386 6.330796,-14.5701 1.232521,-14.65157 -3.135383,-29.644972 2.526735,-43.714648 4.144565,-20.183816 20.870016,-35.262007 38.549696,-44.372126 19.88978,-12.528443 44.42911,-12.13981 67.09209,-13.419937 19.46603,-0.894672 38.91689,0.363721 58.3402,1.565539 13.41113,8.78572 28.77416,13.31913 42.1342,21.802905 13.26631,8.170866 24.55055,21.499043 27.32157,37.048129 3.31951,13.631176 5.0523,27.598048 5.98403,41.583468 2.76324,11.10389 0.60411,25.98225 -3.09956,38.07279 -7.80205,10.78258 -4.01307,37.09074 -19.51389,37.72952 -0.94597,-16.24286 -11.70452,-31.21527 -12.8239,-47.10954 3.7245,-6.05344 0.48339,-24.41716 9.18157,-11.80701 5.58883,2.54395 -18.25513,-29.51261 -3.66987,-12.00008 4.91009,5.60871 15.03153,16.8091 6.74737,4.26557 -4.87568,-6.44899 -8.11921,-14.41284 0.90473,-4.76865 4.14635,1.75994 -18.82553,-25.150655 -9.29753,-8.20006 -2.93272,-4.58499 -20.07178,-10.7465 -7.70255,-13.34652 -16.02867,-4.714896 16.19857,0.97202 3.95366,-2.832861 -3.91583,-3.541002 -3.89172,-5.768802 -11.5,-4.509945 -0.0712,-7.921173 23.14564,-24.155313 6.33484,-11.945026 -4.3579,4.788452 -12.38171,7.009497 -6.52261,1.634352 -2.33012,-5.673296 -2.71759,-9.467915 -8.13417,-8.413314 2.30288,-10.501848 6.19501,1.829419 5.31593,-7.015324 5.25165,-12.926425 -2.48016,-3.816671 -3.71747,-1.982032 -3.29036,-11.948713 0.59747,10.296231 -5.50451,12.717609 -4.35962,8.436104 -6.8869,8.700968 -6.81765,3.669279 -4.6931,5.204199 -12.85583,13.696713 -5.17639,2.450212 0.34719,-13.288194 -13.544,16.46138 -10.51397,2.07357 -0.71436,-8.09638 -9.09532,11.088041 -8.44251,-2.044186 -4.09063,-2.567004 -3.47081,11.906449 -5.88442,-0.682215 -0.39863,-7.955781 -0.81988,-12.274812 -3.94405,-2.15642 C 224.41005,97.120874 220.73513,84.707152 222.5,79 c -4.1767,12.908879 -3.03336,-8.77287 -4.75217,2.120899 -0.3197,9.727317 -1.42147,6.233194 -5.45887,3.682226 0.77067,-6.154672 0.034,-19.568544 -0.26682,-6.289443 -4.53749,9.152152 -14.49911,4.110391 -14.32274,6.394803 -8.46735,15.841535 -0.80703,-4.07123 2.53977,-10.330523 -4.91725,9.348995 -3.81615,-5.355167 -7.2171,5.422038 -0.73075,-16.69492 -11.22134,23.67291 -10.84034,6 -0.36078,2.247605 -20.31134,-24.256371 -11.98262,-8.751577 7.09962,9.70084 -16.11013,-13.433569 -5.98945,2.830495 3.39628,4.587243 6.60396,12.50609 -1.04051,7.630052 0.83921,-6.112097 -17.86305,-6.717623 -5.16915,-1.891956 -9.67036,-1.095208 -3.11631,7.094335 -13.23413,2.827689 11.90849,5.884892 -9.45778,1.43822 2.93853,5.65921 3.42352,-0.972246 -27.33101,2.536995 -7.76495,2.669094 7.78704,1.808215 -12.08562,2.507867 -7.13523,6.339763 -1.57189,10.95884 -3.37832,23.24133 -0.24777,34.64036 2.23023,8.57746 -11.57997,21.77353 5.80461,20.37826 16.4932,1.15739 29.85326,9.95208 45.56773,13.94703 12.27835,12.37381 11.75223,28.83604 9.16167,44.83716 1.17594,14.17285 -5.19241,28.31316 6.52424,39.40317 5.92198,2.97809 20.76743,0.2834 6.71407,4.19482 -14.59701,0.35069 -16.2068,25.88384 -13.65635,25.8567 5.46085,-8.31314 11.71796,-23.71373 19.41566,-21.62472 1.37177,5.74434 15.02322,31.76925 7.64666,12.36503 11.75013,-6.32298 -10.12234,-22.54324 6.22303,-14.37757 6.21298,4.83032 7.42632,13.94615 7.13881,0.33664 4.50889,-2.34606 13.77299,19.74489 11.8679,3.73035 2.13887,5.47876 10.13444,9.32056 10.61853,1 7.0505,9.08243 9.89099,24.94979 24.41699,23.91054 -7.35811,15.72256 -26.14219,3.42328 -39.3259,4.49354 -16.16098,2.60322 -4.01524,-16.05221 -14.94553,-19.90406 4.0726,9.2194 7.05164,27.37335 -7.52409,16.85565 -3.46644,0.0952 -15.68529,-5.28954 -5.8826,-5.08989 -2.69381,-7.24805 -15.27423,-16.37089 -11.57189,-1.55179 8.38211,12.13392 -19.5103,5.2199 -27,9.26279 -15.51503,2.36173 -26.93067,-7.21107 -39.8343,0.70813 1.51294,11.91951 12.30234,28.00473 22.00589,39.43571 3.11498,10.76719 6.62192,-10.1906 8.70771,4.85835 6.97221,4.2164 14.1939,16.66987 28.87745,14.97262 13.73491,2.77823 27.79941,4.11605 41.55881,1.25584 -9.00981,2.81067 -28.23445,5.17895 -41.27585,4.80077 -11.91543,-3.35586 -13.90458,2.9129 -6.37018,11.34095 4.80341,10.13969 13.68491,11.5546 -4.91952,14.67394 z"
       id="path9272"
       inkscape:connector-curvature="0" />
    <path
       style="fill:#000000"
       d="m 178.60417,362.27083 c -4.36249,2.3437 2.87275,2.90104 0,0 z"
       id="path9270"
       inkscape:connector-curvature="0" />
    <path
       style="fill:#000000"
       d="m 131.34508,306.45687 c -1.46778,-3.83326 -1.62649,2.39294 0,0 z"
       id="path9264"
       inkscape:connector-curvature="0" />
    <path
       style="fill:#000000"
       d="m 274.5,292 c -3.58829,-3.8072 -1.24187,3.94236 0,0 z"
       id="path9262"
       inkscape:connector-curvature="0" />
    <path
       style="fill:#f2f2f2"
       d="m 135.44971,286.91862 c 10.45414,0.18719 10.07703,-13.50258 19.07719,-19.96215 6.75017,3.74323 5.11539,-10.9865 8.44252,-0.20647 1.12516,-3.76982 12.00336,-7.84784 6.78579,-0.0651 5.66227,9.27273 12.35994,-16.69098 9.95977,-3.40573 1.02167,10.45619 7.61743,-12.86431 -3.12593,-14.35567 -5.91628,-13.55149 13.36555,-24.2318 4.96281,-36.00738 7.08065,8.57376 7.15337,-4.71745 -1.63727,-3.3633 5.17013,-6.49846 -4.82246,-0.81861 -5.44011,-3.90461 3.45777,-2.63473 -6.5927,-3.56674 2.38379,-3.93356 11.53156,-4.85155 -5.28399,-7.03503 -6.02898,-14.71461 -6.499,11.72554 -17.33965,3.28634 -24.82929,1.03432 -5.37059,10.73868 -30.43964,12.28197 -25.58738,31.53947 -1.4128,7.44839 -4.20733,18.35746 1.65882,5.88208 1.19353,3.80932 8.0514,-7.3599 5.30252,3.30865 8.29744,11.04277 -5.67712,27.11876 0.0181,34.98548 7.10524,-0.54421 -3.80739,9.9031 -0.39205,14.75 -0.7396,4.50195 2.90085,10.60892 8.44971,8.41862 z"
       id="path9254"
       inkscape:connector-curvature="0" />
    <path
       style="fill:#000000"
       d="m 179,212 c 2.55494,-3.58745 2.55494,3.58745 0,0 z"
       id="path9246"
       inkscape:connector-curvature="0" />
    <path
       style="fill:#000000"
       d="m 190.92971,239.69098 c -3.04169,-1.91687 0.0651,8.12523 0,0 z"
       id="path9184"
       inkscape:connector-curvature="0" />
    <path
       style="fill:#ffffff"
       d="m 120.51008,202.98369 c 13.33065,-3.37145 3.39409,-9.90146 -0.20784,-11.62212 2.4353,6.28016 -4.03962,-0.63888 -2.27657,9.07101 l 1.11139,1.54282 1.37306,1.00829 -4e-5,0 z"
       id="path9182"
       inkscape:connector-curvature="0" />
    <path
       style="fill:#ffffff"
       d="m 134.35145,191.23532 c 9.57855,-9.77779 27.84093,-10.3795 41.10602,-7.67946 13.86172,5.17802 9.5117,-7.56653 -1.68495,-6.43481 -14.2649,-5.63359 -33.5882,-9.27045 -41.46678,7.79691 0.17179,8.51768 -16.73279,0.0694 -6.03197,7.03093 3.57385,3.82695 5.37585,3.20492 8.07768,-0.71357 z"
       id="path9180"
       inkscape:connector-curvature="0" />
    <path
       style="fill:#000000"
       d="m 182,191.90728 c -7.89047,-11.19682 -9.05581,-3.8797 0,0 z"
       id="path9178"
       inkscape:connector-curvature="0" />
    <path
       style="fill:#000000"
       d="m 162,186 c -2.46629,-3.56228 -1.20936,3.65615 0,0 z"
       id="path9176"
       inkscape:connector-curvature="0" />
    <path
       style="fill:#000000"
       d="m 171,183 c -8.18395,-2.92149 -0.54728,3.48872 0,0 z"
       id="path9174"
       inkscape:connector-curvature="0" />
    <path
       style="fill:#000000"
       d="m 234,361.60699 c 0.45576,-2.68504 5.91336,0.8962 0,0 z"
       id="path9086"
       inkscape:connector-curvature="0" />
    <path
       style="fill:#000000"
       d="m 282.63837,310.5 c 4.21608,-6.58603 12.80214,-21.50251 4.69841,-5.57263 -0.82135,0.33409 -4.5924,10.65347 -4.69841,5.57263 z"
       id="path9076"
       inkscape:connector-curvature="0" />
    <path
       style="fill:#000000"
       d="m 290.45315,291.5 c 0.14724,-6.56059 8.58875,-16.31849 0,0 z"
       id="path9072"
       inkscape:connector-curvature="0" />
    <path
       style="fill:#000000"
       d="m 301.08029,272 c 3.70414,-8.13452 1.17038,3.24672 0,0 z"
       id="path9068"
       inkscape:connector-curvature="0" />
    <path
       style="fill:#000000"
       d="m 303.07895,263.41667 c 1.44329,-2.66327 0.44609,4.31143 0,0 z"
       id="path9060"
       inkscape:connector-curvature="0" />
    <path
       style="fill:#000000"
       d="m 304.07895,259.41667 c 1.44329,-2.66327 0.44609,4.31143 0,0 z"
       id="path9058"
       inkscape:connector-curvature="0" />
    <path
       style="fill:#000000"
       d="m 305.15789,252 c 0.87512,-4.5074 0.87512,4.5074 0,0 z"
       id="path9056"
       inkscape:connector-curvature="0" />
    <path
       style="fill:#000000"
       d="m 297,247.54705 c 3.24001,-11.47768 6.22301,-4.42796 0,0 z"
       id="path9054"
       inkscape:connector-curvature="0" />
    <path
       style="fill:#000000"
       d="m 304.88278,247.81722 c 0.92762,-11.92751 -0.15715,-20.99934 2.25083,-33.06722 1.49752,9.62262 0.0765,26.08462 -2.25083,33.06722 z"
       id="path9052"
       inkscape:connector-curvature="0" />
    <path
       style="fill:#000000"
       d="m 300.15789,238 c 0.87512,-4.5074 0.87512,4.5074 0,0 z"
       id="path9050"
       inkscape:connector-curvature="0" />
    <path
       style="fill:#000000"
       d="m 67.157895,221 c 0.87511,-4.5074 0.87511,4.5074 0,0 z"
       id="path9048"
       inkscape:connector-curvature="0" />
    <path
       style="fill:#000000"
       d="m 65.75,217.4236 c -2.378961,-7.11612 2.938358,-28.17851 3.108033,-25.86076 -0.645448,8.64138 -1.552766,17.32614 -3.108033,25.86076 z"
       id="path9046"
       inkscape:connector-curvature="0" />
    <path
       style="fill:#000000"
       d="m 306.07895,206.41667 c 1.44329,-2.66327 0.44609,4.31143 0,0 z"
       id="path9044"
       inkscape:connector-curvature="0" />
    <path
       style="fill:#000000"
       d="m 221.45888,199.93347 c -2.15666,-3.54365 2.81686,0.0299 0,0 z"
       id="path9042"
       inkscape:connector-curvature="0" />
    <path
       style="fill:#000000"
       d="m 232,197.875 c -12.53878,0.69985 11.34799,-8.96981 0.63837,-0.375 L 232.60697,199 232,197.875 z"
       id="path9040"
       inkscape:connector-curvature="0" />
    <path
       style="fill:#000000"
       d="m 272.41655,196.64313 c -9.88257,-6.05858 -10.30884,-4.325 -20.66869,-0.95556 -7.59533,-4.56282 -11.91966,-7.28463 -21.25867,-5.6535 -12.28789,4.43712 5.41314,-12.04347 4.42966,-1.32494 14.97521,-4.35108 30.16341,-6.63252 38.10882,4.8747 l -0.61112,3.0593 z"
       id="path9038"
       inkscape:connector-curvature="0" />
    <path
       style="fill:#000000"
       d="m 221.15789,192 c 0.87512,-4.5074 0.87512,4.5074 0,0 z"
       id="path9034"
       inkscape:connector-curvature="0" />
    <path
       style="fill:#000000"
       d="m 284.5149,186.71879 c 7.5168,-7.56036 -5.87078,8.36426 0,0 z"
       id="path9032"
       inkscape:connector-curvature="0" />
    <path
       style="fill:#000000"
       d="m 279,186.64102 c -8.483,-17.78156 -29.85939,-15.1524 -46.05496,-11.48318 -18.93136,3.58113 6.54592,-10.05323 13.05496,-10.25468 13.7048,-5.33791 29.42787,-3.63876 37.25,10.32499 8.24596,3.2578 -2.27184,12.93901 -4.25,11.41287 z"
       id="path9030"
       inkscape:connector-curvature="0" />
    <path
       style="fill:#000000"
       d="m 149.2177,151.8455 c 5.04273,-5.53095 4.11417,4.01786 0,0 z"
       id="path9028"
       inkscape:connector-curvature="0" />
    <path
       style="fill:#000000"
       d="m 292.54271,133.0691 c -1.12373,-3.86044 3.87719,0.62832 0,0 z"
       id="path9026"
       inkscape:connector-curvature="0" />
    <path
       style="fill:none;stroke:#000000;stroke-width:1px;stroke-linecap:butt;stroke-linejoin:miter;stroke-opacity:1"
       d="m 306.18432,190.77966 c 0.42585,9.36864 0.85169,18.73729 1.27754,28.10593"
       id="path9280"
       inkscape:connector-curvature="0" />
    <path
       style="fill:none;stroke:#000000;stroke-width:1px;stroke-linecap:butt;stroke-linejoin:miter;stroke-opacity:1"
       d="m 305.75847,247.41737 c -1.51427,11.57903 -2.05881,23.97003 -10.03261,33.29733 -0.63037,0.96657 -1.26074,1.93314 -1.89111,2.89971"
       id="path9282"
       inkscape:connector-curvature="0" />
    <path
       style="fill:none;stroke:#000000;stroke-width:1px;stroke-linecap:butt;stroke-linejoin:miter;stroke-opacity:1"
       d="m 290.90548,289.67073 c -0.86892,3.65919 -1.73783,7.31838 -2.60675,10.97757"
       id="path9284"
       inkscape:connector-curvature="0" />
    <path
       style="fill:none;stroke:#000000;stroke-width:1px;stroke-linecap:butt;stroke-linejoin:miter;stroke-opacity:1"
       d="m 283.18856,310.86864 c -7.41874,8.91018 -13.50224,19.15561 -21.7665,27.22028 -7.79111,5.97318 -15.58222,11.94637 -23.37333,17.91955"
       id="path9286"
       inkscape:connector-curvature="0" />
    <path
       style="fill:none;stroke:#000000;stroke-width:1px;stroke-linecap:butt;stroke-linejoin:miter;stroke-opacity:1"
       d="m 239.08898,355.47702 c -1.25466,0.70261 -2.50933,1.40523 -3.76399,2.10784"
       id="path9288"
       inkscape:connector-curvature="0" />
    <path
       style="fill:none;stroke:#000000;stroke-width:1px;stroke-linecap:butt;stroke-linejoin:miter;stroke-opacity:1"
       d="m 82.807897,263.48497 c -2.208211,-3.71381 -4.416421,-7.42761 -6.624632,-11.14142"
       id="path9290"
       inkscape:connector-curvature="0" />
    <path
       style="fill:none;stroke:#000000;stroke-width:1px;stroke-linecap:butt;stroke-linejoin:miter;stroke-opacity:1"
       d="m 70.160873,237.8898 c -1.706345,-7.82911 -3.412689,-15.65822 -5.119034,-23.48733"
       id="path9292"
       inkscape:connector-curvature="0" />
    <path
       style="fill:none;stroke:#000000;stroke-width:1px;stroke-linecap:butt;stroke-linejoin:miter;stroke-opacity:1"
       d="m 68.354155,191.51738 c 1.605971,-6.42388 3.211943,-12.84777 4.817914,-19.27165 1.405225,0.50186 2.81045,1.00373 4.215675,1.50559"
       id="path9294"
       inkscape:connector-curvature="0" />
  </g>
</svg>
