<?xml version="1.0" encoding="UTF-8" standalone="no"?>
<!-- Created with Inkscape (http://www.inkscape.org/) -->

<svg
   xmlns:dc="http://purl.org/dc/elements/1.1/"
   xmlns:cc="http://creativecommons.org/ns#"
   xmlns:rdf="http://www.w3.org/1999/02/22-rdf-syntax-ns#"
   xmlns:svg="http://www.w3.org/2000/svg"
   xmlns="http://www.w3.org/2000/svg"
   xmlns:sodipodi="http://sodipodi.sourceforge.net/DTD/sodipodi-0.dtd"
   xmlns:inkscape="http://www.inkscape.org/namespaces/inkscape"
   id="svg2"
   version="1.1"
   inkscape:version="0.48.4 r9939"
   width="402"
   height="402"
   sodipodi:docname="Stalin2.svg">
  <sodipodi:namedview
     pagecolor="#ffffff"
     bordercolor="#666666"
     borderopacity="1"
     objecttolerance="10"
     gridtolerance="10"
     guidetolerance="10"
     inkscape:pageopacity="0"
     inkscape:pageshadow="2"
     inkscape:window-width="1550"
     inkscape:window-height="881"
     id="namedview4"
     showgrid="false"
     inkscape:zoom="1.1741294"
     inkscape:cx="97.508903"
     inkscape:cy="157.34918"
     inkscape:window-x="0"
     inkscape:window-y="0"
     inkscape:window-maximized="1"
     inkscape:current-layer="svg2" />
  <metadata
     id="metadata8">
    <rdf:RDF>
      <cc:Work
         rdf:about="">
        <dc:format>image/svg+xml</dc:format>
        <dc:type
           rdf:resource="http://purl.org/dc/dcmitype/StillImage" />
        <dc:title></dc:title>
      </cc:Work>
    </rdf:RDF>
  </metadata>
  <defs
     id="defs6" />
  <path
     style="fill:#000000"
     d="M182.5 388.02309C182.20634 387.89826375 173.9739575 380.45235625 173.9682 380.30637C173.9660125 380.2509325 172.45275125 377.6375 172.34322 377.5C172.14675125 377.25336125 171.21588375 377.47253125 171.28141 377.75C171.37287125 378.13729375 168.50934125 377.4750575 168.18281 377.0334C168.012515 376.8030625 164.61080875 374.59585375 164.49475 374.64039C164.37672625 374.68568 163.0 373.733875 163.0 373.60699C163.0 373.49650875 162.06875 372.0 162.0 372.0C161.93125 372.0 161.11027875 371.3015625 161.11842 371.25C161.1571375 371.00478875 160.13506125 369.81955625 160.02923 369.98694C159.9338225 370.13783875 154.67998375 366.89951 154.182 366.38286C153.83981 366.027845 141.93747125 357.29464375 141.38745 356.99501C140.8451875 356.6996025 131.88168375 351.307795 131.76221 351.20515C131.5603875 351.03175375 130.23459375 353.37021375 130.26221 353.85088C130.27855875 354.13542 131.13366875 357.99446375 131.18045 357.99482C131.22723125 357.995195 132.22744875 360.0953125 132.25451 360.25C132.29956625 360.507555 133.375725 360.8609525 133.46978 360.64908C133.5378925 360.495645 133.03797875 358.0234725 132.92468 357.95345C132.830715 357.89537625 132.22938875 356.43728125 132.27896 356.38771C132.43967625 356.22699375 134.57704875 360.98522875 134.60099 361.55703C134.6173375 361.94745125 137.25915375 369.273115 137.49521 369.5826C137.9476775 370.175815 135.96356125 371.35823375 135.38175 370.8421C134.31022375 369.89153375 115.04107875 348.2217375 114.40326 347.25C114.030975 346.6828125 108.4731175 339.0 108.43509 339.0C108.3970625 339.0 108.546435 340.0751375 108.59549 340.15451C108.65075 340.2439225 108.2439225 340.65075 108.15451 340.59549C108.0751375 340.546435 107.0 338.2175 107.0 338.09462C107.0 337.76842375 101.88819625 328.364685 101.52582 328.02425C101.216110625 327.73329375 99.0 312.82624625 99.0 311.03389L99.0 296.41642L94.5 292.0L90.0 287.58358L90.0 279.79179C90.0 279.03138 88.71188375 272.0 88.57258 272.0C88.283718 272.0 83.074265375 264.0387275 83.085953 263.61514L83.171903 260.5L83.980816 263.18026C84.03642875 263.3645275 87.215761 268.47688625 87.394864 268.67004C87.796173125 269.10283375 88.7134465 260.11796875 88.433133 258.5C88.325934375 257.88125 86.492136375 246.70625 86.463954 246.5C86.325232 245.48477625 83.64514525 237.58267875 83.46322 237.65249C83.36262375 237.6910925 82.0 239.83376875 82.0 239.95335C82.0 240.0729325 80.522311125 244.65482125 80.41322 244.8735C80.304128875 245.09217875 78.121427 252.4524425 78.069379 252.77714C78.017331125 253.10183625 76.82835675 256.103125 76.792628 256.0C76.756899375 255.896875 75.42753525 251.70625 75.365123 251.5C74.948798875 250.77915625 71.08194475 241.81480875 70.937744 241.33625C70.873274125 241.16668125 70.050079875 236.3694875 70.053777 236.1849C70.058452 235.95153 71.82335025 238.87157125 71.986683 239.38291C72.265542 240.25592125 76.719327625 245.83819 76.932278 245.5816C77.200971125 245.257845 77.769065625 233.20825625 77.53854 232.72246C77.422528125 232.47798375 76.22082925 226.52800375 76.248125 226.33322C76.292462875 226.01682375 77.36046275 227.27538625 77.450386 227.75C77.57598475 228.41290875 79.750792 228.90910875 79.641848 228.25C79.59923425 227.9921875 79.011762625 221.4734375 79.011006 221.25C79.009621 220.84117625 75.79494125 218.92123375 75.662281 219.25C75.627604375 219.3359375 75.084374625 216.57890625 75.078947 216.28943C75.07346325 215.99695625 76.255041375 210.906465 76.348726 210.81895C76.441450875 210.7323325 77.327170125 208.134685 77.299834 208.02953C77.27249775 207.924375 77.777938375 199.515625 77.842589 199.0C77.93403975 198.27063 77.574976125 189.57409875 77.444845 189.36663C77.28074725 189.1050075 76.874966375 183.0 77.021675 183.0C77.0626545 183.0 79.425417375 184.36726125 79.55887 184.4682C79.9341785 184.75206875 81.843945125 181.608635 81.709446 180.9284C81.5945935 180.34753 78.62286975 176.37981 78.353333 176.44746C78.077379 176.51672 76.0 173.1010575 76.0 172.57807C76.0 172.2714425 76.805763125 167.62004375 76.865249 167.58328C76.924734875 167.54651625 78.412828625 151.46896 78.463202 150.31879L79.195906 133.58906L82.597953 129.61453L86.0 125.64L86.192071 114.07C86.205275875 113.2745625 86.16277175 100.171875 86.146429 100.0C86.13008625 99.828125 85.391765125 88.770417875 85.353601 88.125952C85.281285625 86.90478675 90.712793875 66.4392715 91.491184 65.0C91.584137875 64.828125 95.33594475 57.475003875 95.51997 57.104031C95.86527675 56.407933625 108.9159175 41.9941385 109.20238 41.992478C109.29159125 41.9919655 114.690625 37.704400125 115.0 37.388386C115.5744275 36.80163075 135.02839625 25.701669 135.76029 25.543069C135.98443375 25.49449725 140.17505875 23.71256525 140.26029 23.629585C140.7811275 23.12249625 160.3649475 18.78147625 160.57783 19.125926C160.7025175 19.327675125 181.064675 17.362066875 181.35654 17.120107C181.44217875 17.049110875 212.565915 16.443885875 215.0 16.465884C218.32686 16.495950625 252.10502125 18.2167835 252.63017 18.382958C252.98287 18.494563625 258.91721375 21.400248 259.00262 21.503156C259.08802625 21.606064 261.23371875 23.0 261.30672 23.0C261.60160875 23.0 271.41497875 28.732118 271.48209 28.943567C271.52958625 29.093213125 275.88367125 31.36540825 276.22864 31.420571C276.51547375 31.4664375 281.37822875 32.81508025 281.45039 32.868778C281.52255 32.922475625 286.66923375 34.844856 286.97703 34.933079C287.707875 35.14256 305.1654475 47.42232 306.19137 48.44856C306.7197775 48.97713125 312.36452125 56.49245775 312.32009 56.608245C312.24063125 56.815311125 316.34425125 62.0 316.5876 62.0C316.7438575 62.0 319.22567875 67.12880925 319.16955 67.335729C319.15396375 67.39318525 320.98155125 71.470154 321.13206 71.713682C321.3612675 72.08454625 322.2152775 77.026890125 322.08594 77.233992C321.95633 77.44153175 322.62705875 81.1310955 322.83529 81.356039C323.03392375 81.5706125 325.36232375 92.354624 325.42264 93.339376C325.4640725 94.015833 326.85138375 104.72521125 326.91237 104.83938C327.0648975 105.124915 327.62781875 114.04313125 327.51063 114.31746C327.4538075 114.45047875 327.97221 118.6211275 328.06997 118.81746C328.1618 119.001885 329.82629875 122.342325 329.85735 122.40451C329.8884025 122.466695 329.2338775 122.644545 329.15451 122.59549C328.96239625 122.4767575 328.90822625 134.508235 329.10001 134.70002C329.20001375 134.80002375 328.82527875 140.66365 328.6878 141.15002C328.5838325 141.51783125 326.5194475 151.5442925 326.47101 151.91669C326.4225725 152.28908625 323.5470775 161.507475 323.38323 161.81563C323.2193825 162.12378375 320.99999 167.90764875 320.99999 168.02649C320.99999 168.1453325 319.51203875 170.99000375 319.40219 171.08117C319.26007875 171.19911125 318.31101125 175.52917125 318.36047 175.83395C318.40269 176.09412375 317.568995 181.86657125 317.45827 182.08068C317.35801375 182.274555 315.99999 186.70081375 315.99999 186.83371C315.99999 186.966605 314.3597425 189.19567375 314.23865 189.22734C314.11755875 189.25900625 309.82025875 195.11436125 309.6241 195.51497C309.22731375 196.32531375 304.80181 194.80951125 304.69994 193.82837C304.6665925 193.507195 303.604865 188.16968875 303.55983 188.09682C303.514795 188.02395125 302.89096875 180.26816625 302.88995 179.76846C302.8879875 178.80521875 296.27131875 162.4055625 295.5574 161.59446C295.254785 161.25065125 292.787755 153.25122875 292.82976 152.75C292.8398475 152.6296875 292.05614 151.0 291.9882 151.0C291.801565 151.0 292.403715 147.739135 292.63262 147.51023C292.79788375 147.34496625 293.2536975 143.6574825 293.13977 143.40744C293.0059 143.11362875 293.990365 141.9655425 294.25714 142.10436C294.530885 142.24680375 294.3715725 140.957415 294.07568 140.63572C293.7606675 140.29323875 294.5428025 138.7553175 294.92733 138.96111C295.1143025 139.061175 296.51357 137.94131625 296.48921 137.71111C296.473125 137.55909625 296.0163 135.5 295.99866 135.5C295.98102125 135.5 295.58609625 132.9390625 295.57458 132.75C295.5630675 132.5609375 295.8667075 130.0 295.90064 130.0C295.93457375 130.0 302.67191625 136.51875 303.13537 137.0C304.54974375 138.46868375 302.48858 132.6908075 300.99999 131.01408C300.896865 130.89792125 298.56874 127.91583625 298.49999 127.81184C298.43124 127.707845 294.9390525 122.45337875 294.74999 122.16946C294.37284125 121.6030875 292.8100225 117.0 292.99488 117.0C293.0632775 117.0 295.86769 120.9578125 296.00633 121.25C296.26168625 121.78817375 309.0 135.52329375 309.0 135.26046C309.0 135.18191875 308.06875 133.54249 308.0 133.5C307.93125 133.45751 307.0 131.52269875 307.0 131.42235C307.0 131.32200125 302.8598025 124.68769375 302.55415 124.29826C302.2484975 123.9088275 298.6128975 117.81732625 298.65015 117.75705C298.6874025 117.696775 300.2666625 118.10957 300.346 118.20032C300.4253375 118.29107 304.20724625 121.83898375 304.40711 122.01016L307.31423 124.5L304.69516 120.02643C304.51509875 119.7188725 300.4109775 114.8952675 300.28805 114.84672C300.16512125 114.7981725 299.1459425 114.07512125 299.19363 114.07029C299.2413175 114.0654525 297.17098125 111.0260625 296.97045 110.80651C296.76992 110.5869575 293.41374125 108.2529275 293.3665 108.30017C293.31925875 108.34741125 294.6911575 110.7321375 294.83968 110.86095C295.08328125 111.072225 296.65779875 115.0 296.49889 115.0C296.46443875 115.0 292.349785 111.241 292.08047 110.96349C291.7988125 110.67326 287.56863 107.8889625 287.52257 107.96349C287.38222375 108.19057375 285.0 106.99738 285.0 106.7C285.0 106.541875 283.8359375 103.21003 283.75 103.12218C283.62348375 102.99284875 286.07259625 102.5016525 286.47491 102.57567C286.93706625 102.66069625 288.9885875 101.8457275 288.79634 101.65348C288.68266375 101.53980375 285.7344275 100.0 285.63045 100.0C285.52647125 100.0 283.48083125 98.9689815 283.43379 98.892866C283.32750875 98.720900125 289.3045425 100.345331 289.70383 100.59693C289.903635 100.72283 294.22298875 101.10531625 294.45383 101.01755C294.7640675 100.89959875 296.2498 98.0 296.0 98.0C295.93125 98.0 295.0 98.964015125 295.0 99.035184C295.0 99.116434375 292.9266 98.918710375 292.75 98.820619C292.5953125 98.734698875 289.87916375 97.53787125 289.83333 97.535435C289.639955 97.525156625 289.1433025 96.0 289.33333 96.0C289.44791375 96.0 291.0 95.169705 291.0 95.108408C291.0 94.934051 284.8026925 93.797312375 284.65536 93.944645C284.58280375 94.017200625 281.6909375 94.891974 281.55 94.883999C281.339145 94.87206775 281.0700025 94.357712375 281.25 94.310674C281.50210125 94.24479325 281.98102875 90.786053625 281.75 90.699758C281.6438075 90.66009225 282.096425 89.572777125 282.24464 89.511495C282.5296025 89.393671125 293.0 79.057899125 293.0 78.894424C293.0 78.8248175 293.93125 78.457510125 294.0 78.5C294.06875 78.542489875 295.0 77.209688625 295.0 77.068804C295.0 76.8246315 293.2383125 76.5279835 293.0 76.732028C292.8625 76.84975925 291.0 79.513162125 291.0 79.592058C291.0 79.8132035 280.27350625 88.036250125 279.87096 88.123701C279.48783 88.206933875 277.81975125 86.29789975 278.01531 86.0C278.11604875 85.846541625 279.77277125 85.697386125 279.86084 85.833846C279.947605 85.96828775 281.26819125 85.743485875 281.32945 85.583846C281.371235 85.474956625 281.12238625 84.0 281.06223 84.0C281.002075 84.0 280.677915 82.12365975 280.71414 81.985138C280.7673375 81.78170925 279.559375 80.56547375 279.37052 80.632316C279.179025 80.70009275 278.62203125 80.085096875 278.75 79.947179C278.99557875 79.682508375 278.2857025 75.0 278.0 75.0C277.8625 75.0 276.0 75.93125 276.0 76.0C276.0 76.06875 274.0234775 77.0 273.87756 77.0C273.6631375 77.0 272.80956125 75.7294675 272.92806 75.586686C273.0087 75.48952075 274.57622625 71.552687375 274.61131 71.359214C274.6889875 70.930849 276.01269875 69.25652225 276.01531 69.583333C276.01631 69.715103875 276.7970025 72.70814225 276.85358 72.797334C276.93558375 72.9266065 278.84985625 72.68090675 278.97971 72.524442C279.11785875 72.35798425 278.8154475 71.517324125 278.64144 71.584097C278.52735 71.62787775 277.0 71.183931875 277.0 71.106989C277.0 71.0308835 277.775005 70.0 277.83222 70.0C278.00822 70.0 280.00123875 60.896351625 279.91201 60.5C279.83120375 60.14106525 279.0447125 61.02142025 279.01863 61.5C278.99537875 61.926660125 278.17077625 63.266662625 278.09557 63.0C278.00866 62.69184075 276.172195 63.568577 276.00091 64.0L274.61132 67.5L274.23883 63.5C274.16753875 62.73442025 272.13459625 61.745799 272.18249 62.5C272.20431875 62.84375 273.37137 68.12746225 273.4357 68.173785C273.50511375 68.22376925 273.19395625 70.266299125 273.09961 70.37998C273.01217375 70.48533325 272.44283625 72.907507 272.48824 72.980972C272.53364375 73.054437 271.94912875 73.793667875 271.86057 73.774777C271.760665 73.753465 270.50755 76.098841625 270.50209 76.317359C270.49674 76.531673125 267.60388125 82.075258125 267.37106 82.317359C267.16064125 82.536165625 263.26295 87.3625 263.18562 87.5C263.04588625 87.748459125 262.0341875 87.704670625 262.03041 87.45C262.0283225 87.3090625 263.10197625 84.298021125 263.18333 84.216667C263.264685 84.13531275 263.60282125 82.31937525 263.54643 82.266667C263.49003875 82.213958625 262.240235 82.874728 262.20436 82.976218C262.1076625 83.24976325 253.02655625 92.493113 253.02318 92.321429C253.0215925 92.240402125 254.39326125 89.749597125 254.49612 89.646739C254.5989775 89.543881 256.95676375 85.613718125 257.02797 85.42643C257.14169875 85.127301125 256.700055 83.8339665 256.53185 83.973564C256.30673 84.16039775 255.98091375 82.41908675 256.2 82.2C256.30081375 82.099185875 256.3962875 81.0 256.30423 81.0C256.1796025 81.0 248.78723875 89.05205025 248.04158 90.0L246.07508 92.5L246.514 87.5C246.5584475 86.993681 245.9540375 84.297472375 245.84149 84.5C245.70928375 84.737900375 239.38948625 91.0 239.2816 91.0C239.2535975 91.0 239.04006125 89.3703125 239.0523 89.25C239.09137625 88.865849625 238.19080375 85.382071875 238.07149 85.455814C238.00765625 85.495266 236.75113 84.386163125 236.7222 84.264831C236.67869125 84.0823485 236.2565 84.29320125 236.25132 84.5C236.2440575 84.78981475 234.4190675 91.0 234.34116 91.0C234.1103825 91.0 231.8077325 83.917354625 231.84553 83.323769C231.86928375 82.950702375 231.4735125 75.38420575 231.42051 75.198672C231.33792125 74.909424125 230.0359425 77.5898615 229.96223 78.200892C229.86160125 79.035039875 224.711495 91.0 224.45308 91.0C224.35318125 91.0 223.0 89.680728875 223.0 89.583333C223.0 89.48593725 222.2138575 87.85624975 222.15582 87.833333C222.0977825 87.810416375 221.73317 84.015282 221.76429 83.758021C221.79541 83.500759875 223.0471775 80.529157 223.10847 80.567038C223.1697625 80.604919 224.0 80.131824375 224.0 80.059017C224.0 79.986209625 222.603125 79.0 222.5 79.0C222.38333375 79.0 221.0 81.3055555 221.0 81.5C221.0 81.683957125 219.707935 84.0 219.60531 84.0C219.4706075 84.0 218.92376 80.838039 219.0 80.5C219.05582625 80.252473375 218.95796375 77.0 218.89469 77.0C218.83318 77.0 217.8681625 79.5609375 217.85843 79.75C217.83938125 80.120019 217.205295 87.499669 217.17104 87.75C217.1592775 87.8359375 215.96911625 89.0 215.89301 89.0C215.816905 89.0 215.2224125 87.8359375 215.25463 87.75C215.28684625 87.6640625 215.0343475 84.6375 214.98349 84.5C214.89735625 84.267126625 213.11067625 84.929799 212.96136 85.25C212.69074625 85.83031375 211.754905 84.071782375 212.01341 83.468715C212.20816875 83.014360625 213.08976 75.5915925 212.99325 75.218715L212.03076 71.5L212.45615 75.272408C212.485395 75.531761125 212.08121625 78.5501975 212.02214 78.513682C211.96305625 78.4771665 210.52474125 80.88737275 210.47764 81.101823C210.401035 81.450603125 208.44317125 82.871739125 208.2733 82.701867C208.1034275 82.531994875 204.22865625 83.76608425 203.91073 84.091317C203.56910375 84.440796625 200.29780625 86.327159125 200.44423 86.090242C200.53383375 85.945258875 199.05597375 82.0 198.91206 82.0C198.82321625 82.0 196.55838 87.74781125 196.53822 88.024447C196.535595 88.06050275 194.2892125 91.31987775 194.126 91.524447C193.84236 91.879959125 192.4092125 92.29869425 192.49839 92.0C192.54970375 91.828125 194.14799875 88.369778125 194.21468 88.286339C194.48112 87.952933875 200.3092525 74.691358125 200.23917 74.577962C200.1980625 74.5114485 198.644225 76.51877175 198.57062 76.733477C198.40057625 77.229491 196.17292625 79.418720875 196.26432 79.0C196.30183375 78.828125 196.1116175 74.65301925 196.06006 74.516665C195.9828175 74.3123835 194.68188875 75.88213525 194.60975 76.266665C194.56159875 76.52333175 193.0830725 80.0 193.02207 80.0C192.86165 80.0 191.51622625 74.943977 191.62741 74.758949C191.68986625 74.65501275 190.790855 74.792989625 190.6475 74.909342C190.49161 75.035867875 189.47898625 78.90431725 189.535 79.159342C189.583095 79.37832025 189.16267125 82.0 189.07946 82.0C189.00524625 82.0 188.0 83.6882715 188.0 83.812909C188.0 83.9375465 185.13514 88.360984 184.92364 88.562909L181.84729 91.5L182.53205 88.75C182.584025 88.5412695 182.260295 86.0 182.18173 86.0C182.11056875 86.0 180.72077 87.6296875 180.68933 87.75C180.65788875 87.8703125 180.123975 86.549601625 180.116 86.331787C180.09503875 85.75928725 178.01111125 80.953248375 177.87615 81.166154C177.7959625 81.292653125 177.0167625 80.862546375 177.01531 80.690983C177.01431 80.566613125 176.09192875 79.44318475 176.02489 79.484617C175.88891875 79.56865175 168.5713675 72.090541125 168.45634 71.75C168.34784625 71.428803875 166.652855 71.920504625 166.73274 72.25C166.7702425 72.4046875 169.9983 77.059468875 170.19911 77.248423C170.39992 77.437377125 172.5493375 80.920173875 172.50721 80.988339C172.46508125 81.05650425 166.8810175 76.63453525 166.5109 76.239916C165.889765 75.57766125 161.3659625 72.92135625 161.39708 73.237162C161.4156225 73.425341875 163.21881125 77.6892935 163.33339 77.815902C163.44797 77.942510625 165.0 82.2000515 165.0 82.387758C165.0 82.5754645 165.80678875 84.61940925 165.86635 84.582598C165.9259125 84.545786875 168.4498225 85.944555 168.57659 86.084631C168.77387 86.302622875 169.1164725 88.931972875 168.96024 89.029004C168.84678 89.09947025 167.17973125 89.004668875 167.15275 88.926216C167.12555375 88.847135625 165.460615 89.032687125 165.34633 89.127535C165.2443825 89.212144 164.17217125 89.373956625 164.19358 89.301502C164.21464625 89.23020525 162.171875 86.207870625 162.0 86.056042C161.828125 85.90421325 160.6640625 84.43915875 160.75 84.482829C160.8359375 84.526499375 162.0 84.60012375 162.0 84.561889C162.0 84.421401375 153.51878375 81.75166225 153.24111 81.804743C152.97293875 81.856007125 152.5171175 83.43195725 152.72487 83.589582C152.84691 83.6821755 156.1296875 84.9660145 156.25 84.968201C156.3703125 84.97038725 158.0 85.760844625 158.0 85.817014C158.0 85.8731835 152.6453125 86.2469835 152.25 86.21841C151.463705 86.161576 151.22909 88.61389525 152.0 88.831533C152.41738875 88.94936725 153.02004875 89.899060625 152.68426 89.909816C152.4906775 89.916016 148.04799125 89.02568925 147.91359 88.95376C147.77918875 88.881830625 144.847875 88.594021375 144.76587 88.644703C144.6686125 88.70481175 146.294905 90.54278275 146.53654 90.645843L149.5 91.909796L146.0 92.030978L142.5 92.15216L145.67823 93.326082C145.89673375 93.406789125 149.55382625 95.208142375 149.60531 95.260421C149.72482375 95.38178 142.8101125 94.114124125 142.67149 93.989262C142.5691525 93.897082 132.22026 96.48593525 132.08 96.638803C132.040125 96.682262375 136.26236625 96.663889125 136.61395 96.619073C137.106615 96.556274125 142.86515 97.33751925 142.98639 97.483605C143.12213625 97.647169 140.79013625 99.105647625 140.37244 99.118421C140.10621 99.12656225 135.70353875 99.09388475 135.64474 99.083331C135.49829125 99.05704575 132.0 102.09157 132.0 102.24489C132.0 102.31394375 133.629155 102.03478125 133.75 101.94502C133.8703125 101.855655 132.989555 103.12937625 132.80422 103.31277C132.4880275 103.62565875 131.379205 108.41649875 131.54806 108.7402C131.7772875 109.17963625 131.7338325 112.4513725 131.49996 112.36163C131.396835 112.32205625 129.99996 112.84614125 129.99996 112.9244C129.99996 113.0026625 131.396835 114.5987975 131.49996 114.63837C131.603085 114.67794375 132.99996 116.01636375 132.99996 116.0756C132.99996 116.1348375 131.603085 116.4012025 131.49996 116.36163C131.28883375 116.2806125 130.77485625 118.6764 130.9455 118.94612C131.015385 119.05658125 130.9687425 122.05833 130.895 122.19612C130.8155375 122.344605 130.91189375 125.83537125 131.0 126.0C131.08226375 126.1537125 131.1720875 128.0 131.0973 128.0C130.9499825 128.0 131.0735525 133.45865125 131.22545 133.66097C131.28927 133.74597625 131.1657775 135.39752625 131.0922 135.443C131.023115 135.4856975 130.62102875 137.45487125 130.66043 137.55755C130.713935 137.69698125 132.43294375 138.05563 132.55645 137.95313C132.69011375 137.84219875 133.5380775 140.58372875 133.49972 141.00279C133.47361875 141.287935 132.13086875 146.34227625 132.05784 146.43027C131.9848125 146.51826375 129.746255 151.318875 129.65402 151.58529L128.31242 155.4604L132.40619 157.32891C132.91815125 157.5625825 150.3685575 160.17684 151.24997 160.15191C151.5077825 160.1446225 154.99997 160.955745 154.99997 161.02292C154.99997 161.09009375 155.6984075 161.88972125 155.74997 161.88158C156.0148125 161.8397625 158.99997 163.479385 158.99997 163.66667C158.99997 163.7812525 159.5932875 164.7400125 159.63709 164.69621C159.6808925 164.6524075 162.8512125 165.89408 163.04146 166.02955C163.24868625 166.1771075 169.55411125 168.0 169.85729 168.0C170.13562875 168.0 176.0449975 168.86679875 176.20292 168.93079C176.3608425 168.9947825 181.0956525 170.41812375 181.28728 170.45921C181.4789075 170.50029625 183.93881375 172.19443625 183.92879 172.27842C183.89063875 172.59807875 186.4614575 177.653155 186.6294 177.58871C186.80198375 177.5224825 191.325405 183.01156375 191.37463 183.34695C191.38927375 183.44672625 192.74355375 186.19103625 192.82889 186.29386C192.91422625 186.39668375 193.86803125 188.58594125 193.85311 188.64474C193.83818875 188.70353875 194.70889875 193.16314625 194.7881 193.43358C194.8673025 193.704015 195.20564375 198.360265 195.15142 198.43358C195.09719625 198.50689625 194.20345625 202.29375 194.1917 202.5C194.1799375 202.70625 193.1599275 212.01875 193.09638 212.5C192.97459625 213.422275 193.22233375 225.75237625 193.36918 226.07755C193.41815875 226.18600625 193.1056775 230.22197 193.03363 230.41147C192.9615825 230.60097 192.6620275 234.25375125 192.71196 234.33392C192.8243775 234.51440625 191.9348175 242.16699125 191.76271 242.5C191.69164625 242.6375 191.42439625 243.8532 191.47573 243.80545C191.62994875 243.6619975 196.99997 251.0854575 196.99997 251.4421C196.99997 251.63920375 199.42047 256.3387425 199.6147 256.51875C199.90101 256.7840925 207.247645 258.52594 207.8647 258.47478L213.49997 258.00757L209.49997 259.95357C209.218395 260.090555 203.40835625 261.38066375 203.24997 261.34137C202.63609375 261.1890775 194.3908475 266.823435 194.6393 267.22544C194.7771975 267.44856375 195.234485 273.644945 195.10725 273.56631C195.046165 273.52855625 192.71999625 275.304535 192.60935 275.4734C192.379695 275.8239 191.818275 278.61229375 191.99997 278.5C192.20089125 278.37582375 191.7061025 282.828925 191.49997 283.0C191.396845 283.08558625 189.99997 285.2064425 189.99997 285.27743C189.99997 285.3484175 191.86247 284.62443625 191.99997 284.5C192.30131 284.22729 192.63619 285.84947625 192.34498 286.17126C192.2312 286.29698625 191.5327625 287.966065 191.59498 287.96356C191.77670125 287.9562475 197.99997 279.09053375 197.99997 278.83897C197.99997 278.47893625 199.8592025 273.19768875 200.10989 272.84563C200.2398325 272.6631425 201.99997 269.170955 201.99997 269.09563C201.99997 268.9081975 204.25998875 269.05743625 204.33769 269.25C204.37236625 269.3359375 204.9155925 268.31750375 204.92102 268.15638C204.9298325 267.89467 209.3460075 264.89931 209.60962 264.97624C209.65545875 264.9896175 211.02828 263.95418875 211.08379 263.86437C211.13930125 263.77455125 212.61333 263.28002125 212.66664 263.33333C212.71994875 263.38664 212.181165 264.88802 212.08808 264.94555C211.947005 265.03273875 212.0532925 267.6657475 212.20673 267.88481C212.30797375 268.029355 214.218815 269.44781625 214.25864 269.40799C214.39912 269.26751 216.612645 275.407075 216.5342 275.71962C216.47081125 275.97218375 217.2945625 277.71719875 217.44917 277.65787C217.59108 277.60341375 218.99997 279.24059875 218.99997 279.45996C218.99997 279.62476625 220.23055125 283.0877225 220.3214 283.17857C220.4122475 283.26941875 221.73152125 285.27603875 221.73807 285.33333C221.7591225 285.51754375 222.99997 286.1685775 222.99997 285.99541C222.99997 285.9034275 221.725545 283.18727875 221.63146 283.07874C221.537375 282.97020125 219.771055 277.5986025 219.73474 277.31058C219.67001375 276.79721375 221.6596225 273.431615 222.0022 273.47497C222.35093 273.51910375 223.86645 270.57593875 223.66283 270.25C223.60914375 270.1640625 223.54637875 267.9248625 223.59543 267.84549C223.6484325 267.75973125 223.31099875 267.30775875 223.23092 267.35725C223.07336375 267.45462875 218.0 260.83571 218.0 260.53277C218.0 260.23653625 224.038285 261.39903375 224.32258 261.75C224.4478825 261.9046875 227.474445 264.0 227.57258 264.0C227.670715 264.0 228.808535 264.6984375 228.7944 264.75C228.76271625 264.86557625 232.4925925 272.0 232.5847 272.0C232.62136625 272.0 232.54249 271.06875 232.5 271.0C232.45751 270.93125 233.04615875 270.0 233.13211 270.0C233.23705125 270.0 232.96109875 268.85492875 232.83087 268.75C232.467585 268.45729125 232.71206625 263.4147875 233.09658 263.26965C233.3170825 263.18641875 236.52593125 263.04195125 236.57001 263.11327C236.6097925 263.17764 236.3810025 263.91620375 236.32433 263.90636C236.06517375 263.86134 235.748895 265.748895 235.97732 265.97732C236.128285 266.128285 239.50953375 267.35797 239.63806 267.30865C239.80378125 267.24505625 240.833665 268.52805375 240.7804 268.73174C240.73082625 268.92131 243.08285875 272.8816825 243.36966 273.09156C243.58487125 273.2490475 245.438505 274.04022875 245.36014 273.94115C245.20472625 273.7446575 244.8202675 267.0 244.96448 267.0C245.01360125 267.0 246.7397375 269.328125 246.81805 269.5C246.89636125 269.671875 249.25993875 272.0 249.35612 272.0C249.4523 272.0 251.91441375 273.396875 252.0 273.5C252.24769375 273.7984525 254.48107 271.97061 254.44373 271.5C254.4190925 271.18950375 255.45730375 268.0 255.58301 268.0C255.6804275 268.0 257.0 269.2828525 257.0 269.37756C257.0 269.47226625 258.33701375 271.86473125 258.43572 271.94665C258.53442625 272.02856875 260.514245 276.06483875 260.5617 276.2809C260.6641175 276.747205 268.14322 288.73021625 268.49567 288.9927C268.6334675 289.0953225 273.0609375 290.7083775 273.25 290.72484C273.921665 290.7833225 280.0 291.85103875 280.0 291.91054C280.0 292.0839425 272.85211875 300.811555 272.59928 300.94687C272.34331 301.08386 266.60067875 299.7788125 266.15153 299.48158C265.644795 299.14623875 252.37569 297.275055 251.24372 297.37931C251.01985125 297.39992875 247.4168075 298.24986125 247.37468 298.29199C247.33255125 298.3341175 245.37012875 297.51298375 245.26738 297.41024C245.14837375 297.29123375 240.9208475 296.3651925 240.6741 296.40408C240.46106 296.43765625 236.3761975 295.8971925 236.28767 295.82378C236.17265125 295.7283225 235.0 295.77731625 235.0 295.87758C235.0 296.1188075 231.6534175 294.87451375 231.44445 294.55559C231.1582575 294.118805 230.6153525 283.5393325 230.86959 283.35343C230.981465 283.271625 232.03269625 281.85458875 231.99843 281.83178C231.9641625 281.80897125 228.81267375 279.171895 228.61428 279.00002L225.72857 276.50002L227.06619 279.00002C227.28189 279.40316 228.00480125 284.00002 227.8525 284.00002C227.78528875 284.00002 227.628765 285.163455 227.68433 285.25002C227.7394925 285.3359575 228.589435 288.36252 228.59702 288.50002C228.6046075 288.63752 229.31851125 292.828145 229.36363 293.00002C229.40874875 293.171895 229.1588575 296.82326125 229.09529 296.92095C228.99762125 297.07104625 225.63484625 296.6471075 225.33534 296.44694C225.14041 296.3166625 221.87916375 294.5277975 221.83333 294.52601C221.7874975 294.5242225 220.4682325 293.8015825 220.41667 293.75002C220.3651075 293.6984575 216.0968725 293.00002 215.83333 293.00002C215.4907375 293.0000175 212.0 291.6340575 212.0 291.5C212.0 291.33089125 209.0078375 289.84086875 208.75 289.88158C208.6984375 289.8897175 208.0 288.96779375 208.0 288.89159C208.0 288.80442 210.5337275 288.3717325 210.75 288.42197C210.9390625 288.46588625 212.402875 288.320435 212.32188 288.26578C212.24088375 288.21112625 211.30963375 286.08753125 211.32188 285.98541C211.33413 285.8832875 210.56875 284.2108 210.5 284.18945C210.43125 284.1681 207.4046875 281.91046125 207.25 281.76514C207.0953125 281.61981875 204.92436375 280.5121425 204.91878 280.57569C204.9131925 280.63923625 203.55833 278.70625 203.46389 278.5C203.348955 278.24899375 202.04887375 277.15766125 202.0451 277.30902C202.042 277.43339 201.06875 278.54249 201.0 278.5C200.8457425 278.40466375 200.7737275 280.67392 200.9235 280.91052C200.99235875 281.019295 200.7475075 284.13925 200.65819 284.29118C200.54640625 284.48132125 200.62934625 286.6703 200.74999 286.71399C200.8359275 286.74511125 201.99999 288.837975 201.99999 288.96136C201.99999 289.084745 204.0953025 292.21719125 204.24999 292.32506C204.51445125 292.5094775 199.882595 293.57372625 199.0012 293.53106C198.48565875 293.50610375 190.57003375 293.91958875 190.5012 293.97507C190.3799625 294.0727925 174.1930525 296.00707125 173.74999 295.97678C172.97479125 295.9237825 158.905295 296.1763 158.59332 296.24881C158.1966625 296.34100125 154.70493375 295.1823525 154.94056 295.03673C155.042085 294.97398375 154.50837375 293.03591875 154.35537 292.91173C154.2357925 292.81467375 153.19217 292.464645 153.2347 292.53586C153.28177875 292.61469125 147.7901875 294.72188 147.29076 294.81662C146.47173625 294.9719875 140.68140375 294.180735 141.02895 293.96094C141.1845225 293.86255375 140.9857675 293.01693 140.80669 293.01531C140.69027625 293.01431 137.75389625 294.9409575 137.65353 295.08425C137.4856775 295.3238925 135.34541125 295.65274875 135.23521 295.45583C135.09950875 295.21334625 132.7279725 297.9611275 132.60787 298.5C132.5612825 298.7090275 132.7079575 300.3568175 132.76553 300.2712C132.842485 300.1567575 135.16456125 300.87923 135.32608 301.06787C135.44531 301.20712125 136.54596375 303.92561625 136.50799 303.98706C136.47001625 304.0485025 137.88741625 306.680495 138.03003 306.81336C138.26400375 307.03133875 138.61091125 309.31906 138.42104 309.39192C138.22795125 309.466015 138.40305375 311.5703925 138.61883 311.76895C138.74816 311.88796 140.60121625 314.43125 140.60869 314.5C140.64475375 314.83179375 143.29584625 320.0 143.42998 320.0C143.51225375 320.0 145.878915 323.19142125 145.97136 323.42703C146.063805 323.66263875 150.87185875 329.48295125 151.13437 329.67703C151.39688125 329.87110875 154.974725 334.02652375 154.97635 334.13922C154.977975 334.251915 156.8315075 337.976915 156.96672 338.13922L158.93345 340.5L158.96675 337.05887C158.9706625 336.65355875 160.29528875 335.330235 160.46822 335.55887C160.6394425 335.7852475 161.96451 335.90195 161.96822 335.69098C161.9704075 335.56661 162.933785 334.459065 163.00272 334.50167C163.078685 334.54861875 163.19817 336.68270875 163.132 336.81069C163.0532625 336.9629775 164.41557625 340.7554975 164.62929 340.97897C164.81817 341.1764725 167.00002 342.1734925 167.00002 342.0623C167.00002 341.96635 167.6984575 341.371645 167.75002 341.42369C167.8015825 341.475735 168.50002 344.10963625 168.50002 344.25204C168.50002 344.39444375 169.7618075 346.74860625 169.85496 346.78C169.97751375 346.82130125 170.59838125 345.30991125 170.53757 345.11831C170.37818 344.6161175 173.21427625 346.93881375 173.4457 347.5C173.57328 347.809375 176.1907075 352.0 176.25636 352.0C176.3220125 352.0 179.9781275 354.328125 180.18239 354.5C180.6527875 354.89581375 184.8450925 355.3813 184.50002 355.0C184.217895 354.688255 186.71557 354.50632125 187.11516 354.80951C187.54998625 355.1394325 213.7425525 359.1229325 214.50002 358.97434C214.56877 358.9608525 221.553145 358.95144875 222.00002 358.96424C222.58145375 358.98088875 232.82512625 357.29315 233.25002 357.1107C233.84113875 356.8568725 236.5509275 357.42385 236.09814 357.70662C235.468815 358.09964 205.13959875 362.10599375 202.74258 362.11274C201.41965375 362.116465 182.103145 361.85635625 182.00002 361.83343C181.62242125 361.74948625 185.25053625 370.70434 185.67191 370.89633C185.84205375 370.97385375 187.459745 373.2443275 187.41952 373.34915C187.3812075 373.44899125 189.3633225 376.71378125 189.55268 376.86273C189.75027 377.018155 191.706055 380.32364875 191.6645 380.43194C191.6215275 380.543925 192.90213625 382.46890625 193.05105 382.51617C193.18504125 382.55869625 195.00002 383.97401125 195.00002 384.03597C195.00002 384.09793 193.44147125 384.3391325 193.32641 384.29498C193.16710125 384.2338475 192.24193125 385.18798875 192.30391 385.3495C192.37107125 385.52452 191.28885125 386.1545475 191.09722 386.05199C190.9211175 385.9577425 187.182155 386.842005 186.96672 387.02885C186.81047 387.164365 184.6036775 388.94093875 184.59701 388.93658C184.5903475 388.9322175 182.63752 388.08150625 182.50002 388.02306Z"
     id="path9272"
     inkscape:connector-curvature="0"
     sodipodi:nodetypes="ccsssssssssssscsssssssssssssscccssscsssssssssccssssssssssssssssssssscccssssscsssssssssssssssscsssssssccssssssscssssssscsssssssscsssssssssssssscsscssssssssssssssssssssssssssssssssssssssssssscssssssssscsssssscsscssccsssssscsssssscsscssssssssssssscscsssscscssssscssssssssssssssscssssscsssscssssssssssssssssssssssscccsssssssssssscssssscssssssssscscssssssssssssssscssscssssscssscsssssscsssscsscsscsssscsssssccsssssssssccssssssssssssssssssssccscssscscssscssssssscssccsscssscssssscssssssscssssssssscsssssccsssssssssssssssccssssssssssssssccc" />
  <path
     style="fill:#000000"
     d="M178.60417 362.27083C178.477105 362.14376625 177.47869625 363.96552375 177.58295 364.13421C177.66170375 364.2616375 178.74491 364.26523625 178.78725 364.13821C178.8162 364.05136125 178.64570625 362.31232625 178.60417 362.27079Z"
     id="path9270" />
  <path
     style="fill:#000000"
     d="M156.4322 347.5C156.24866625 347.259375 153.0792775 344.0 153.02883 344.0C152.97838125 344.0 147.74835125 338.1796875 147.41269 337.75C146.61213875 336.725195 136.3032625 325.3634075 136.23548 325.43119C136.205405 325.461265 138.2201925 329.0442675 138.39901 329.27871C138.57782875 329.5131525 141.0 333.73571875 141.0 333.81301C141.0 333.8903 142.18521125 334.4824175 142.27271 334.44884C142.36021 334.41526375 145.11143875 336.611505 145.22705 336.80722C145.40549875 337.10931 158.68861375 350.99341125 158.80089 350.9952C158.82157625 350.995575 156.61573375 347.740625 156.4322 347.5Z"
     id="path9268" />
  <path
     style="fill:#000000"
     d="M135.83236 315.94895C135.7592375 315.73919125 134.38475 313.28192 134.3564 313.31027C134.29449875 313.37217125 136.3388425 319.0 136.42323 319.0C136.45573 319.0 135.90546875 316.15871 135.83236 315.94895Z"
     id="path9266" />
  <path
     style="fill:#000000"
     d="M131.34508 306.45687C131.30436875 306.35078 130.309095 305.35757375 130.27633 305.39034C130.24356375 305.42310625 130.41356375 306.86014625 130.45888 306.93347C130.58213625 307.1329025 131.4296025 306.67713375 131.34508 306.45687Z"
     id="path9264" />
  <path
     style="fill:#000000"
     d="M274.5 292.0C274.45751 291.93125 272.95072 291.0 272.88197 291.0C272.81322 291.0 272.45751 291.93125 272.5 292.0C272.54249 292.06875 274.04928 293.0 274.11803 293.0C274.18678 293.0 274.54249 292.06875 274.5 292.0Z"
     id="path9262" />
  <path
     style="fill:#000000"
     d="M233.96013 285.45196C233.877285 285.3521375 231.93789125 284.0 231.87756 284.0C231.69682875 284.0 232.5165625 288.02301 232.75 288.28168C232.9445075 288.49721375 234.795615 288.74672375 234.83258 288.56239C234.85544375 288.44837 234.042975 285.5517825 233.96013 285.45196Z"
     id="path9260" />
  <path
     style="fill:#000000"
     d="M262.5 287.0C262.2029925 286.67181 261.3366125 287.53818875 261.625 287.875C261.746565 288.0169775 263.825245 289.508085 263.85714 289.47619C263.889035 289.444295 262.62519875 287.1383425 262.5 287.0Z"
     id="path9258" />
  <path
     style="fill:#000000"
     d="M222.0 288.65499C222.0 288.63127 220.1375 286.62443625 220.0 286.5C219.70542875 286.23341625 219.2856975 287.1428375 219.57143 287.42857C219.75909125 287.61623125 222.0 288.7478825 222.0 288.65499Z"
     id="path9256" />
  <path
     style="fill:#f2f2f2"
     d="M135.44971 286.91862C135.39984125 286.83793125 136.501955 286.019115 136.64069 286.03378C137.0709325 286.07925625 142.0 285.07418 142.0 284.94098C142.0 284.8681725 140.9248625 284.546435 140.84549 284.59549C140.75492125 284.651465 140.36364 284.22063875 140.4209 284.12799C140.47108125 284.04679375 142.24465625 283.08199125 142.32541 283.09196C142.63654125 283.13036875 145.5741225 282.1199325 145.5 282.0C145.45751 281.93125 145.96912875 281.0 146.04939 281.0C146.14376 281.0 146.62280125 278.63326375 146.57056 278.42512C146.50796875 278.1757375 148.66792625 272.72542125 148.96215 272.39032C149.1710025 272.15245125 152.0 267.976605 152.0 267.90619C152.0 267.835775 152.86690125 267.41773625 152.9309 267.45729C152.9949 267.496845 154.481175 267.03046 154.5269 266.95647C154.58083625 266.86920125 156.3418825 267.45287125 156.44336 267.59165C156.56671875 267.76035375 158.4223 268.12572625 158.50187 267.99698C158.5685575 267.8890775 158.24989625 267.3455575 158.15451 267.40451C157.8367425 267.6009 159.85433625 262.78219375 160.23437 262.43709C160.4567325 262.235165 161.8536075 261.43582625 161.73437 261.57874C161.480475 261.8830475 160.9548325 265.4451675 161.2 265.2C161.4528175 264.9471825 163.09833625 266.388645 162.96942 266.75C162.854655 267.07169 163.31802125 267.78594 163.49417 267.55887C163.59769625 267.4254175 165.0 264.398855 165.0 264.30887C165.0 264.218885 166.1640625 262.99426375 166.25 262.99384C166.3359375 262.993465 170.0609375 261.651765 170.25 261.55314C170.59113 261.37519 171.97045625 262.5086725 171.64598 262.70031C171.5528925 262.75528875 169.08927 265.828125 169.00048 266.0C168.8411375 266.30844625 169.50275 266.90880875 169.75521 266.68486C170.0054225 266.462905 172.70435375 267.66935375 172.54271 267.9309C172.503155 267.9949 173.05770125 269.5356625 173.1382 269.58541C173.2263125 269.63986625 173.688295 269.30466625 173.63778 269.22293C173.5916325 269.14826125 174.94675875 266.74984625 175.09295 266.64745C175.23914 266.545055 176.77742625 263.92040125 176.7448 263.82903C176.6489625 263.56062375 179.9138625 259.0 180.20185 259.0C180.34839 259.0 181.6348925 259.6984375 181.58333 259.75C181.5317675 259.8015625 179.83565375 260.5 179.762 260.5C179.688345 260.5 178.46093875 262.0652075 178.44398 262.18076C178.4231 262.323025 179.58651875 263.328425 179.71498 263.27913C179.87534125 263.21759375 180.161825 264.697625 180.03531 264.93402C179.9529925 265.0878325 179.379035 267.712365 179.41898 267.75231C179.5354225 267.86875375 181.37511375 264.76135875 181.41583 264.37946C181.43942625 264.1581475 183.46207625 261.05972125 183.60936 261.01927C184.11599875 260.88012 180.902045 252.04940625 180.33889 252.03327C180.259065 252.0309825 176.76702625 249.1349725 176.58905 248.92346C176.25426 248.525585 175.88365 238.18407 176.17038 237.24086C176.238495 237.01679375 178.371485 232.771365 178.46084 232.68201C178.65147875 232.4913725 184.86424375 219.68201875 184.85435 219.5C184.8506125 219.43125 183.941415 218.73963 183.87803 218.75732C183.7348675 218.7972775 181.45512 213.07260875 181.55186 212.91608C181.67543125 212.7161375 184.0 213.689305 184.0 213.94098C184.0 214.0744225 184.93125 216.45751 185.0 216.5C185.06875 216.54249 186.0 216.20010625 186.0 216.13234C186.0 216.06457375 187.48571625 214.84554875 187.5954 214.82332C187.76559125 214.78883 187.22764875 212.00973375 186.99322 211.71236C186.7610725 211.4178825 183.40003 210.0763375 183.23519 210.21236C183.0797125 210.3406575 181.294095 210.36892875 181.25197 210.24376C181.2229025 210.15739375 179.9774675 209.51391875 179.91459 209.55278C179.8517125 209.59164125 179.0 208.55217125 179.0 208.43657C179.0 208.2613475 180.38165 207.90177625 180.54238 208.03517C180.86279125 208.3010875 182.24074875 205.7178775 181.92899 205.43574C181.666605 205.198285 177.77854 205.8812825 177.49123 206.2153C177.25629875 206.48842375 174.17291875 207.70835625 174.06035 207.57272C173.9555325 207.4464225 174.330605 205.70338 174.47448 205.64817C174.57935875 205.60792375 176.0 204.13152 176.0 204.06277C176.0 203.99402 174.69732125 203.562655 174.60115 203.59956C174.50497875 203.63646375 172.57326 203.118545 172.52682 203.0434C172.48038125 202.96825875 172.6189975 202.1702525 172.67567 202.18648C172.7323425 202.2027075 176.62738875 201.76328125 176.85827 201.71461C177.15463 201.6521375 179.708385 199.6824425 179.6592 199.55427C179.6125825 199.43278625 180.42972625 198.61140875 180.55093 198.65792C180.65055375 198.69614875 182.0 198.12813875 182.0 198.04797C182.0 197.9678075 181.3015625 197.29321 181.25 197.32357C181.0898 197.41789625 176.4093325 195.1467075 176.49114 195.01434C176.5771325 194.8752 171.01358125 187.0 170.82929 187.0C170.76512375 187.0 168.93532 189.75569875 168.8644 189.95914C168.7208025 190.37106375 160.52298875 193.83809375 159.64642 193.85762C159.16144375 193.86842 153.11586 191.9559825 152.92969 191.73287C152.80159875 191.57936 151.0355575 188.3359375 151.03327 188.25C151.028295 188.06311875 146.2621825 187.85888625 146.0 188.03432C145.83624 188.14389625 146.07442 190.244135 146.26737 190.39195C146.6457525 190.68182 142.893975 194.393355 142.23984 194.37628C141.831875 194.36563 135.32040875 195.965005 135.11514 196.12628C134.95118125 196.2550975 131.8802725 198.0 131.81752 198.0C131.7547675 198.0 126.24851 202.65625 125.90476 203.0C125.56101 203.34375 121.4474925 208.0 121.48756 208.0C121.52762875 208.0 121.09335875 209.8255575 121.02123 209.96033C120.9353475 210.12080375 120.81037875 215.65156375 120.88512 215.98421C120.99498 216.473165 119.26828625 226.6677975 119.09374 226.56075C119.05292125 226.535715 118.4088025 229.13162125 118.40207 229.3483L118.30417 232.5L119.62374 229.32655C119.71446 229.108375 121.99388125 225.503805 122.07144 225.45587C122.17132125 225.39414 122.12337625 226.7696325 122.01884 226.96497C121.73603125 227.4934025 124.5819575 225.8884975 124.98268 225.29357C125.24095875 224.91012 127.548255 222.80001875 127.49059 223.0C127.36752875 223.42678125 127.26595875 228.44694625 127.37396 228.76452C127.42690625 228.92020625 129.0400175 230.47531875 129.10616 230.43444C129.1763075 230.3910875 129.6345025 232.2318025 129.60039 232.41992C129.568225 232.5973 130.0021075 235.0 130.06631 235.0C130.1305075 235.0 131.00009 236.8625 131.00009 237.0C131.00009 237.1375 130.0138775 239.0 129.94107 239.0C129.8682625 239.0 129.48280875 239.97203875 129.52716 240.0438C129.57151125 240.1155625 129.15169375 242.317335 129.07635 242.40812C129.001005 242.49890375 127.88483625 250.100335 127.87778 250.57073C127.866355 251.3323875 126.5420675 255.72652375 126.38761 255.51529C126.2458225 255.32139875 125.0 255.0400125 125.0 255.20188C125.0 255.31079 126.396875 257.32205625 126.5 257.36163C126.70729 257.44117375 127.198715 262.0 127.0 262.0C126.93125 262.0 126.02961375 263.6296875 126.0318 263.75C126.0355875 263.95833375 127.23390625 263.95833375 127.39205 263.75C127.59557875 263.4818825 131.0 263.24598625 131.0 263.5C131.0 263.603125 130.17736125 265.0 130.11663 265.0C130.00938375 265.0 127.86462125 270.061175 127.89185 270.25C127.8992875 270.3015625 127.06875 271.0 127.0 271.0C126.93125 271.0 126.0 272.8332775 126.0 272.96862C126.0 273.150035 127.58873125 274.35786125 127.75 274.29905C127.95833375 274.22307625 127.95833375 275.42128625 127.75 275.65918C127.51134875 275.9316925 126.80079 278.62311875 127.0 278.5C127.11289375 278.4302275 127.93520125 280.485995 127.9 280.75C127.893125 280.8015625 126.961875 281.2671875 126.9 281.25C126.75170875 281.2088075 127.06392 283.8001975 127.25 284.15504C127.33956125 284.32582625 130.038055 286.23724625 130.15676 286.21398C130.2706625 286.19165625 132.4209375 286.87207375 132.46578 286.94463C132.5106225 287.01718625 134.514905 288.0 134.61803 288.0C134.721155 288.0 135.4956575 286.992965 135.44971 286.91862Z"
     id="path9254" />
  <path
     style="fill:#000000"
     d="M173.5 265.0C173.54249 264.93125 174.5287025 264.0 174.55902 264.0C174.5893375 264.0 175.0 264.93125 175.0 265.0C175.0 265.06875 174.0137875 266.0 173.94098 266.0C173.8681725 266.0 173.45751 265.06875 173.5 265.0Z"
     id="path9252" />
  <path
     style="fill:#000000"
     d="M157.5 261.0C157.54249 260.93125 159.04928 260.0 159.11803 260.0C159.18678 260.0 159.54249 260.93125 159.5 261.0C159.45751 261.06875 157.95072 262.0 157.88197 262.0C157.81322 262.0 157.45751 261.06875 157.5 261.0Z"
     id="path9250" />
  <path
     style="fill:#000000"
     d="M157.0 258.05902C157.0 257.9943275 157.9205875 256.5490825 157.98855 256.50708C158.0594075 256.4632875 158.42424625 257.336825 158.38156 257.44806C158.29846125 257.6646125 157.0 258.23882375 157.0 258.05902Z"
     id="path9248" />
  <path
     style="fill:#000000"
     d="M179.0 212.0C179.0 211.93125 179.93125 211.0 180.0 211.0C180.06875 211.0 181.0 211.93125 181.0 212.0C181.0 212.06875 180.06875 213.0 180.0 213.0C179.93125 213.0 179.0 212.06875 179.0 212.0Z"
     id="path9246" />
  <path
     style="fill:#000000"
     d="M200.0 282.6422C200.0 282.4833825 198.26251625 284.61737125 198.08029 285.0C197.93995875 285.29465875 198.26153375 285.78765875 198.44483 285.55887C198.55174875 285.4254175 200.0 282.70926875 200.0 282.6422Z"
     id="path9244" />
  <path
     style="fill:#000000"
     d="M250.16065 281.32863C249.9481925 281.16235625 246.7150975 279.1847725 246.68887 279.20505C246.66264375 279.2253275 244.76048125 278.21617875 244.64628 278.1214C244.45415 277.96194625 244.31278 279.28845 244.48642 279.6214C244.58963125 279.81930375 246.00767375 283.896875 246.00915 284.0C246.0114875 284.1636775 246.85690375 284.1935225 246.95811 284.0335C247.031885 283.9168525 246.8866275 281.36334875 246.8003 281.25933C246.725685 281.16942625 246.21928125 279.44734 246.25651 279.41011C246.29373875 279.37288125 249.41582 282.30070375 249.60908 282.55408C249.8139475 282.82267625 252.805265 285.08416375 252.83554 284.99334C252.8641 284.90766125 250.37310875 281.4948625 250.16065 281.32859Z"
     id="path9242" />
  <path
     style="fill:#000000"
     d="M239.36163 283.5C239.32205625 283.396875 238.42003 282.0 238.39301 282.0C238.36599125 282.0 238.0 283.396875 238.0 283.5C238.0 283.603125 238.9020275 285.0 238.96862 285.0C239.03521125 285.0 239.4012025 283.603125 239.36163 283.5Z"
     id="path9240" />
  <path
     style="fill:#000000"
     d="M227.33541 281.66566C227.415475 281.71228125 226.6474275 280.08839625 226.51066 279.92189C226.3738925 279.755385 224.4112825 277.24468 224.40316 277.22583C224.395035 277.20698125 223.08933125 278.39236875 223.00106 278.49873C222.8658725 278.66162 223.18573125 279.48222125 223.35856 279.4159C223.51179125 279.3571 225.07158 280.92298375 225.07895 281.14301C225.084375 281.30505375 225.62954 282.33013625 225.66436 282.24377C225.69917875 282.15740375 227.255345 281.61904 227.33541 281.66566Z"
     id="path9238" />
  <path
     style="fill:#000000"
     d="M257.81805 280.5C257.7397375 280.328125 255.84224125 278.0 255.78047 278.0C255.6688 278.0 257.0472275 281.45143 257.27814 281.75C257.47078125 281.99908375 257.9721725 280.8382625 257.81805 280.5Z"
     id="path9236" />
  <path
     style="fill:#000000"
     d="M191.5 281.0C191.54249 280.93125 191.18678 280.0 191.11803 280.0C191.04928 280.0 189.54249 280.93125 189.5 281.0C189.45751 281.06875 189.81322 282.0 189.88197 282.0C189.95072 282.0 191.45751 281.06875 191.5 281.0Z"
     id="path9234" />
  <path
     style="fill:#000000"
     d="M153.12756 279.25C153.28304375 279.0517425 152.9482575 278.71695625 152.75 278.87244C152.6296875 278.96679625 151.0 280.59648375 151.0 280.62244C151.0 280.72532 152.96426375 279.45821875 153.12756 279.25Z"
     id="path9232" />
  <path
     style="fill:#000000"
     d="M169.0 274.38519C169.0 274.24164875 165.67762 275.39771875 165.61405 275.56338C165.572805 275.6708625 164.18181625 276.61236625 164.12037 276.57439C164.05892375 276.536415 161.9570375 277.587405 161.86331 277.70297C161.71658875 277.88387625 161.8385675 278.56842875 162.0 278.47008C162.3336725 278.2667975 166.03414 279.062385 166.03914 279.33848C166.0429775 279.5507 167.39571125 278.46555125 167.53914 278.13519C167.63957375 277.90385875 169.0 274.41167125 169.0 274.38519Z"
     id="path9230" />
  <path
     style="fill:#000000"
     d="M237.28654 276.4747C237.04186875 275.96161875 235.9206775 276.09445625 236.1335 276.61131C236.21527625 276.8099075 237.14950625 280.2676575 237.1367 280.32433C237.123895 280.3810025 237.87289 280.5785575 237.94099 280.53647C238.01808375 280.48882375 237.41456875 276.7431775 237.28654 276.4747Z"
     id="path9228" />
  <path
     style="fill:#000000"
     d="M179.85676 277.89031C179.5929925 277.72317875 178.03195875 278.20179875 178.21057 278.39504C178.29921875 278.49094875 180.2978575 279.3057925 180.35676 279.27004C180.4156625 279.2342875 179.9500375 277.94941375 179.85676 277.89031Z"
     id="path9226" />
  <path
     style="fill:#000000"
     d="M210.18333 277.78333C210.093635 277.693635 209.0 277.555005 209.0 277.63333C209.0 277.8001775 210.76657625 279.56675375 210.85 279.48333C210.88552125 279.44781 210.26468875 277.864685 210.18333 277.78333Z"
     id="path9224" />
  <path
     style="fill:#000000"
     d="M188.0 278.0C188.0 277.93125 187.5893375 277.0 187.55902 277.0C187.5287025 277.0 186.54249 277.93125 186.5 278.0C186.45751 278.06875 186.8681725 279.0 186.94098 279.0C187.0137875 279.0 188.0 278.06875 188.0 278.0Z"
     id="path9222" />
  <path
     style="fill:#000000"
     d="M208.92971 272.75C208.9406725 272.3209325 211.84209625 272.08468375 212.0 272.5C212.14096625 272.8707675 214.3840425 273.36057625 214.28975 273.0C214.2537925 272.8625 212.94410125 271.0 212.88337 271.0C212.82263875 271.0 212.0 269.603125 212.0 269.5C212.0 269.396875 211.06875 268.0 211.0 268.0C210.93125 268.0 210.0 266.44791375 210.0 266.33333C210.0 266.04529625 208.44505125 267.8685125 208.39328 268.21725C208.24089375 269.24373 207.802435 277.7360325 207.91401 277.5C207.9790075 277.3625 208.92487875 272.9390625 208.92971 272.75Z"
     id="path9220" />
  <path
     style="fill:#000000"
     d="M157.38156 275.44806C157.42424625 275.33682 157.0594075 274.4632875 156.98855 274.50708C156.9205875 274.5490825 156.0 275.9943275 156.0 276.05902C156.0 276.23882375 157.29846125 275.6646125 157.38156 275.44806Z"
     id="path9218" />
  <path
     style="fill:#000000"
     d="M239.6 274.4C239.55551375 274.28407 238.487295 273.179365 238.45292 273.21374C238.418545 273.248115 238.55551375 275.28407 238.6 275.4C238.64448625 275.51593 239.712705 276.620635 239.74708 276.58626C239.781455 276.551885 239.64448625 274.51593 239.6 274.4Z"
     id="path9216" />
  <path
     style="fill:#000000"
     d="M171.96752 274.06069C172.04098625 273.9234175 172.1799325 271.61120375 172.11705 271.57234C172.05597625 271.53459375 170.7857225 273.34057625 170.75302 273.51165C170.6815925 273.8853 171.79259 274.38754875 171.96752 274.06069Z"
     id="path9214" />
  <path
     style="fill:#000000"
     d="M181.53895 273.95697C181.72882 273.747165 181.937265 272.470575 181.77125 272.53428C181.6601075 272.57693 179.64623375 274.47951 179.6087 274.57732C179.51531125 274.82068875 181.26667375 274.25783 181.53895 273.95697Z"
     id="path9212" />
  <path
     style="fill:#000000"
     d="M227.18333 272.78333C227.093635 272.693635 226.0 272.555005 226.0 272.63333C226.0 272.8001775 227.76657625 274.56675375 227.85 274.48333C227.88552125 274.44781 227.26468875 272.864685 227.18333 272.78333Z"
     id="path9210" />
  <path
     style="fill:#000000"
     d="M257.97994 273.47583C257.892975 273.37104375 256.176235 272.490435 256.13646 272.53021C256.096685 272.56998375 256.9278225 273.97510125 257.02896 274.03906C257.29358125 274.20641125 258.160265 273.6931075 257.97994 273.47583Z"
     id="path9208" />
  <path
     style="fill:#000000"
     d="M177.0 269.31854C177.0 269.0670925 174.78115 270.72888125 174.69938 271.04157C174.64375 271.25430125 175.432795 272.055775 175.57867 271.93471C175.67638625 271.8536125 177.0 269.41730375 177.0 269.31854Z"
     id="path9206" />
  <path
     style="fill:#000000"
     d="M195.0 271.55902C195.0 271.5287025 194.06875 270.54249 194.0 270.5C193.93125 270.45751 193.0 270.8681725 193.0 270.94098C193.0 271.0137875 193.93125 272.0 194.0 272.0C194.06875 272.0 195.0 271.5893375 195.0 271.55902Z"
     id="path9204" />
  <path
     style="fill:#000000"
     d="M238.5 270.0C238.45751 269.93125 236.95072 269.0 236.88197 269.0C236.81322 269.0 236.45751 269.93125 236.5 270.0C236.54249 270.06875 238.04928 271.0 238.11803 271.0C238.18678 271.0 238.54249 270.06875 238.5 270.0Z"
     id="path9202" />
  <path
     style="fill:#000000"
     d="M189.0 269.0C189.0 268.93125 188.5893375 268.0 188.55902 268.0C188.5287025 268.0 187.54249 268.93125 187.5 269.0C187.45751 269.06875 187.8681725 270.0 187.94098 270.0C188.0137875 270.0 189.0 269.06875 189.0 269.0Z"
     id="path9200" />
  <path
     style="fill:#000000"
     d="M227.72757 268.03571C227.6477075 267.93013 226.4206925 266.23025375 226.40997 266.21034C226.399245 266.190425 225.8094775 267.620555 225.77666 267.74605C225.73526 267.90436125 226.938585 269.57143 227.09426 269.57143C227.27571875 269.57143 227.845005 268.1909625 227.72757 268.03571Z"
     id="path9198" />
  <path
     style="fill:#000000"
     d="M166.38156 267.44806C166.42424625 267.33682 166.0594075 266.4632875 165.98855 266.50708C165.9205875 266.5490825 165.0 267.9943275 165.0 268.05902C165.0 268.23882375 166.29846125 267.6646125 166.38156 267.44806Z"
     id="path9196" />
  <path
     style="fill:#000000"
     d="M235.5 267.0C235.45751 266.93125 233.307235 266.0142575 233.19098 266.01531C233.00882125 266.01696 232.83841375 266.895575 233.0 267.0C233.24479625 267.1582 235.5977725 267.1582 235.5 267.0Z"
     id="path9194" />
  <path
     style="fill:#000000"
     d="M190.5 266.0C190.54249 265.93125 190.1318275 265.0 190.05902 265.0C189.9862125 265.0 189.0 265.93125 189.0 266.0C189.0 266.06875 189.4106625 267.0 189.44098 267.0C189.4712975 267.0 190.45751 266.06875 190.5 266.0Z"
     id="path9192" />
  <path
     style="fill:#000000"
     d="M224.5 264.0C224.45751 263.93125 222.95072 263.0 222.88197 263.0C222.81322 263.0 222.45751 263.93125 222.5 264.0C222.54249 264.06875 224.04928 265.0 224.11803 265.0C224.18678 265.0 224.54249 264.06875 224.5 264.0Z"
     id="path9190" />
  <path
     style="fill:#000000"
     d="M194.36163 262.5C194.4012025 262.396875 194.03521125 261.0 193.96862 261.0C193.9020275 261.0 193.0 262.396875 193.0 262.5C193.0 262.603125 193.36599125 264.0 193.39301 264.0C193.42003 264.0 194.32205625 262.603125 194.36163 262.5Z"
     id="path9188" />
  <path
     style="fill:#000000"
     d="M192.0 262.0C192.0 261.93125 191.06875 261.0 191.0 261.0C190.93125 261.0 190.0 261.93125 190.0 262.0C190.0 262.06875 190.93125 263.0 191.0 263.0C191.06875 263.0 192.0 262.06875 192.0 262.0Z"
     id="path9186" />
  <path
     style="fill:#000000"
     d="M190.92971 239.69098C190.92124 239.426935 190.10357375 239.25897 190.0 239.5C189.8521525 239.84406 189.8521525 242.591375 190.0 242.5C190.06875 242.45751 190.9345425 239.84161 190.92971 239.69098Z"
     id="path9184" />
  <path
     style="fill:#ffffff"
     d="M120.51008 202.98369C120.5532625 202.91381875 121.91042 202.44463625 121.96743 202.47987C122.06890625 202.54258625 129.0 196.7463675 129.0 196.59879C129.0 196.55762375 126.939665 196.0 126.78756 196.0C126.63545625 196.0 122.44266 193.4390625 122.28523 193.25L119.99532 190.5L121.0056 193.33598C121.10279375 193.60881625 120.87896 195.75532875 120.75794 195.71098C120.67145625 195.6792875 119.7328125 194.20234375 119.75 194.125C119.7671875 194.04765625 119.17736125 193.0 119.11663 193.0C118.96387625 193.0 117.922215 197.45193 118.05567 197.53441C118.11666 197.57210375 118.08876625 200.26661125 118.02567 200.43258C117.87924375 200.81771 120.3076575 203.31128 120.51012 202.98369Z"
     id="path9182" />
  <path
     style="fill:#ffffff"
     d="M134.35145 191.23532C134.51483625 190.97649875 138.0187025 186.51447875 138.11399 186.44389C138.55852625 186.11458 162.4280125 181.6048375 164.1429 181.52616C165.1165425 181.48149 177.08798125 183.7662 177.69299 184.11215C178.3329425 184.47808 183.843585 185.29227125 183.97818 185.04078C184.0532675 184.90047625 184.33916125 182.9857425 184.28518 182.98469C184.23119875 182.98369 184.6149025 182.260615 184.69721 182.20829C184.77951875 182.15596625 185.215595 180.3488375 185.16548 180.26775C185.05274375 180.08533875 171.7980825 176.5239875 171.56492 176.61346C171.47124 176.64940875 169.5875175 176.14160625 169.54213 176.06817C169.49674375 175.99473375 166.66376 175.0 166.5 175.0C166.33624 175.0 163.50325625 174.00526625 163.45787 173.93183C163.4124825 173.8583925 161.5470775 173.34356125 161.45475 173.37899C161.36242125 173.41442 154.36748625 172.43654125 153.94341 172.32892C153.1978425 172.13970875 143.69804125 172.6949675 143.13751 172.96052C142.52845875 173.24905875 132.43898875 184.3870575 132.30574 184.91796C132.2623425 185.09086875 129.999005 189.23144875 129.87531 189.36422C129.6537525 189.6020325 124.97373375 188.92913125 124.53805 188.59682C124.1127525 188.27242875 121.63173 188.44739375 121.84695 188.7866C121.98725375 189.00773125 130.54801125 194.9434525 130.73746 194.95096C130.822535 194.954335 134.1880625 191.49414125 134.35145 191.23532Z"
     id="path9180" />
  <path
     style="fill:#000000"
     d="M182.0 191.90728C182.0 191.740685 175.33724 185.32943 175.25234 185.41433C175.14175625 185.5249125 180.90620875 193.55797125 181.03779 193.47665C181.10394125 193.435765 182.0 191.97429 182.0 191.90728Z"
     id="path9178" />
  <path
     style="fill:#000000"
     d="M162.0 186.0C162.0 185.93125 161.0137875 185.0 160.94098 185.0C160.8681725 185.0 160.45751 185.93125 160.5 186.0C160.54249 186.06875 161.5287025 187.0 161.55902 187.0C161.5893375 187.0 162.0 186.06875 162.0 186.0Z"
     id="path9176" />
  <path
     style="fill:#000000"
     d="M171.0 183.0C170.753735 182.84085125 167.40164125 182.84085125 167.5 183.0C167.54249 183.06875 170.15839 183.9857425 170.30902 183.98469C170.53167375 183.9831275 171.152435 183.09851125 171.0 183.0Z"
     id="path9174" />
  <path
     style="fill:#000000"
     d="M117.30011 356.75C116.4106275 355.670865 108.2452875 343.4213825 108.34738 343.31929C108.38078875 343.28588 110.69583 344.69583 110.83333 344.83333C110.97083 344.97083 112.2394725 347.4271975 112.19563 347.47104C112.1517875 347.5148825 112.4929325 348.75654625 112.56196 348.80437C112.6309875 348.852195 117.22860625 354.621875 117.499 355.0C117.76939375 355.378125 123.79178875 362.59417625 123.966 362.74878C124.1402125 362.90338375 125.3826025 364.99869625 125.30011 364.99878C125.2176175 364.99886375 117.7676175 357.3171875 117.30011 356.75Z"
     id="path9088" />
  <path
     style="fill:#000000"
     d="M234.0 361.60699C234.0 361.57997 235.44524375 360.65938375 235.55194 360.61844C235.66318 360.57575375 236.5367125 360.9405925 236.49292 361.01145C236.4195125 361.13022625 234.0 361.70822875 234.0 361.60699Z"
     id="path9086" />
  <path
     style="fill:#000000"
     d="M156.04584 329.08565C155.9490925 328.90487625 155.903755 327.0 155.9962 327.0C156.14773875 327.0 157.8075925 330.5257375 157.70456 330.62877C157.66726125 330.66606875 156.12257875 329.2290375 156.04584 329.08565Z"
     id="path9078" />
  <path
     style="fill:#000000"
     d="M282.63837 310.5C282.67794375 310.396875 284.045595 309.0 284.10699 309.0C284.16838375 309.0 285.0 307.845725 285.0 307.76051C285.0 307.44909125 289.59816625 298.004205 289.75 298.00375C289.8359375 298.0035 291.0 296.91353875 291.0 296.83333C291.0 296.7531225 291.6151275 296.28178875 291.66054 296.3272C291.70595125 296.3726125 290.88155875 298.62313625 290.77529 298.74387C290.66901625 298.86460375 286.80714125 305.8546875 286.62831 306.25C286.4494775 306.6453125 283.11246375 312.0 283.04494 312.0C282.97741625 312.0 282.5987975 310.603125 282.63837 310.5Z"
     id="path9076" />
  <path
     style="fill:#000000"
     d="M290.45315 291.5C290.5036475 291.29375 291.50866125 286.889915 291.53236 286.77105C291.58495375 286.50724875 293.92785 282.3257975 293.92546 282.5C293.92446 282.56875 292.75629125 287.87831875 292.67099 288.20155C292.50199375 288.84192125 290.3033575 292.11181375 290.45315 291.5Z"
     id="path9072" />
  <path
     style="fill:#000000"
     d="M195.0 280.0C195.0 279.93125 195.9862125 279.0 196.05902 279.0C196.1318275 279.0 196.54249 279.93125 196.5 280.0C196.45751 280.06875 195.4712975 281.0 195.44098 281.0C195.4106625 281.0 195.0 280.06875 195.0 280.0Z"
     id="path9070" />
  <path
     style="fill:#000000"
     d="M301.08029 272.0C301.26251625 271.61737125 303.0 269.4833825 303.0 269.6422C303.0 269.70926875 301.55174875 272.4254175 301.44483 272.55887C301.26153375 272.78765875 300.93995875 272.29465875 301.08029 272.0Z"
     id="path9068" />
  <path
     style="fill:#000000"
     d="M199.71433 268.98442C199.75056625 268.84584875 201.218515 266.36495125 201.29065 266.32037C201.3731225 266.26939875 201.7226 267.28051125 201.66994 267.41774C201.62388125 267.53776625 201.0 270.0186625 201.0 270.08179C201.0 270.14491625 200.15593375 271.0 200.09362 271.0C200.03130625 271.0 199.6780925 269.12299125 199.71433 268.98442Z"
     id="path9066" />
  <path
     style="fill:#000000"
     d="M217.35 267.95C217.3849325 267.75787125 219.748075 267.974795 219.80113 268.175C219.83577375 268.3057275 219.29141 268.2712975 219.19718 268.1368C219.11301625 268.016675 217.74417 267.8115025 217.69605 267.9118C217.65191 268.00380375 217.3338325 268.03882625 217.35 267.9499Z"
     id="path9064" />
  <path
     style="fill:#000000"
     d="M214.66667 267.33333C214.62083625 267.2874975 214.0 265.7043725 214.0 265.63333C214.0 265.555005 215.093635 265.693635 215.18333 265.78333C215.264685 265.864685 215.88552125 267.44781 215.85 267.48333C215.81447875 267.51885125 214.7125025 267.37916375 214.66667 267.33333Z"
     id="path9062" />
  <path
     style="fill:#000000"
     d="M303.07895 263.41667C303.08495 263.27105125 303.6432075 262.71278375 303.68311 262.8125C303.71921875 262.90273375 303.64574125 264.68763375 303.60421 264.72917C303.56267375 264.77070625 303.0735625 263.54844 303.07899 263.41667Z"
     id="path9060" />
  <path
     style="fill:#000000"
     d="M304.07895 259.41667C304.08495 259.27105125 304.6432075 258.71278375 304.68311 258.8125C304.71921875 258.90273375 304.64574125 260.68763375 304.60421 260.72917C304.56267375 260.77070625 304.0735625 259.54844 304.07899 259.41667Z"
     id="path9058" />
  <path
     style="fill:#000000"
     d="M305.15789 252.0C305.15789 251.828125 305.62760375 250.6640625 305.66228 250.75C305.69695625 250.8359375 305.69695625 253.1640625 305.66228 253.25C305.62760375 253.3359375 305.15789 252.171875 305.15789 252.0Z"
     id="path9056" />
  <path
     style="fill:#000000"
     d="M297.0 247.54705C297.0 247.28865375 300.03578125 241.0 300.16052 241.0C300.30039625 241.0 299.97698 245.18711 299.79911 245.679C299.64500875 246.10516 297.0 247.8703675 297.0 247.54705Z"
     id="path9054" />
  <path
     style="fill:#000000"
     d="M304.88278 247.81722C304.85646375 247.72666125 304.5 240.446875 304.5 240.0C304.5 239.41666625 305.63782 233.72756375 305.75 233.75C305.8359375 233.7671875 307.0 233.06875 307.0 233.0C307.0 232.93125 306.11796625 232.0 306.05285 232.0C305.98730625 232.0 305.285065 225.48440625 305.2984 225.0C305.31164875 224.51875 306.1936825 218.0 306.24555 218.0C306.29741875 218.0 307.124425 214.9734375 307.13361 214.75C307.146655 214.43269625 307.97648125 216.01184 308.05322 216.5C308.15835 217.1687675 306.18526 248.14696625 306.02669 248.31722C305.9743625 248.37340375 304.90909625 247.90777875 304.88278 247.81722Z"
     id="path9052" />
  <path
     style="fill:#000000"
     d="M300.15789 238.0C300.15789 237.828125 300.62760375 236.6640625 300.66228 236.75C300.69695625 236.8359375 300.69695625 239.1640625 300.66228 239.25C300.62760375 239.3359375 300.15789 238.171875 300.15789 238.0Z"
     id="path9050" />
  <path
     style="fill:#000000"
     d="M67.157895 221.0C67.157895 220.828125 67.627604375 219.6640625 67.662281 219.75C67.6969575 219.8359375 67.6969575 222.1640625 67.662281 222.25C67.627604375 222.3359375 67.157895 221.171875 67.157895 221.0Z"
     id="path9048" />
  <path
     style="fill:#000000"
     d="M65.75 217.4236C65.6984375 217.37156125 65.0 209.24173 65.0 208.69358C65.028743375 208.17043875 67.981372875 193.83004875 68.0 192.85902C68.0 192.6705775 68.777537 189.63748625 68.834939 189.60201C68.892341125 189.56653375 68.853154125 193.4693925 68.792859 193.793C68.732563875 194.11660625 67.2565885 207.66375125 67.207919 208.34027C67.1592495 209.01678875 65.801562375 217.47564 65.75 217.4236Z"
     id="path9046"
     inkscape:connector-curvature="0"
     sodipodi:nodetypes="sccssss" />
  <path
     style="fill:#000000"
     d="M306.07895 206.41667C306.08495 206.27105125 306.6432075 205.71278375 306.68311 205.8125C306.71921875 205.90273375 306.64574125 207.6876325 306.60421 207.72917C306.56267375 207.77070625 306.0735625 206.54844 306.07899 206.41667Z"
     id="path9044" />
  <path
     style="fill:#000000"
     d="M221.45888 199.93347C221.41356375 199.86014625 221.24356375 198.42310625 221.27633 198.39034C221.309095 198.35757375 222.30436875 199.35078 222.34508 199.45687C222.4296025 199.67713375 221.5821425 200.1329025 221.45888 199.93347Z"
     id="path9042" />
  <path
     style="fill:#000000"
     d="M232.0 197.875C232.0 197.7833175 229.0460625 197.34079125 228.78397 197.39321C228.41556 197.46689125 227.2716625 196.79062375 227.49208 196.62945C227.624365 196.53272125 230.4992175 195.63807 230.57917 195.66875C230.6591225 195.69943125 233.30341625 194.55372375 233.41868 194.43846C233.53394375 194.3231975 235.609765 193.276435 235.64775 193.31442C235.75574375 193.42241375 233.66784 196.0 233.47237 196.0C233.3671025 196.0 232.595385 197.3879825 232.63837 197.5C232.67794375 197.603125 232.6487025 199.0 232.60697 199.0C232.56524125 199.0 232.0 197.95234375 232.0 197.875Z"
     id="path9040" />
  <path
     style="fill:#000000"
     d="M272.41655 196.64313C272.3685725 196.51810125 269.113145 195.0 268.89301 195.0C268.69411625 195.0 266.0 194.00599375 266.0 193.93261C266.0 193.8512675 263.92870875 193.52262875 263.75784 193.57686C263.51472625 193.65402125 262.66644875 192.90190125 262.8064 192.73327C262.89513625 192.62634875 263.268745 190.66608625 263.20759 190.62829C263.14643375 190.590495 260.27958125 192.83571875 260.12909 193.03927C259.89021625 193.362365 253.547135 196.0 253.00902 196.0C252.53589875 196.0 246.23458875 194.02142375 246.03896 193.81144C245.89878125 193.66097625 244.0 190.8999875 244.0 190.84662C244.0 190.7932525 242.07758375 189.041525 241.93566 188.96557C241.72246125 188.85146875 236.74661 190.24410625 236.38673 190.5186C235.90259 190.88787125 230.3626625 190.43272125 230.48919 190.03407C230.56301 189.80148125 228.6789975 189.322755 228.3538 189.49147C228.16388 189.59000125 225.20854 190.54187 225.18028 190.51361C225.0924 190.42573 232.88829625 184.22245375 233.25 184.09245C233.65406375 183.94722125 234.39716125 186.34332625 234.06022 186.70499C233.7835125 187.002 234.61983625 188.95407375 234.91885 188.70913C235.02755375 188.62008125 239.759375 186.33701125 240.0 186.25751C240.4975275 186.09313 259.6370975 185.27571 259.85372 185.40959C259.93252625 185.45829625 261.93125 185.54248125 262.0 185.49999C262.06875 185.4575 263.0 186.23415625 263.0 186.33398C263.0 186.4338075 264.52859125 188.37258625 264.64144 188.41589C264.813 188.48172375 265.1510975 187.68204875 265.019 187.52288C264.89742125 187.3763875 264.85600875 186.0 264.97318 186.0C265.286755 186.0 272.88629625 193.15546625 273.02767 193.58383C273.17227625 194.0219925 272.5692125 197.0409625 272.41655 196.64313Z"
     id="path9038" />
  <path
     style="fill:#000000"
     d="M221.15789 192.0C221.15789 191.828125 221.62760375 190.6640625 221.66228 190.75C221.69695625 190.8359375 221.69695625 193.1640625 221.66228 193.25C221.62760375 193.3359375 221.15789 192.171875 221.15789 192.0Z"
     id="path9034" />
  <path
     style="fill:#000000"
     d="M284.5149 186.71879C284.63562625 186.5275825 286.79147 184.45814 286.8299 184.49657C286.86833125 184.535 285.23304625 187.1250025 285.07389 187.27778L282.75889 189.5L284.5149 186.71879Z"
     id="path9032" />
  <path
     style="fill:#000000"
     d="M279.0 186.64102C279.0 186.54759125 275.279675 182.12415375 275.00502 181.89102C274.730365 181.6578875 271.005365 177.3359375 271.00502 177.25C271.004675 177.1640625 270.06875 176.0 270.0 176.0C269.93125 176.0 269.2328125 174.85297875 269.25 174.7683C269.29825125 174.53057625 250.13467125 172.02462125 249.5039 172.18617C248.69556625 172.393195 235.4185 174.792755 234.5 174.89782C234.01875 174.95286875 225.8597525 176.40821625 225.73866 176.46061C225.56163375 176.5372025 224.60451 175.58824625 224.67459 175.40562C224.835495 174.9863075 230.820805 170.0 231.16322 170.0C231.35013375 170.0 234.35915125 169.22789125 234.39438 169.17089C234.42960875 169.11389 240.07207125 167.10265875 240.4534 167.01118C240.83472875 166.9197 246.0 164.95660625 246.0 164.90316C246.0 164.8497125 249.037375 164.61864125 249.26161 164.65503C249.57189625 164.7053825 254.2364775 163.29119375 254.4166 163.09216C254.67683875 162.80459875 259.1390925 161.91728625 259.21281 162.13844C259.24755625 162.24267625 262.84636625 162.10019625 263.17434 161.9816C263.582905 161.83386125 270.18657375 162.78832875 270.62819 163.05895C270.8943775 163.22207 276.828125 168.2008575 277.0 168.4053C277.171875 168.6097425 282.9921875 174.96352125 283.25 175.22815C283.5078125 175.4927775 287.0 180.09540625 287.0 180.17057C287.0 180.29655 279.550625 188.0 279.4288 188.0C279.39932 188.0 279.0 186.73445 279.0 186.64102Z"
     id="path9030" />
  <path
     style="fill:#000000"
     d="M149.2177 151.8455C149.2485025 151.7529975 151.3254975 150.1782525 151.44803 150.1545C151.5905325 150.126875 152.8181225 151.04692125 152.7823 151.1545C152.7514975 151.2470025 150.6745025 152.8217475 150.55197 152.8455C150.4094675 152.873125 149.1818775 151.95307875 149.2177 151.8455Z"
     id="path9028" />
  <path
     style="fill:#000000"
     d="M292.54271 133.0691C292.503155 133.0051 292.91381875 131.5532625 292.98369 131.51008C293.05356125 131.4668975 294.0 132.3337925 294.0 132.44098C294.0 132.66054625 292.64986375 133.24248 292.54271 133.0691Z"
     id="path9026" />
  <path
     style="fill:none;stroke:#000000;stroke-width:1px;stroke-linecap:butt;stroke-linejoin:miter;stroke-opacity:1"
     d="m 306.18432,190.77966 1.27754,28.10593"
     id="path9280"
     inkscape:connector-curvature="0"
     sodipodi:nodetypes="cc" />
  <path
     style="fill:none;stroke:#000000;stroke-width:1px;stroke-linecap:butt;stroke-linejoin:miter;stroke-opacity:1"
     d="M305.75847 247.41737L303.20339 266.15466L300.22246 273.81992L293.83475 283.61441"
     id="path9282"
     inkscape:connector-curvature="0" />
  <path
     style="fill:none;stroke:#000000;stroke-width:1px;stroke-linecap:butt;stroke-linejoin:miter;stroke-opacity:1"
     d="m 290.90548,289.67073 -2.60675,10.97757"
     id="path9284"
     inkscape:connector-curvature="0"
     sodipodi:nodetypes="cc" />
  <path
     style="fill:none;stroke:#000000;stroke-width:1px;stroke-linecap:butt;stroke-linejoin:miter;stroke-opacity:1"
     d="M283.18856 310.86864L263.59958 336.41949L238.04873 356.00847"
     id="path9286"
     inkscape:connector-curvature="0" />
  <path
     style="fill:none;stroke:#000000;stroke-width:1px;stroke-linecap:butt;stroke-linejoin:miter;stroke-opacity:1"
     d="M239.08898 355.47702L235.32499 357.58486"
     id="path9288"
     inkscape:connector-curvature="0" />
  <path
     style="fill:none;stroke:#000000;stroke-width:1px;stroke-linecap:butt;stroke-linejoin:miter;stroke-opacity:1"
     d="M82.807897 263.48497L76.183265 252.34355"
     id="path9290"
     inkscape:connector-curvature="0" />
  <path
     style="fill:none;stroke:#000000;stroke-width:1px;stroke-linecap:butt;stroke-linejoin:miter;stroke-opacity:1"
     d="M70.160873 237.8898L65.041839 214.40247"
     id="path9292"
     inkscape:connector-curvature="0" />
  <path
     style="fill:none;stroke:#000000;stroke-width:1px;stroke-linecap:butt;stroke-linejoin:miter;stroke-opacity:1"
     d="M68.354155 191.51738L73.172069 172.24573L77.387744 173.75132"
     id="path9294"
     inkscape:connector-curvature="0" />
</svg>
